G04 #@! TF.GenerationSoftware,KiCad,Pcbnew,(5.1.5-0-10_14)*
G04 #@! TF.CreationDate,2020-02-09T18:22:42-08:00*
G04 #@! TF.ProjectId,badge-proto,62616467-652d-4707-926f-746f2e6b6963,rev?*
G04 #@! TF.SameCoordinates,Original*
G04 #@! TF.FileFunction,Profile,NP*
%FSLAX46Y46*%
G04 Gerber Fmt 4.6, Leading zero omitted, Abs format (unit mm)*
G04 Created by KiCad (PCBNEW (5.1.5-0-10_14)) date 2020-02-09 18:22:42*
%MOMM*%
%LPD*%
G04 APERTURE LIST*
%ADD10C,0.100000*%
G04 APERTURE END LIST*
D10*
X14913455Y48424225D02*
X14599262Y48419057D01*
X14599262Y48419057D02*
X14288689Y48406655D01*
X14288689Y48406655D02*
X13982765Y48387018D01*
X13982765Y48387018D02*
X13681489Y48359630D01*
X13681489Y48359630D02*
X13385902Y48325006D01*
X13385902Y48325006D02*
X13096514Y48283148D01*
X13096514Y48283148D02*
X12813844Y48234056D01*
X12813844Y48234056D02*
X12537891Y48176695D01*
X12537891Y48176695D02*
X12362708Y48135354D01*
X12362708Y48135354D02*
X12187525Y48089879D01*
X12187525Y48089879D02*
X12012341Y48040269D01*
X12012341Y48040269D02*
X11837674Y47986009D01*
X11837674Y47986009D02*
X11663009Y47928131D01*
X11663009Y47928131D02*
X11488342Y47865603D01*
X11488342Y47865603D02*
X11140042Y47728660D01*
X11140042Y47728660D02*
X10792776Y47575181D01*
X10792776Y47575181D02*
X10446545Y47405683D01*
X10446545Y47405683D02*
X10101864Y47220164D01*
X10101864Y47220164D02*
X9758216Y47018626D01*
X9758216Y47018626D02*
X9416633Y46801068D01*
X9416633Y46801068D02*
X9076085Y46568008D01*
X9076085Y46568008D02*
X8738123Y46319444D01*
X8738123Y46319444D02*
X8401710Y46055377D01*
X8401710Y46055377D02*
X8067880Y45776325D01*
X8067880Y45776325D02*
X7736116Y45481769D01*
X7736116Y45481769D02*
X7407454Y45172744D01*
X7407454Y45172744D02*
X7080860Y44848733D01*
X7080860Y44848733D02*
X6849350Y44609988D01*
X6849350Y44609988D02*
X6633341Y44381578D01*
X6633341Y44381578D02*
X6432321Y44161436D01*
X6432321Y44161436D02*
X6243184Y43946979D01*
X6243184Y43946979D02*
X6065934Y43736139D01*
X6065934Y43736139D02*
X5897985Y43527366D01*
X5897985Y43527366D02*
X5738306Y43317560D01*
X5738306Y43317560D02*
X5585342Y43105170D01*
X5585342Y43105170D02*
X5438065Y42887612D01*
X5438065Y42887612D02*
X5293888Y42663336D01*
X5293888Y42663336D02*
X5152296Y42429759D01*
X5152296Y42429759D02*
X5011218Y42184813D01*
X5011218Y42184813D02*
X4869626Y41926431D01*
X4869626Y41926431D02*
X4725447Y41652029D01*
X4725447Y41652029D02*
X4577653Y41360057D01*
X4577653Y41360057D02*
X4424692Y41047931D01*
X4424692Y41047931D02*
X4299634Y40784382D01*
X4299634Y40784382D02*
X4178712Y40520315D01*
X4178712Y40520315D02*
X4062438Y40255732D01*
X4062438Y40255732D02*
X3950818Y39991148D01*
X3950818Y39991148D02*
X3843847Y39725531D01*
X3843847Y39725531D02*
X3741527Y39459915D01*
X3741527Y39459915D02*
X3643859Y39194298D01*
X3643859Y39194298D02*
X3550842Y38928164D01*
X3550842Y38928164D02*
X3461958Y38662030D01*
X3461958Y38662030D02*
X3378244Y38395380D01*
X3378244Y38395380D02*
X3298662Y38128730D01*
X3298662Y38128730D02*
X3224248Y37862596D01*
X3224248Y37862596D02*
X3154483Y37595946D01*
X3154483Y37595946D02*
X3089372Y37329295D01*
X3089372Y37329295D02*
X3028393Y37062645D01*
X3028393Y37062645D02*
X2972582Y36796511D01*
X2972582Y36796511D02*
X2921422Y36530378D01*
X2921422Y36530378D02*
X2875432Y36264244D01*
X2875432Y36264244D02*
X2833573Y35998627D01*
X2833573Y35998627D02*
X2796883Y35733527D01*
X2796883Y35733527D02*
X2764328Y35468427D01*
X2764328Y35468427D02*
X2737455Y35203844D01*
X2737455Y35203844D02*
X2714719Y34939777D01*
X2714719Y34939777D02*
X2697148Y34675711D01*
X2697148Y34675711D02*
X2683713Y34412678D01*
X2683713Y34412678D02*
X2675960Y34150161D01*
X2675960Y34150161D02*
X2672343Y33888162D01*
X2672343Y33888162D02*
X2674410Y33626679D01*
X2674410Y33626679D02*
X2680612Y33366230D01*
X2680612Y33366230D02*
X2691981Y33106297D01*
X2691981Y33106297D02*
X2707999Y32847398D01*
X2707999Y32847398D02*
X2729186Y32589016D01*
X2729186Y32589016D02*
X2765876Y32223664D01*
X2765876Y32223664D02*
X2808252Y31870197D01*
X2808252Y31870197D02*
X2856311Y31527582D01*
X2856311Y31527582D02*
X2911087Y31195303D01*
X2911087Y31195303D02*
X2972066Y30871292D01*
X2972066Y30871292D02*
X3040278Y30555032D01*
X3040278Y30555032D02*
X3116243Y30245490D01*
X3116243Y30245490D02*
X3199444Y29941116D01*
X3199444Y29941116D02*
X3291426Y29641393D01*
X3291426Y29641393D02*
X3391163Y29344770D01*
X3391163Y29344770D02*
X3499682Y29050731D01*
X3499682Y29050731D02*
X3618022Y28757726D01*
X3618022Y28757726D02*
X3745147Y28464720D01*
X3745147Y28464720D02*
X3882606Y28170681D01*
X3882606Y28170681D02*
X4029883Y27874575D01*
X4029883Y27874575D02*
X4188012Y27575369D01*
X4188012Y27575369D02*
X4339642Y27322764D01*
X4339642Y27322764D02*
X4535556Y27011414D01*
X4535556Y27011414D02*
X4907348Y26431769D01*
X4907348Y26431769D02*
X5087173Y26143878D01*
X5087173Y26143878D02*
X5237367Y25889607D01*
X5237367Y25889607D02*
X5357297Y25670256D01*
X5357297Y25670256D02*
X5446333Y25487124D01*
X5446333Y25487124D02*
X5473350Y25416391D01*
X5473350Y25416391D02*
X5491294Y25357933D01*
X5491294Y25357933D02*
X5341001Y25407102D01*
X5341001Y25407102D02*
X5151210Y25483229D01*
X5151210Y25483229D02*
X4924109Y25585979D01*
X4924109Y25585979D02*
X4661886Y25715017D01*
X4661886Y25715017D02*
X4533148Y25783608D01*
X4533148Y25783608D02*
X4407847Y25856438D01*
X4407847Y25856438D02*
X4285322Y25933679D01*
X4285322Y25933679D02*
X4164915Y26015506D01*
X4164915Y26015506D02*
X4045967Y26102092D01*
X4045967Y26102092D02*
X3927820Y26193611D01*
X3927820Y26193611D02*
X3691294Y26392140D01*
X3691294Y26392140D02*
X3450065Y26612482D01*
X3450065Y26612482D02*
X3198865Y26856026D01*
X3198865Y26856026D02*
X2932424Y27124160D01*
X2932424Y27124160D02*
X2645472Y27418273D01*
X2645472Y27418273D02*
X2500777Y27575369D01*
X2500777Y27575369D02*
X2238779Y27872509D01*
X2238779Y27872509D02*
X2120438Y28015652D01*
X2120438Y28015652D02*
X2008819Y28157246D01*
X2008819Y28157246D02*
X1903398Y28297806D01*
X1903398Y28297806D02*
X1803663Y28439399D01*
X1803663Y28439399D02*
X1708061Y28583059D01*
X1708061Y28583059D02*
X1616076Y28730337D01*
X1616076Y28730337D02*
X1527192Y28882266D01*
X1527192Y28882266D02*
X1439861Y29040396D01*
X1439861Y29040396D02*
X1353560Y29206277D01*
X1353560Y29206277D02*
X1267260Y29380944D01*
X1267260Y29380944D02*
X1092077Y29761282D01*
X1092077Y29761282D02*
X907075Y30192780D01*
X907075Y30192780D02*
X733961Y30621178D01*
X733961Y30621178D02*
X587199Y31014952D01*
X587199Y31014952D02*
X523120Y31203054D01*
X523120Y31203054D02*
X464210Y31387023D01*
X464210Y31387023D02*
X410465Y31568407D01*
X410465Y31568407D02*
X361372Y31749274D01*
X361372Y31749274D02*
X316414Y31931175D01*
X316414Y31931175D02*
X275589Y32115660D01*
X275589Y32115660D02*
X237867Y32303762D01*
X237867Y32303762D02*
X203244Y32497549D01*
X203244Y32497549D02*
X141749Y32908377D01*
X141749Y32908377D02*
X86970Y33360545D01*
X86970Y33360545D02*
X55966Y33677322D01*
X55966Y33677322D02*
X33744Y33989448D01*
X33744Y33989448D02*
X19792Y34299506D01*
X19792Y34299506D02*
X15141Y34610598D01*
X15141Y34610598D02*
X19792Y34924274D01*
X19792Y34924274D02*
X33744Y35243118D01*
X33744Y35243118D02*
X57517Y35570230D01*
X57517Y35570230D02*
X91621Y35907677D01*
X91621Y35907677D02*
X136063Y36258043D01*
X136063Y36258043D02*
X191875Y36623395D01*
X191875Y36623395D02*
X258020Y37006834D01*
X258020Y37006834D02*
X336051Y37410427D01*
X336051Y37410427D02*
X425451Y37836758D01*
X425451Y37836758D02*
X526737Y38288410D01*
X526737Y38288410D02*
X640425Y38767450D01*
X640425Y38767450D02*
X766515Y39276463D01*
X766515Y39276463D02*
X957203Y40064012D01*
X957203Y40064012D02*
X1138586Y40867581D01*
X1138586Y40867581D02*
X1290515Y41598285D01*
X1290515Y41598285D02*
X1349427Y41908344D01*
X1349427Y41908344D02*
X1393350Y42167243D01*
X1393350Y42167243D02*
X1428492Y42416323D01*
X1428492Y42416323D02*
X1456914Y42665404D01*
X1456914Y42665404D02*
X1477583Y42912934D01*
X1477583Y42912934D02*
X1491537Y43159430D01*
X1491537Y43159430D02*
X1498255Y43403860D01*
X1498255Y43403860D02*
X1498255Y43646222D01*
X1498255Y43646222D02*
X1492053Y43886001D01*
X1492053Y43886001D02*
X1479133Y44122679D01*
X1479133Y44122679D02*
X1460015Y44355740D01*
X1460015Y44355740D02*
X1434691Y44584666D01*
X1434691Y44584666D02*
X1403169Y44808942D01*
X1403169Y44808942D02*
X1365447Y45029084D01*
X1365447Y45029084D02*
X1322037Y45243541D01*
X1322037Y45243541D02*
X1273462Y45452314D01*
X1273462Y45452314D02*
X1219201Y45654885D01*
X1219201Y45654885D02*
X1159257Y45850739D01*
X1159257Y45850739D02*
X1094146Y46039875D01*
X1094146Y46039875D02*
X1023865Y46221776D01*
X1023865Y46221776D02*
X947900Y46395925D01*
X947900Y46395925D02*
X866769Y46561807D01*
X866769Y46561807D02*
X779435Y46719420D01*
X779435Y46719420D02*
X686934Y46867731D01*
X686934Y46867731D02*
X588234Y47006741D01*
X588234Y47006741D02*
X483329Y47135932D01*
X483329Y47135932D02*
X371191Y47255304D01*
X371191Y47255304D02*
X251819Y47363308D01*
X251819Y47363308D02*
X124694Y47458909D01*
X124694Y47458909D02*
X58033Y47501801D01*
X58033Y47501801D02*
X-9664Y47540558D01*
X-9664Y47540558D02*
X-79426Y47575698D01*
X-79426Y47575698D02*
X-150224Y47606704D01*
X-150224Y47606704D02*
X-223087Y47633576D01*
X-223087Y47633576D02*
X-296985Y47655797D01*
X-296985Y47655797D02*
X-372431Y47673367D01*
X-372431Y47673367D02*
X-449430Y47686286D01*
X-449430Y47686286D02*
X-527461Y47694037D01*
X-527461Y47694037D02*
X-606527Y47696621D01*
X-606527Y47696621D02*
X-724348Y47693004D01*
X-724348Y47693004D02*
X-841654Y47681635D01*
X-841654Y47681635D02*
X-957409Y47663031D01*
X-957409Y47663031D02*
X-1071614Y47638227D01*
X-1071614Y47638227D02*
X-1183752Y47606704D01*
X-1183752Y47606704D02*
X-1293306Y47569497D01*
X-1293306Y47569497D02*
X-1399761Y47527122D01*
X-1399761Y47527122D02*
X-1503112Y47479580D01*
X-1503112Y47479580D02*
X-1602847Y47427903D01*
X-1602847Y47427903D02*
X-1698967Y47371576D01*
X-1698967Y47371576D02*
X-1790434Y47310081D01*
X-1790434Y47310081D02*
X-1875699Y47242385D01*
X-1875699Y47242385D02*
X-1954248Y47167971D01*
X-1954248Y47167971D02*
X-2025045Y47085289D01*
X-2025045Y47085289D02*
X-2087574Y46994338D01*
X-2087574Y46994338D02*
X-2139766Y46893569D01*
X-2139766Y46893569D02*
X-2165087Y46831041D01*
X-2165087Y46831041D02*
X-2186793Y46767479D01*
X-2186793Y46767479D02*
X-2203845Y46702366D01*
X-2203845Y46702366D02*
X-2216765Y46634670D01*
X-2216765Y46634670D02*
X-2232267Y46491010D01*
X-2232267Y46491010D02*
X-2234852Y46332363D01*
X-2234852Y46332363D02*
X-2226065Y46155113D01*
X-2226065Y46155113D02*
X-2206946Y45955125D01*
X-2206946Y45955125D02*
X-2145452Y45469883D01*
X-2145452Y45469883D02*
X-2117028Y45248192D01*
X-2117028Y45248192D02*
X-2095842Y45048720D01*
X-2095842Y45048720D02*
X-2083439Y44865786D01*
X-2083439Y44865786D02*
X-2079822Y44693704D01*
X-2079822Y44693704D02*
X-2087056Y44526789D01*
X-2087056Y44526789D02*
X-2106177Y44359357D01*
X-2106177Y44359357D02*
X-2137184Y44185724D01*
X-2137184Y44185724D02*
X-2182658Y43999172D01*
X-2182658Y43999172D02*
X-2243636Y43794534D01*
X-2243636Y43794534D02*
X-2322702Y43566641D01*
X-2322702Y43566641D02*
X-2420886Y43310842D01*
X-2420886Y43310842D02*
X-2539742Y43023004D01*
X-2539742Y43023004D02*
X-2680818Y42698477D01*
X-2680818Y42698477D02*
X-2844632Y42333641D01*
X-2844632Y42333641D02*
X-3247193Y41463926D01*
X-3247193Y41463926D02*
X-3602208Y40691364D01*
X-3602208Y40691364D02*
X-3758272Y40338931D01*
X-3758272Y40338931D02*
X-3901415Y40006135D01*
X-3901415Y40006135D02*
X-4032674Y39688841D01*
X-4032674Y39688841D02*
X-4152562Y39385501D01*
X-4152562Y39385501D02*
X-4262118Y39093012D01*
X-4262118Y39093012D02*
X-4362885Y38807758D01*
X-4362885Y38807758D02*
X-4454870Y38528188D01*
X-4454870Y38528188D02*
X-4539619Y38250686D01*
X-4539619Y38250686D02*
X-4617652Y37973184D01*
X-4617652Y37973184D02*
X-4690516Y37692064D01*
X-4690516Y37692064D02*
X-4758728Y37404743D01*
X-4758728Y37404743D02*
X-4823839Y37109154D01*
X-4823839Y37109154D02*
X-4885853Y36801679D01*
X-4885853Y36801679D02*
X-4946312Y36479735D01*
X-4946312Y36479735D02*
X-4997991Y36168126D01*
X-4997991Y36168126D02*
X-5045531Y35829645D01*
X-5045531Y35829645D02*
X-5088941Y35469460D01*
X-5088941Y35469460D02*
X-5127182Y35091189D01*
X-5127182Y35091189D02*
X-5160770Y34698965D01*
X-5160770Y34698965D02*
X-5189192Y34297439D01*
X-5189192Y34297439D02*
X-5212446Y33890745D01*
X-5212446Y33890745D02*
X-5230017Y33482502D01*
X-5230017Y33482502D02*
X-5242418Y33077359D01*
X-5242418Y33077359D02*
X-5248620Y32679967D01*
X-5248620Y32679967D02*
X-5249136Y32293427D01*
X-5249136Y32293427D02*
X-5243453Y31922907D01*
X-5243453Y31922907D02*
X-5231568Y31572024D01*
X-5231568Y31572024D02*
X-5212965Y31245429D01*
X-5212965Y31245429D02*
X-5187642Y30946739D01*
X-5187642Y30946739D02*
X-5155603Y30680606D01*
X-5155603Y30680606D02*
X-5092558Y30286314D01*
X-5092558Y30286314D02*
X-5017626Y29892540D01*
X-5017626Y29892540D02*
X-4929776Y29500833D01*
X-4929776Y29500833D02*
X-4830557Y29110676D01*
X-4830557Y29110676D02*
X-4719453Y28722586D01*
X-4719453Y28722586D02*
X-4596464Y28337080D01*
X-4596464Y28337080D02*
X-4462622Y27954674D01*
X-4462622Y27954674D02*
X-4317411Y27575369D01*
X-4317411Y27575369D02*
X-15020116Y27575369D01*
X-15020116Y27575369D02*
X-14768453Y28992854D01*
X-14768453Y28992854D02*
X-14518339Y30475450D01*
X-14518339Y30475450D02*
X-14227401Y32219013D01*
X-14227401Y32219013D02*
X-13915791Y34014769D01*
X-13915791Y34014769D02*
X-13593330Y35812075D01*
X-13593330Y35812075D02*
X-13269837Y37558739D01*
X-13269837Y37558739D02*
X-12954610Y39203600D01*
X-12954610Y39203600D02*
X-12657469Y40696015D01*
X-12657469Y40696015D02*
X-12388237Y41983275D01*
X-12388237Y41983275D02*
X-12266796Y42534145D01*
X-12266796Y42534145D02*
X-12156208Y43014736D01*
X-12156208Y43014736D02*
X-12054407Y43455019D01*
X-12054407Y43455019D02*
X-11957771Y43887551D01*
X-11957771Y43887551D02*
X-11784138Y44720575D01*
X-11784138Y44720575D02*
X-11707657Y45115900D01*
X-11707657Y45115900D02*
X-11638411Y45493655D01*
X-11638411Y45493655D02*
X-11576916Y45851772D01*
X-11576916Y45851772D02*
X-11523171Y46187669D01*
X-11523171Y46187669D02*
X-11477697Y46498761D01*
X-11477697Y46498761D02*
X-11441524Y46782982D01*
X-11441524Y46782982D02*
X-11414137Y47037230D01*
X-11414137Y47037230D02*
X-11396566Y47259955D01*
X-11396566Y47259955D02*
X-11388813Y47448057D01*
X-11388813Y47448057D02*
X-11391398Y47598952D01*
X-11391398Y47598952D02*
X-11404834Y47711090D01*
X-11404834Y47711090D02*
X-11415168Y47751398D01*
X-11415168Y47751398D02*
X-11429123Y47780853D01*
X-11429123Y47780853D02*
X-11473046Y47841832D01*
X-11473046Y47841832D02*
X-11526791Y47898159D01*
X-11526791Y47898159D02*
X-11590352Y47949835D01*
X-11590352Y47949835D02*
X-11662699Y47997378D01*
X-11662699Y47997378D02*
X-11744347Y48040269D01*
X-11744347Y48040269D02*
X-11834782Y48079027D01*
X-11834782Y48079027D02*
X-11932966Y48113650D01*
X-11932966Y48113650D02*
X-12039421Y48144139D01*
X-12039421Y48144139D02*
X-12153107Y48170494D01*
X-12153107Y48170494D02*
X-12274548Y48192715D01*
X-12274548Y48192715D02*
X-12403223Y48211318D01*
X-12403223Y48211318D02*
X-12538097Y48226304D01*
X-12538097Y48226304D02*
X-12679692Y48237156D01*
X-12679692Y48237156D02*
X-12827485Y48244391D01*
X-12827485Y48244391D02*
X-13139612Y48248008D01*
X-13139612Y48248008D02*
X-13472926Y48237673D01*
X-13472926Y48237673D02*
X-13824324Y48213902D01*
X-13824324Y48213902D02*
X-14191227Y48177728D01*
X-14191227Y48177728D02*
X-14571566Y48129153D01*
X-14571566Y48129153D02*
X-14962755Y48069208D01*
X-14962755Y48069208D02*
X-15362215Y47998411D01*
X-15362215Y47998411D02*
X-15767358Y47916763D01*
X-15767358Y47916763D02*
X-16176118Y47825295D01*
X-16176118Y47825295D02*
X-16585397Y47725043D01*
X-16585397Y47725043D02*
X-16993641Y47616006D01*
X-16993641Y47616006D02*
X-17397234Y47498700D01*
X-17397234Y47498700D02*
X-17794109Y47373643D01*
X-17794109Y47373643D02*
X-18182197Y47241868D01*
X-18182197Y47241868D02*
X-18558918Y47103892D01*
X-18558918Y47103892D02*
X-18921689Y46960232D01*
X-18921689Y46960232D02*
X-19267404Y46811404D01*
X-19267404Y46811404D02*
X-19594513Y46657925D01*
X-19594513Y46657925D02*
X-19899922Y46500312D01*
X-19899922Y46500312D02*
X-20181558Y46339598D01*
X-20181558Y46339598D02*
X-20312817Y46257949D01*
X-20312817Y46257949D02*
X-20436841Y46175784D01*
X-20436841Y46175784D02*
X-20553628Y46092585D01*
X-20553628Y46092585D02*
X-20663184Y46009385D01*
X-20663184Y46009385D02*
X-20764469Y45925670D01*
X-20764469Y45925670D02*
X-20858005Y45841954D01*
X-20858005Y45841954D02*
X-20942753Y45757205D01*
X-20942753Y45757205D02*
X-21018718Y45672972D01*
X-21018718Y45672972D02*
X-21085896Y45588223D01*
X-21085896Y45588223D02*
X-21143773Y45503473D01*
X-21143773Y45503473D02*
X-21216121Y45377899D01*
X-21216121Y45377899D02*
X-21290019Y45233722D01*
X-21290019Y45233722D02*
X-21364949Y45072492D01*
X-21364949Y45072492D02*
X-21439879Y44895758D01*
X-21439879Y44895758D02*
X-21514293Y44705072D01*
X-21514293Y44705072D02*
X-21588191Y44502501D01*
X-21588191Y44502501D02*
X-21661055Y44289594D01*
X-21661055Y44289594D02*
X-21731336Y44068419D01*
X-21731336Y44068419D02*
X-21799548Y43839492D01*
X-21799548Y43839492D02*
X-21865178Y43605915D01*
X-21865178Y43605915D02*
X-21926673Y43368720D01*
X-21926673Y43368720D02*
X-21984550Y43129458D01*
X-21984550Y43129458D02*
X-22038292Y42890196D01*
X-22038292Y42890196D02*
X-22086351Y42651968D01*
X-22086351Y42651968D02*
X-22129243Y42417357D01*
X-22129243Y42417357D02*
X-22166451Y42187913D01*
X-22166451Y42187913D02*
X-22230531Y41706806D01*
X-22230531Y41706806D02*
X-22296677Y41125446D01*
X-22296677Y41125446D02*
X-22364370Y40452619D01*
X-22364370Y40452619D02*
X-22432585Y39697626D01*
X-22432585Y39697626D02*
X-22501313Y38869770D01*
X-22501313Y38869770D02*
X-22570044Y37977835D01*
X-22570044Y37977835D02*
X-22638256Y37031639D01*
X-22638256Y37031639D02*
X-22705953Y36039968D01*
X-22705953Y36039968D02*
X-22835659Y33956891D01*
X-22835659Y33956891D02*
X-22956584Y31803018D01*
X-22956584Y31803018D02*
X-23064587Y29651211D01*
X-23064587Y29651211D02*
X-23156054Y27575369D01*
X-23156054Y27575369D02*
X-27501525Y27575369D01*
X-27501525Y27575369D02*
X-27335644Y28617166D01*
X-27335644Y28617166D02*
X-27156844Y29766966D01*
X-27156844Y29766966D02*
X-26893294Y31440249D01*
X-26893294Y31440249D02*
X-26609590Y33159524D01*
X-26609590Y33159524D02*
X-26314518Y34877249D01*
X-26314518Y34877249D02*
X-26016862Y36542780D01*
X-26016862Y36542780D02*
X-25726440Y38108576D01*
X-25726440Y38108576D02*
X-25451005Y39524510D01*
X-25451005Y39524510D02*
X-25321814Y40161164D01*
X-25321814Y40161164D02*
X-25199857Y40742007D01*
X-25199857Y40742007D02*
X-25086686Y41261355D01*
X-25086686Y41261355D02*
X-24982299Y41712490D01*
X-24982299Y41712490D02*
X-24736320Y42758421D01*
X-24736320Y42758421D02*
X-24525480Y43687563D01*
X-24525480Y43687563D02*
X-24350813Y44507151D01*
X-24350813Y44507151D02*
X-24277433Y44877672D01*
X-24277433Y44877672D02*
X-24213354Y45223387D01*
X-24213354Y45223387D02*
X-24158576Y45545331D01*
X-24158576Y45545331D02*
X-24113102Y45843504D01*
X-24113102Y45843504D02*
X-24077963Y46119456D01*
X-24077963Y46119456D02*
X-24052123Y46374221D01*
X-24052123Y46374221D02*
X-24036103Y46607799D01*
X-24036103Y46607799D02*
X-24030420Y46822256D01*
X-24030420Y46822256D02*
X-24034552Y47017076D01*
X-24034552Y47017076D02*
X-24048507Y47193809D01*
X-24048507Y47193809D02*
X-24072795Y47353489D01*
X-24072795Y47353489D02*
X-24107935Y47496633D01*
X-24107935Y47496633D02*
X-24152893Y47624274D01*
X-24152893Y47624274D02*
X-24208703Y47736929D01*
X-24208703Y47736929D02*
X-24240226Y47788088D01*
X-24240226Y47788088D02*
X-24274849Y47835631D01*
X-24274849Y47835631D02*
X-24312056Y47880589D01*
X-24312056Y47880589D02*
X-24351847Y47921930D01*
X-24351847Y47921930D02*
X-24394221Y47960171D01*
X-24394221Y47960171D02*
X-24439697Y47995311D01*
X-24439697Y47995311D02*
X-24538399Y48057839D01*
X-24538399Y48057839D02*
X-24648470Y48109516D01*
X-24648470Y48109516D02*
X-24768876Y48151374D01*
X-24768876Y48151374D02*
X-24901167Y48184963D01*
X-24901167Y48184963D02*
X-25044311Y48210285D01*
X-25044311Y48210285D02*
X-25199340Y48228371D01*
X-25199340Y48228371D02*
X-25365222Y48240257D01*
X-25365222Y48240257D02*
X-25543505Y48246975D01*
X-25543505Y48246975D02*
X-25732641Y48249042D01*
X-25732641Y48249042D02*
X-25964668Y48244908D01*
X-25964668Y48244908D02*
X-26207031Y48233539D01*
X-26207031Y48233539D02*
X-26458178Y48214419D01*
X-26458178Y48214419D02*
X-26717594Y48188064D01*
X-26717594Y48188064D02*
X-26984761Y48154991D01*
X-26984761Y48154991D02*
X-27257613Y48115717D01*
X-27257613Y48115717D02*
X-27536149Y48070242D01*
X-27536149Y48070242D02*
X-27818819Y48018565D01*
X-27818819Y48018565D02*
X-28105106Y47961204D01*
X-28105106Y47961204D02*
X-28393977Y47898676D01*
X-28393977Y47898676D02*
X-28684399Y47831496D01*
X-28684399Y47831496D02*
X-28975337Y47759666D01*
X-28975337Y47759666D02*
X-29265759Y47683185D01*
X-29265759Y47683185D02*
X-29554630Y47602570D01*
X-29554630Y47602570D02*
X-29841434Y47518337D01*
X-29841434Y47518337D02*
X-30124621Y47430487D01*
X-30124621Y47430487D02*
X-30404191Y47340054D01*
X-30404191Y47340054D02*
X-30678076Y47246002D01*
X-30678076Y47246002D02*
X-30945760Y47149884D01*
X-30945760Y47149884D02*
X-31206725Y47051699D01*
X-31206725Y47051699D02*
X-31459423Y46950930D01*
X-31459423Y46950930D02*
X-31702819Y46849127D01*
X-31702819Y46849127D02*
X-31936397Y46745775D01*
X-31936397Y46745775D02*
X-32159122Y46641388D01*
X-32159122Y46641388D02*
X-32369445Y46536485D01*
X-32369445Y46536485D02*
X-32567366Y46431065D01*
X-32567366Y46431065D02*
X-32751334Y46325645D01*
X-32751334Y46325645D02*
X-32920316Y46220225D01*
X-32920316Y46220225D02*
X-33073795Y46115322D01*
X-33073795Y46115322D02*
X-33210738Y46011452D01*
X-33210738Y46011452D02*
X-33329593Y45908100D01*
X-33329593Y45908100D02*
X-33429846Y45806814D01*
X-33429846Y45806814D02*
X-33474287Y45753070D01*
X-33474287Y45753070D02*
X-33519246Y45690542D01*
X-33519246Y45690542D02*
X-33564721Y45618712D01*
X-33564721Y45618712D02*
X-33610196Y45538096D01*
X-33610196Y45538096D02*
X-33702697Y45352061D01*
X-33702697Y45352061D02*
X-33795715Y45134503D01*
X-33795715Y45134503D02*
X-33889249Y44886457D01*
X-33889249Y44886457D02*
X-33982267Y44611021D01*
X-33982267Y44611021D02*
X-34074768Y44310264D01*
X-34074768Y44310264D02*
X-34165718Y43985220D01*
X-34165718Y43985220D02*
X-34254602Y43638471D01*
X-34254602Y43638471D02*
X-34341418Y43272602D01*
X-34341418Y43272602D02*
X-34425134Y42888646D01*
X-34425134Y42888646D02*
X-34504715Y42489704D01*
X-34504715Y42489704D02*
X-34580680Y42076809D01*
X-34580680Y42076809D02*
X-34651993Y41652546D01*
X-34651993Y41652546D02*
X-34718139Y41218980D01*
X-34718139Y41218980D02*
X-34778084Y40778180D01*
X-34778084Y40778180D02*
X-34853014Y40163231D01*
X-34853014Y40163231D02*
X-34926395Y39497121D01*
X-34926395Y39497121D02*
X-34998225Y38784504D01*
X-34998225Y38784504D02*
X-35067988Y38030545D01*
X-35067988Y38030545D02*
X-35135685Y37240412D01*
X-35135685Y37240412D02*
X-35201314Y36418240D01*
X-35201314Y36418240D02*
X-35263842Y35570230D01*
X-35263842Y35570230D02*
X-35324304Y34701032D01*
X-35324304Y34701032D02*
X-35435925Y32917678D01*
X-35435925Y32917678D02*
X-35534627Y31109520D01*
X-35534627Y31109520D02*
X-35618342Y29315314D01*
X-35618342Y29315314D02*
X-35686555Y27575369D01*
X-35686555Y27575369D02*
X-46471944Y27575369D01*
X-46471944Y27575369D02*
X-46678649Y27570201D01*
X-46678649Y27570201D02*
X-46882254Y27554698D01*
X-46882254Y27554698D02*
X-47082759Y27529377D01*
X-47082759Y27529377D02*
X-47280163Y27494237D01*
X-47280163Y27494237D02*
X-47473949Y27449795D01*
X-47473949Y27449795D02*
X-47664119Y27396052D01*
X-47664119Y27396052D02*
X-47850154Y27333523D01*
X-47850154Y27333523D02*
X-48032055Y27262210D01*
X-48032055Y27262210D02*
X-48209305Y27182111D01*
X-48209305Y27182111D02*
X-48381904Y27094261D01*
X-48381904Y27094261D02*
X-48549336Y26998143D01*
X-48549336Y26998143D02*
X-48711600Y26894274D01*
X-48711600Y26894274D02*
X-48868180Y26782652D01*
X-48868180Y26782652D02*
X-49019075Y26664313D01*
X-49019075Y26664313D02*
X-49164286Y26538740D01*
X-49164286Y26538740D02*
X-49302778Y26406448D01*
X-49302778Y26406448D02*
X-49435070Y26267955D01*
X-49435070Y26267955D02*
X-49560644Y26122744D01*
X-49560644Y26122744D02*
X-49679500Y25971849D01*
X-49679500Y25971849D02*
X-49790604Y25814753D01*
X-49790604Y25814753D02*
X-49894474Y25652489D01*
X-49894474Y25652489D02*
X-49990592Y25485057D01*
X-49990592Y25485057D02*
X-50078442Y25312975D01*
X-50078442Y25312975D02*
X-50158540Y25135208D01*
X-50158540Y25135208D02*
X-50229854Y24953824D01*
X-50229854Y24953824D02*
X-50292382Y24767789D01*
X-50292382Y24767789D02*
X-50346126Y24577619D01*
X-50346126Y24577619D02*
X-50391084Y24383833D01*
X-50391084Y24383833D02*
X-50425707Y24186429D01*
X-50425707Y24186429D02*
X-50451029Y23985924D01*
X-50451029Y23985924D02*
X-50466532Y23781802D01*
X-50466532Y23781802D02*
X-50471699Y23575613D01*
X-50471699Y23575613D02*
X-50471699Y-44424369D01*
X-50471699Y-44424369D02*
X-50466532Y-44630558D01*
X-50466532Y-44630558D02*
X-50451029Y-44834679D01*
X-50451029Y-44834679D02*
X-50425707Y-45035186D01*
X-50425707Y-45035186D02*
X-50391084Y-45232589D01*
X-50391084Y-45232589D02*
X-50346126Y-45426375D01*
X-50346126Y-45426375D02*
X-50292382Y-45616544D01*
X-50292382Y-45616544D02*
X-50229854Y-45802581D01*
X-50229854Y-45802581D02*
X-50158540Y-45984482D01*
X-50158540Y-45984482D02*
X-50078442Y-46161731D01*
X-50078442Y-46161731D02*
X-49990592Y-46334330D01*
X-49990592Y-46334330D02*
X-49894474Y-46501761D01*
X-49894474Y-46501761D02*
X-49790604Y-46664024D01*
X-49790604Y-46664024D02*
X-49679500Y-46820605D01*
X-49679500Y-46820605D02*
X-49560644Y-46971499D01*
X-49560644Y-46971499D02*
X-49435070Y-47116710D01*
X-49435070Y-47116710D02*
X-49302778Y-47255720D01*
X-49302778Y-47255720D02*
X-49164286Y-47388011D01*
X-49164286Y-47388011D02*
X-49019075Y-47513585D01*
X-49019075Y-47513585D02*
X-48868180Y-47631926D01*
X-48868180Y-47631926D02*
X-48711600Y-47743029D01*
X-48711600Y-47743029D02*
X-48549336Y-47846900D01*
X-48549336Y-47846900D02*
X-48381904Y-47943017D01*
X-48381904Y-47943017D02*
X-48209305Y-48031383D01*
X-48209305Y-48031383D02*
X-48032055Y-48110967D01*
X-48032055Y-48110967D02*
X-47850154Y-48182796D01*
X-47850154Y-48182796D02*
X-47664119Y-48245325D01*
X-47664119Y-48245325D02*
X-47473949Y-48299067D01*
X-47473949Y-48299067D02*
X-47280163Y-48343509D01*
X-47280163Y-48343509D02*
X-47082759Y-48378649D01*
X-47082759Y-48378649D02*
X-46882254Y-48403972D01*
X-46882254Y-48403972D02*
X-46678649Y-48419474D01*
X-46678649Y-48419474D02*
X-46471944Y-48424641D01*
X-46471944Y-48424641D02*
X46528062Y-48424641D01*
X46528062Y-48424641D02*
X46734252Y-48419474D01*
X46734252Y-48419474D02*
X46937857Y-48403972D01*
X46937857Y-48403972D02*
X47138879Y-48378649D01*
X47138879Y-48378649D02*
X47336282Y-48343509D01*
X47336282Y-48343509D02*
X47530068Y-48299067D01*
X47530068Y-48299067D02*
X47719722Y-48245325D01*
X47719722Y-48245325D02*
X47906274Y-48182796D01*
X47906274Y-48182796D02*
X48087659Y-48110967D01*
X48087659Y-48110967D02*
X48264909Y-48031383D01*
X48264909Y-48031383D02*
X48437507Y-47943017D01*
X48437507Y-47943017D02*
X48604938Y-47846900D01*
X48604938Y-47846900D02*
X48767204Y-47743029D01*
X48767204Y-47743029D02*
X48924301Y-47631926D01*
X48924301Y-47631926D02*
X49075195Y-47513585D01*
X49075195Y-47513585D02*
X49220407Y-47388011D01*
X49220407Y-47388011D02*
X49358897Y-47255720D01*
X49358897Y-47255720D02*
X49491189Y-47116710D01*
X49491189Y-47116710D02*
X49616763Y-46971499D01*
X49616763Y-46971499D02*
X49735619Y-46820605D01*
X49735619Y-46820605D02*
X49846723Y-46664024D01*
X49846723Y-46664024D02*
X49950593Y-46501761D01*
X49950593Y-46501761D02*
X50046711Y-46334330D01*
X50046711Y-46334330D02*
X50135079Y-46161731D01*
X50135079Y-46161731D02*
X50214660Y-45984482D01*
X50214660Y-45984482D02*
X50285974Y-45802581D01*
X50285974Y-45802581D02*
X50349019Y-45616544D01*
X50349019Y-45616544D02*
X50402763Y-45426375D01*
X50402763Y-45426375D02*
X50447203Y-45232589D01*
X50447203Y-45232589D02*
X50482345Y-45035186D01*
X50482345Y-45035186D02*
X50507665Y-44834679D01*
X50507665Y-44834679D02*
X50523167Y-44630558D01*
X50523167Y-44630558D02*
X50528337Y-44424369D01*
X50528337Y-44424369D02*
X50528337Y23575613D01*
X50528337Y23575613D02*
X50523167Y23781802D01*
X50523167Y23781802D02*
X50507665Y23985924D01*
X50507665Y23985924D02*
X50482345Y24186429D01*
X50482345Y24186429D02*
X50447203Y24383833D01*
X50447203Y24383833D02*
X50402763Y24577619D01*
X50402763Y24577619D02*
X50349019Y24767789D01*
X50349019Y24767789D02*
X50285974Y24953824D01*
X50285974Y24953824D02*
X50214660Y25135208D01*
X50214660Y25135208D02*
X50135079Y25312975D01*
X50135079Y25312975D02*
X50046711Y25485057D01*
X50046711Y25485057D02*
X49950593Y25652489D01*
X49950593Y25652489D02*
X49846723Y25814753D01*
X49846723Y25814753D02*
X49735619Y25971849D01*
X49735619Y25971849D02*
X49616763Y26122744D01*
X49616763Y26122744D02*
X49491189Y26267955D01*
X49491189Y26267955D02*
X49358897Y26406448D01*
X49358897Y26406448D02*
X49220407Y26538740D01*
X49220407Y26538740D02*
X49075195Y26664313D01*
X49075195Y26664313D02*
X48924301Y26782652D01*
X48924301Y26782652D02*
X48767204Y26894274D01*
X48767204Y26894274D02*
X48604938Y26998143D01*
X48604938Y26998143D02*
X48437507Y27094261D01*
X48437507Y27094261D02*
X48264909Y27182111D01*
X48264909Y27182111D02*
X48087659Y27262210D01*
X48087659Y27262210D02*
X47906274Y27333523D01*
X47906274Y27333523D02*
X47719722Y27396052D01*
X47719722Y27396052D02*
X47530068Y27449795D01*
X47530068Y27449795D02*
X47336282Y27494237D01*
X47336282Y27494237D02*
X47138879Y27529377D01*
X47138879Y27529377D02*
X46937857Y27554698D01*
X46937857Y27554698D02*
X46734252Y27570201D01*
X46734252Y27570201D02*
X46528062Y27575369D01*
X46528062Y27575369D02*
X35295674Y27575369D01*
X35295674Y27575369D02*
X35422283Y27898863D01*
X35422283Y27898863D02*
X35540104Y28224425D01*
X35540104Y28224425D02*
X35649142Y28552570D01*
X35649142Y28552570D02*
X35749392Y28882783D01*
X35749392Y28882783D02*
X35840862Y29215062D01*
X35840862Y29215062D02*
X35922509Y29548892D01*
X35922509Y29548892D02*
X35994857Y29884789D01*
X35994857Y29884789D02*
X36057386Y30221719D01*
X36057386Y30221719D02*
X36088390Y30416539D01*
X36088390Y30416539D02*
X36116295Y30618594D01*
X36116295Y30618594D02*
X36162804Y31040274D01*
X36162804Y31040274D02*
X36196395Y31484691D01*
X36196395Y31484691D02*
X36217583Y31948228D01*
X36217583Y31948228D02*
X36227399Y32428303D01*
X36227399Y32428303D02*
X36224301Y32921813D01*
X36224301Y32921813D02*
X36210347Y33425658D01*
X36210347Y33425658D02*
X36184510Y33937254D01*
X36184510Y33937254D02*
X36147302Y34452468D01*
X36147302Y34452468D02*
X36099243Y34969749D01*
X36099243Y34969749D02*
X36040849Y35484963D01*
X36040849Y35484963D02*
X35971084Y35996043D01*
X35971084Y35996043D02*
X35890987Y36498855D01*
X35890987Y36498855D02*
X35801071Y36991848D01*
X35801071Y36991848D02*
X35700818Y37470372D01*
X35700818Y37470372D02*
X35590746Y37932876D01*
X35590746Y37932876D02*
X35498245Y38286343D01*
X35498245Y38286343D02*
X35404712Y38621723D01*
X35404712Y38621723D02*
X35308078Y38941600D01*
X35308078Y38941600D02*
X35207825Y39249075D01*
X35207825Y39249075D02*
X35102920Y39546214D01*
X35102920Y39546214D02*
X34991300Y39835602D01*
X34991300Y39835602D02*
X34872444Y40120339D01*
X34872444Y40120339D02*
X34745320Y40401976D01*
X34745320Y40401976D02*
X34608377Y40683613D01*
X34608377Y40683613D02*
X34460067Y40967833D01*
X34460067Y40967833D02*
X34299870Y41257221D01*
X34299870Y41257221D02*
X34126753Y41554360D01*
X34126753Y41554360D02*
X33938650Y41861835D01*
X33938650Y41861835D02*
X33735045Y42181712D01*
X33735045Y42181712D02*
X33514388Y42517092D01*
X33514388Y42517092D02*
X33276160Y42870042D01*
X33276160Y42870042D02*
X33139733Y43073647D01*
X33139733Y43073647D02*
X33007441Y43278803D01*
X33007441Y43278803D02*
X32768181Y43668960D01*
X32768181Y43668960D02*
X32667928Y43844660D01*
X32667928Y43844660D02*
X32586796Y43997622D01*
X32586796Y43997622D02*
X32529434Y44111827D01*
X32529434Y44111827D02*
X32502563Y44172805D01*
X32502563Y44172805D02*
X32478275Y44252387D01*
X32478275Y44252387D02*
X32456571Y44342821D01*
X32456571Y44342821D02*
X32438484Y44442039D01*
X32438484Y44442039D02*
X32423498Y44550043D01*
X32423498Y44550043D02*
X32403345Y44787238D01*
X32403345Y44787238D02*
X32396627Y45044586D01*
X32396627Y45044586D02*
X32404379Y45313821D01*
X32404379Y45313821D02*
X32427115Y45586155D01*
X32427115Y45586155D02*
X32444170Y45720514D01*
X32444170Y45720514D02*
X32465355Y45852806D01*
X32465355Y45852806D02*
X32490678Y45980963D01*
X32490678Y45980963D02*
X32520134Y46104470D01*
X32520134Y46104470D02*
X32554239Y46251231D01*
X32554239Y46251231D02*
X32580594Y46396442D01*
X32580594Y46396442D02*
X32598165Y46540102D01*
X32598165Y46540102D02*
X32607465Y46681179D01*
X32607465Y46681179D02*
X32608500Y46820189D01*
X32608500Y46820189D02*
X32601266Y46956098D01*
X32601266Y46956098D02*
X32585246Y47088389D01*
X32585246Y47088389D02*
X32560957Y47217064D01*
X32560957Y47217064D02*
X32527368Y47341604D01*
X32527368Y47341604D02*
X32485511Y47461493D01*
X32485511Y47461493D02*
X32434867Y47576732D01*
X32434867Y47576732D02*
X32375439Y47686286D01*
X32375439Y47686286D02*
X32307227Y47790672D01*
X32307227Y47790672D02*
X32229712Y47888340D01*
X32229712Y47888340D02*
X32143413Y47979291D01*
X32143413Y47979291D02*
X32047811Y48063524D01*
X32047811Y48063524D02*
X31942906Y48140005D01*
X31942906Y48140005D02*
X31828185Y48206151D01*
X31828185Y48206151D02*
X31767726Y48234573D01*
X31767726Y48234573D02*
X31704162Y48259377D01*
X31704162Y48259377D02*
X31639051Y48280048D01*
X31639051Y48280048D02*
X31571354Y48296068D01*
X31571354Y48296068D02*
X31432345Y48316221D01*
X31432345Y48316221D02*
X31285583Y48323456D01*
X31285583Y48323456D02*
X31125902Y48320355D01*
X31125902Y48320355D02*
X30948136Y48309503D01*
X30948136Y48309503D02*
X30793625Y48292967D01*
X30793625Y48292967D02*
X30643246Y48266612D01*
X30643246Y48266612D02*
X30497001Y48230438D01*
X30497001Y48230438D02*
X30355406Y48184963D01*
X30355406Y48184963D02*
X30218466Y48129153D01*
X30218466Y48129153D02*
X30085656Y48064557D01*
X30085656Y48064557D02*
X29958015Y47990143D01*
X29958015Y47990143D02*
X29835026Y47906944D01*
X29835026Y47906944D02*
X29716686Y47814443D01*
X29716686Y47814443D02*
X29603516Y47712641D01*
X29603516Y47712641D02*
X29495510Y47602053D01*
X29495510Y47602053D02*
X29392159Y47483197D01*
X29392159Y47483197D02*
X29293975Y47355040D01*
X29293975Y47355040D02*
X29201474Y47219131D01*
X29201474Y47219131D02*
X29114140Y47073920D01*
X29114140Y47073920D02*
X29031974Y46920958D01*
X29031974Y46920958D02*
X28947225Y46742674D01*
X28947225Y46742674D02*
X28877462Y46566974D01*
X28877462Y46566974D02*
X28848006Y46477057D01*
X28848006Y46477057D02*
X28822685Y46384040D01*
X28822685Y46384040D02*
X28801498Y46287921D01*
X28801498Y46287921D02*
X28783927Y46186636D01*
X28783927Y46186636D02*
X28759641Y45966494D01*
X28759641Y45966494D02*
X28745686Y45711213D01*
X28745686Y45711213D02*
X28740003Y45404771D01*
X28740003Y45404771D02*
X28738969Y45030634D01*
X28738969Y45030634D02*
X28745171Y44541258D01*
X28745171Y44541258D02*
X28754471Y44319049D01*
X28754471Y44319049D02*
X28768425Y44106659D01*
X28768425Y44106659D02*
X28788062Y43900470D01*
X28788062Y43900470D02*
X28814933Y43696865D01*
X28814933Y43696865D02*
X28848522Y43491710D01*
X28848522Y43491710D02*
X28890898Y43281903D01*
X28890898Y43281903D02*
X28942058Y43062795D01*
X28942058Y43062795D02*
X29003552Y42831802D01*
X29003552Y42831802D02*
X29075900Y42584272D01*
X29075900Y42584272D02*
X29159614Y42316588D01*
X29159614Y42316588D02*
X29365288Y41706806D01*
X29365288Y41706806D02*
X29627802Y40971967D01*
X29627802Y40971967D02*
X29815905Y40441767D01*
X29815905Y40441767D02*
X29988506Y39929653D01*
X29988506Y39929653D02*
X30146118Y39435110D01*
X30146118Y39435110D02*
X30288228Y38956069D01*
X30288228Y38956069D02*
X30416385Y38492532D01*
X30416385Y38492532D02*
X30529558Y38042430D01*
X30529558Y38042430D02*
X30628776Y37604731D01*
X30628776Y37604731D02*
X30714041Y37178400D01*
X30714041Y37178400D02*
X30785354Y36762405D01*
X30785354Y36762405D02*
X30843234Y36355711D01*
X30843234Y36355711D02*
X30888192Y35956769D01*
X30888192Y35956769D02*
X30919715Y35564545D01*
X30919715Y35564545D02*
X30938318Y35178006D01*
X30938318Y35178006D02*
X30944519Y34795600D01*
X30944519Y34795600D02*
X30938834Y34416812D01*
X30938834Y34416812D02*
X30920747Y34040090D01*
X30920747Y34040090D02*
X30904210Y33829767D01*
X30904210Y33829767D02*
X30881990Y33617377D01*
X30881990Y33617377D02*
X30854085Y33403954D01*
X30854085Y33403954D02*
X30820496Y33188980D01*
X30820496Y33188980D02*
X30781221Y32972972D01*
X30781221Y32972972D02*
X30736263Y32756448D01*
X30736263Y32756448D02*
X30686135Y32539407D01*
X30686135Y32539407D02*
X30630843Y32321849D01*
X30630843Y32321849D02*
X30570380Y32104291D01*
X30570380Y32104291D02*
X30504753Y31887250D01*
X30504753Y31887250D02*
X30434472Y31670209D01*
X30434472Y31670209D02*
X30359026Y31454202D01*
X30359026Y31454202D02*
X30278926Y31238711D01*
X30278926Y31238711D02*
X30194177Y31024254D01*
X30194177Y31024254D02*
X30104777Y30811347D01*
X30104777Y30811347D02*
X30011241Y30599990D01*
X30011241Y30599990D02*
X29913057Y30390184D01*
X29913057Y30390184D02*
X29811253Y30182445D01*
X29811253Y30182445D02*
X29704801Y29977290D01*
X29704801Y29977290D02*
X29594729Y29774201D01*
X29594729Y29774201D02*
X29480524Y29574213D01*
X29480524Y29574213D02*
X29362187Y29376809D01*
X29362187Y29376809D02*
X29240746Y29182506D01*
X29240746Y29182506D02*
X29115690Y28991820D01*
X29115690Y28991820D02*
X28986500Y28804751D01*
X28986500Y28804751D02*
X28854724Y28621817D01*
X28854724Y28621817D02*
X28719331Y28442499D01*
X28719331Y28442499D02*
X28580838Y28267833D01*
X28580838Y28267833D02*
X28439246Y28097301D01*
X28439246Y28097301D02*
X28294551Y27931936D01*
X28294551Y27931936D02*
X28146757Y27771739D01*
X28146757Y27771739D02*
X27996894Y27616193D01*
X27996894Y27616193D02*
X27954521Y27575369D01*
X27954521Y27575369D02*
X27765903Y27375381D01*
X27765903Y27375381D02*
X27536218Y27149493D01*
X27536218Y27149493D02*
X27323860Y26951383D01*
X27323860Y26951383D02*
X27128483Y26780269D01*
X27128483Y26780269D02*
X26949741Y26635372D01*
X26949741Y26635372D02*
X26787287Y26515911D01*
X26787287Y26515911D02*
X26640776Y26421108D01*
X26640776Y26421108D02*
X26509861Y26350181D01*
X26509861Y26350181D02*
X26394196Y26302352D01*
X26394196Y26302352D02*
X26341975Y26286854D01*
X26341975Y26286854D02*
X26293436Y26276839D01*
X26293436Y26276839D02*
X26248536Y26272207D01*
X26248536Y26272207D02*
X26207233Y26272862D01*
X26207233Y26272862D02*
X26169482Y26278707D01*
X26169482Y26278707D02*
X26135242Y26289643D01*
X26135242Y26289643D02*
X26104467Y26305573D01*
X26104467Y26305573D02*
X26077116Y26326400D01*
X26077116Y26326400D02*
X26053145Y26352026D01*
X26053145Y26352026D02*
X26032510Y26382354D01*
X26032510Y26382354D02*
X26015168Y26417286D01*
X26015168Y26417286D02*
X26001077Y26456724D01*
X26001077Y26456724D02*
X25990192Y26500572D01*
X25990192Y26500572D02*
X25982471Y26548732D01*
X25982471Y26548732D02*
X25976346Y26657596D01*
X25976346Y26657596D02*
X25979840Y26681707D01*
X25979840Y26681707D02*
X25989982Y26709402D01*
X25989982Y26709402D02*
X26028157Y26776271D01*
X26028157Y26776271D02*
X26086767Y26859658D01*
X26086767Y26859658D02*
X26161707Y26961021D01*
X26161707Y26961021D02*
X26248877Y27081816D01*
X26248877Y27081816D02*
X26344171Y27223501D01*
X26344171Y27223501D02*
X26443486Y27387533D01*
X26443486Y27387533D02*
X26542721Y27575369D01*
X26542721Y27575369D02*
X26623853Y27739183D01*
X26623853Y27739183D02*
X26834691Y28162413D01*
X26834691Y28162413D02*
X27027961Y28582542D01*
X27027961Y28582542D02*
X27117880Y28792349D01*
X27117880Y28792349D02*
X27203144Y29002155D01*
X27203144Y29002155D02*
X27284276Y29212478D01*
X27284276Y29212478D02*
X27361275Y29423835D01*
X27361275Y29423835D02*
X27433623Y29636225D01*
X27433623Y29636225D02*
X27502351Y29850165D01*
X27502351Y29850165D02*
X27566947Y30065656D01*
X27566947Y30065656D02*
X27627409Y30283214D01*
X27627409Y30283214D02*
X27684252Y30503356D01*
X27684252Y30503356D02*
X27736963Y30726081D01*
X27736963Y30726081D02*
X27785537Y30951390D01*
X27785537Y30951390D02*
X27830498Y31180834D01*
X27830498Y31180834D02*
X27872355Y31413377D01*
X27872355Y31413377D02*
X27910079Y31650055D01*
X27910079Y31650055D02*
X27944184Y31890868D01*
X27944184Y31890868D02*
X27975191Y32136331D01*
X27975191Y32136331D02*
X28026351Y32642760D01*
X28026351Y32642760D02*
X28064075Y33170893D01*
X28064075Y33170893D02*
X28088880Y33723831D01*
X28088880Y33723831D02*
X28101799Y34304157D01*
X28101799Y34304157D02*
X28102831Y34913939D01*
X28102831Y34913939D02*
X28092496Y35555760D01*
X28092496Y35555760D02*
X28074409Y36224453D01*
X28074409Y36224453D02*
X28054256Y36775324D01*
X28054256Y36775324D02*
X28029451Y37232660D01*
X28029451Y37232660D02*
X27997413Y37620233D01*
X27997413Y37620233D02*
X27956072Y37960781D01*
X27956072Y37960781D02*
X27903362Y38278075D01*
X27903362Y38278075D02*
X27836181Y38596402D01*
X27836181Y38596402D02*
X27752983Y38938499D01*
X27752983Y38938499D02*
X27648597Y39324006D01*
X27648597Y39324006D02*
X27534392Y39703310D01*
X27534392Y39703310D02*
X27409334Y40075381D01*
X27409334Y40075381D02*
X27273942Y40441250D01*
X27273942Y40441250D02*
X27128214Y40800401D01*
X27128214Y40800401D02*
X26972153Y41152834D01*
X26972153Y41152834D02*
X26806269Y41499067D01*
X26806269Y41499067D02*
X26629536Y41838064D01*
X26629536Y41838064D02*
X26442467Y42170860D01*
X26442467Y42170860D02*
X26245064Y42496938D01*
X26245064Y42496938D02*
X26037324Y42816299D01*
X26037324Y42816299D02*
X25819768Y43128941D01*
X25819768Y43128941D02*
X25591358Y43434866D01*
X25591358Y43434866D02*
X25352612Y43733555D01*
X25352612Y43733555D02*
X25104049Y44026044D01*
X25104049Y44026044D02*
X24844633Y44311815D01*
X24844633Y44311815D02*
X24537158Y44630658D01*
X24537158Y44630658D02*
X24225032Y44935549D01*
X24225032Y44935549D02*
X23907738Y45227004D01*
X23907738Y45227004D02*
X23584761Y45504507D01*
X23584761Y45504507D02*
X23256098Y45768573D01*
X23256098Y45768573D02*
X22921752Y46019204D01*
X22921752Y46019204D02*
X22581204Y46256916D01*
X22581204Y46256916D02*
X22233939Y46481191D01*
X22233939Y46481191D02*
X21880474Y46693065D01*
X21880474Y46693065D02*
X21519770Y46892536D01*
X21519770Y46892536D02*
X21151835Y47079088D01*
X21151835Y47079088D02*
X20776148Y47253237D01*
X20776148Y47253237D02*
X20393225Y47414984D01*
X20393225Y47414984D02*
X20002036Y47565363D01*
X20002036Y47565363D02*
X19602576Y47703339D01*
X19602576Y47703339D02*
X19194331Y47829429D01*
X19194331Y47829429D02*
X18778854Y47943634D01*
X18778854Y47943634D02*
X18356658Y48045954D01*
X18356658Y48045954D02*
X17929808Y48136387D01*
X17929808Y48136387D02*
X17499344Y48214419D01*
X17499344Y48214419D02*
X17066296Y48280048D01*
X17066296Y48280048D02*
X16632215Y48333791D01*
X16632215Y48333791D02*
X16198650Y48374616D01*
X16198650Y48374616D02*
X15766633Y48403555D01*
X15766633Y48403555D02*
X15337720Y48420091D01*
X15337720Y48420091D02*
X14913455Y48424225D01*
X14913455Y48424225D02*
X14913455Y48424225D01*
X14913455Y48424225D02*
X14913455Y48424225D01*
X-47279585Y25458811D02*
X-37215871Y25458811D01*
X-37215871Y25458811D02*
X-37013843Y25438565D01*
X-37013843Y25438565D02*
X-36825902Y25380467D01*
X-36825902Y25380467D02*
X-36656007Y25288479D01*
X-36656007Y25288479D02*
X-36508121Y25166561D01*
X-36508121Y25166561D02*
X-36386203Y25018674D01*
X-36386203Y25018674D02*
X-36294213Y24848780D01*
X-36294213Y24848780D02*
X-36236113Y24660838D01*
X-36236113Y24660838D02*
X-36215863Y24458811D01*
X-36215863Y24458811D02*
X-36215863Y23275913D01*
X-36215863Y23275913D02*
X-36236113Y23073885D01*
X-36236113Y23073885D02*
X-36294213Y22885944D01*
X-36294213Y22885944D02*
X-36386203Y22716049D01*
X-36386203Y22716049D02*
X-36508121Y22568162D01*
X-36508121Y22568162D02*
X-36656007Y22446244D01*
X-36656007Y22446244D02*
X-36825902Y22354256D01*
X-36825902Y22354256D02*
X-37013843Y22296158D01*
X-37013843Y22296158D02*
X-37215871Y22275912D01*
X-37215871Y22275912D02*
X-47279585Y22275912D01*
X-47279585Y22275912D02*
X-47481612Y22296158D01*
X-47481612Y22296158D02*
X-47669554Y22354256D01*
X-47669554Y22354256D02*
X-47839448Y22446244D01*
X-47839448Y22446244D02*
X-47987335Y22568162D01*
X-47987335Y22568162D02*
X-48109253Y22716049D01*
X-48109253Y22716049D02*
X-48201241Y22885944D01*
X-48201241Y22885944D02*
X-48259339Y23073885D01*
X-48259339Y23073885D02*
X-48279585Y23275913D01*
X-48279585Y23275913D02*
X-48279585Y24458811D01*
X-48279585Y24458811D02*
X-48259339Y24660838D01*
X-48259339Y24660838D02*
X-48201241Y24848780D01*
X-48201241Y24848780D02*
X-48109253Y25018674D01*
X-48109253Y25018674D02*
X-47987335Y25166561D01*
X-47987335Y25166561D02*
X-47839448Y25288479D01*
X-47839448Y25288479D02*
X-47669554Y25380467D01*
X-47669554Y25380467D02*
X-47481612Y25438565D01*
X-47481612Y25438565D02*
X-47279585Y25458811D01*
X-47279585Y25458811D02*
X-47279585Y25458811D01*
X-47279585Y25458811D02*
X-47279585Y25458811D01*
X37554051Y25458811D02*
X47361760Y25458811D01*
X47361760Y25458811D02*
X47581787Y25438565D01*
X47581787Y25438565D02*
X47786473Y25380467D01*
X47786473Y25380467D02*
X47971504Y25288479D01*
X47971504Y25288479D02*
X48132567Y25166561D01*
X48132567Y25166561D02*
X48265347Y25018674D01*
X48265347Y25018674D02*
X48365532Y24848780D01*
X48365532Y24848780D02*
X48428802Y24660838D01*
X48428802Y24660838D02*
X48450852Y24458811D01*
X48450852Y24458811D02*
X48450852Y23275913D01*
X48450852Y23275913D02*
X48428802Y23073885D01*
X48428802Y23073885D02*
X48365532Y22885944D01*
X48365532Y22885944D02*
X48265347Y22716049D01*
X48265347Y22716049D02*
X48132567Y22568162D01*
X48132567Y22568162D02*
X47971504Y22446244D01*
X47971504Y22446244D02*
X47786473Y22354256D01*
X47786473Y22354256D02*
X47581787Y22296158D01*
X47581787Y22296158D02*
X47361760Y22275912D01*
X47361760Y22275912D02*
X37554051Y22275912D01*
X37554051Y22275912D02*
X37334025Y22296158D01*
X37334025Y22296158D02*
X37129339Y22354256D01*
X37129339Y22354256D02*
X36944307Y22446244D01*
X36944307Y22446244D02*
X36783245Y22568162D01*
X36783245Y22568162D02*
X36650464Y22716049D01*
X36650464Y22716049D02*
X36550280Y22885944D01*
X36550280Y22885944D02*
X36487006Y23073885D01*
X36487006Y23073885D02*
X36464956Y23275913D01*
X36464956Y23275913D02*
X36464956Y24458811D01*
X36464956Y24458811D02*
X36487006Y24660838D01*
X36487006Y24660838D02*
X36550276Y24848780D01*
X36550276Y24848780D02*
X36650460Y25018674D01*
X36650460Y25018674D02*
X36783241Y25166561D01*
X36783241Y25166561D02*
X36944303Y25288479D01*
X36944303Y25288479D02*
X37129335Y25380467D01*
X37129335Y25380467D02*
X37334021Y25438565D01*
X37334021Y25438565D02*
X37554047Y25458811D01*
X37554047Y25458811D02*
X37554047Y25458811D01*
X37554047Y25458811D02*
X37554051Y25458811D01*
M02*
