G04 #@! TF.GenerationSoftware,KiCad,Pcbnew,(5.1.5-0-10_14)*
G04 #@! TF.CreationDate,2020-02-09T18:22:42-08:00*
G04 #@! TF.ProjectId,badge-proto,62616467-652d-4707-926f-746f2e6b6963,rev?*
G04 #@! TF.SameCoordinates,Original*
G04 #@! TF.FileFunction,Legend,Bot*
G04 #@! TF.FilePolarity,Positive*
%FSLAX46Y46*%
G04 Gerber Fmt 4.6, Leading zero omitted, Abs format (unit mm)*
G04 Created by KiCad (PCBNEW (5.1.5-0-10_14)) date 2020-02-09 18:22:42*
%MOMM*%
%LPD*%
G04 APERTURE LIST*
%ADD10C,0.010000*%
G04 APERTURE END LIST*
D10*
G36*
X-20257695Y-32594848D02*
G01*
X-20000316Y-32655291D01*
X-19783510Y-32764278D01*
X-19588926Y-32928784D01*
X-19556917Y-32962578D01*
X-19374686Y-33203819D01*
X-19246644Y-33478433D01*
X-19169738Y-33797338D01*
X-19140918Y-34171455D01*
X-19145742Y-34433507D01*
X-19173108Y-34765425D01*
X-19224755Y-35033533D01*
X-19307810Y-35256932D01*
X-19429400Y-35454722D01*
X-19596653Y-35646004D01*
X-19599099Y-35648471D01*
X-19782500Y-35812579D01*
X-19951849Y-35916239D01*
X-20045251Y-35952503D01*
X-20350492Y-36023883D01*
X-20647436Y-36045388D01*
X-20864756Y-36023602D01*
X-21129013Y-35941888D01*
X-21374884Y-35814762D01*
X-21555719Y-35672435D01*
X-21727287Y-35447035D01*
X-21860926Y-35159725D01*
X-21952771Y-34826104D01*
X-21998958Y-34461776D01*
X-21996293Y-34158722D01*
X-21663296Y-34158722D01*
X-21660897Y-34568462D01*
X-21603956Y-34914763D01*
X-21491283Y-35199930D01*
X-21321686Y-35426265D01*
X-21093975Y-35596075D01*
X-20870607Y-35692299D01*
X-20717189Y-35715644D01*
X-20522142Y-35709215D01*
X-20321500Y-35676952D01*
X-20151299Y-35622799D01*
X-20126435Y-35610906D01*
X-19895820Y-35445964D01*
X-19716384Y-35217520D01*
X-19590170Y-34931021D01*
X-19519218Y-34591914D01*
X-19505570Y-34205645D01*
X-19520989Y-33995449D01*
X-19589039Y-33645908D01*
X-19710615Y-33358657D01*
X-19883647Y-33135856D01*
X-20106070Y-32979666D01*
X-20375816Y-32892246D01*
X-20595166Y-32873108D01*
X-20880596Y-32902595D01*
X-21118894Y-32997897D01*
X-21323175Y-33165340D01*
X-21406412Y-33264486D01*
X-21505025Y-33411141D01*
X-21574331Y-33562700D01*
X-21620541Y-33740783D01*
X-21649867Y-33967009D01*
X-21663296Y-34158722D01*
X-21996293Y-34158722D01*
X-21995621Y-34082340D01*
X-21982265Y-33950648D01*
X-21905875Y-33563705D01*
X-21781340Y-33243648D01*
X-21605844Y-32985851D01*
X-21376568Y-32785688D01*
X-21216688Y-32693613D01*
X-21089681Y-32636208D01*
X-20975799Y-32600983D01*
X-20846762Y-32582763D01*
X-20674288Y-32576370D01*
X-20574000Y-32575974D01*
X-20257695Y-32594848D01*
G37*
X-20257695Y-32594848D02*
X-20000316Y-32655291D01*
X-19783510Y-32764278D01*
X-19588926Y-32928784D01*
X-19556917Y-32962578D01*
X-19374686Y-33203819D01*
X-19246644Y-33478433D01*
X-19169738Y-33797338D01*
X-19140918Y-34171455D01*
X-19145742Y-34433507D01*
X-19173108Y-34765425D01*
X-19224755Y-35033533D01*
X-19307810Y-35256932D01*
X-19429400Y-35454722D01*
X-19596653Y-35646004D01*
X-19599099Y-35648471D01*
X-19782500Y-35812579D01*
X-19951849Y-35916239D01*
X-20045251Y-35952503D01*
X-20350492Y-36023883D01*
X-20647436Y-36045388D01*
X-20864756Y-36023602D01*
X-21129013Y-35941888D01*
X-21374884Y-35814762D01*
X-21555719Y-35672435D01*
X-21727287Y-35447035D01*
X-21860926Y-35159725D01*
X-21952771Y-34826104D01*
X-21998958Y-34461776D01*
X-21996293Y-34158722D01*
X-21663296Y-34158722D01*
X-21660897Y-34568462D01*
X-21603956Y-34914763D01*
X-21491283Y-35199930D01*
X-21321686Y-35426265D01*
X-21093975Y-35596075D01*
X-20870607Y-35692299D01*
X-20717189Y-35715644D01*
X-20522142Y-35709215D01*
X-20321500Y-35676952D01*
X-20151299Y-35622799D01*
X-20126435Y-35610906D01*
X-19895820Y-35445964D01*
X-19716384Y-35217520D01*
X-19590170Y-34931021D01*
X-19519218Y-34591914D01*
X-19505570Y-34205645D01*
X-19520989Y-33995449D01*
X-19589039Y-33645908D01*
X-19710615Y-33358657D01*
X-19883647Y-33135856D01*
X-20106070Y-32979666D01*
X-20375816Y-32892246D01*
X-20595166Y-32873108D01*
X-20880596Y-32902595D01*
X-21118894Y-32997897D01*
X-21323175Y-33165340D01*
X-21406412Y-33264486D01*
X-21505025Y-33411141D01*
X-21574331Y-33562700D01*
X-21620541Y-33740783D01*
X-21649867Y-33967009D01*
X-21663296Y-34158722D01*
X-21996293Y-34158722D01*
X-21995621Y-34082340D01*
X-21982265Y-33950648D01*
X-21905875Y-33563705D01*
X-21781340Y-33243648D01*
X-21605844Y-32985851D01*
X-21376568Y-32785688D01*
X-21216688Y-32693613D01*
X-21089681Y-32636208D01*
X-20975799Y-32600983D01*
X-20846762Y-32582763D01*
X-20674288Y-32576370D01*
X-20574000Y-32575974D01*
X-20257695Y-32594848D01*
G36*
X-4353104Y-33792583D02*
G01*
X-4348720Y-34151931D01*
X-4344065Y-34437140D01*
X-4338375Y-34658737D01*
X-4330888Y-34827248D01*
X-4320844Y-34953201D01*
X-4307478Y-35047123D01*
X-4290030Y-35119538D01*
X-4267738Y-35180976D01*
X-4249667Y-35221333D01*
X-4123664Y-35429470D01*
X-3963539Y-35573363D01*
X-3771722Y-35664402D01*
X-3494779Y-35722099D01*
X-3230225Y-35698766D01*
X-2987203Y-35596229D01*
X-2833336Y-35476915D01*
X-2762825Y-35405024D01*
X-2705981Y-35331383D01*
X-2661169Y-35246117D01*
X-2626753Y-35139353D01*
X-2601097Y-35001218D01*
X-2582568Y-34821837D01*
X-2569528Y-34591339D01*
X-2560344Y-34299850D01*
X-2553380Y-33937495D01*
X-2550862Y-33771417D01*
X-2533204Y-32554333D01*
X-2201333Y-32554333D01*
X-2201333Y-33795483D01*
X-2202305Y-34197128D01*
X-2206172Y-34524501D01*
X-2214362Y-34787980D01*
X-2228301Y-34997947D01*
X-2249418Y-35164782D01*
X-2279140Y-35298866D01*
X-2318893Y-35410580D01*
X-2370106Y-35510303D01*
X-2434205Y-35608417D01*
X-2454519Y-35636825D01*
X-2644205Y-35829130D01*
X-2892060Y-35961758D01*
X-3199530Y-36035385D01*
X-3335174Y-36048209D01*
X-3572730Y-36050601D01*
X-3778172Y-36030138D01*
X-3854426Y-36013140D01*
X-4141437Y-35895622D01*
X-4363099Y-35725011D01*
X-4461011Y-35602530D01*
X-4525748Y-35496170D01*
X-4577770Y-35386330D01*
X-4618424Y-35262550D01*
X-4649055Y-35114370D01*
X-4671007Y-34931331D01*
X-4685627Y-34702973D01*
X-4694258Y-34418836D01*
X-4698246Y-34068461D01*
X-4699000Y-33751939D01*
X-4699000Y-32554333D01*
X-4367041Y-32554333D01*
X-4353104Y-33792583D01*
G37*
X-4353104Y-33792583D02*
X-4348720Y-34151931D01*
X-4344065Y-34437140D01*
X-4338375Y-34658737D01*
X-4330888Y-34827248D01*
X-4320844Y-34953201D01*
X-4307478Y-35047123D01*
X-4290030Y-35119538D01*
X-4267738Y-35180976D01*
X-4249667Y-35221333D01*
X-4123664Y-35429470D01*
X-3963539Y-35573363D01*
X-3771722Y-35664402D01*
X-3494779Y-35722099D01*
X-3230225Y-35698766D01*
X-2987203Y-35596229D01*
X-2833336Y-35476915D01*
X-2762825Y-35405024D01*
X-2705981Y-35331383D01*
X-2661169Y-35246117D01*
X-2626753Y-35139353D01*
X-2601097Y-35001218D01*
X-2582568Y-34821837D01*
X-2569528Y-34591339D01*
X-2560344Y-34299850D01*
X-2553380Y-33937495D01*
X-2550862Y-33771417D01*
X-2533204Y-32554333D01*
X-2201333Y-32554333D01*
X-2201333Y-33795483D01*
X-2202305Y-34197128D01*
X-2206172Y-34524501D01*
X-2214362Y-34787980D01*
X-2228301Y-34997947D01*
X-2249418Y-35164782D01*
X-2279140Y-35298866D01*
X-2318893Y-35410580D01*
X-2370106Y-35510303D01*
X-2434205Y-35608417D01*
X-2454519Y-35636825D01*
X-2644205Y-35829130D01*
X-2892060Y-35961758D01*
X-3199530Y-36035385D01*
X-3335174Y-36048209D01*
X-3572730Y-36050601D01*
X-3778172Y-36030138D01*
X-3854426Y-36013140D01*
X-4141437Y-35895622D01*
X-4363099Y-35725011D01*
X-4461011Y-35602530D01*
X-4525748Y-35496170D01*
X-4577770Y-35386330D01*
X-4618424Y-35262550D01*
X-4649055Y-35114370D01*
X-4671007Y-34931331D01*
X-4685627Y-34702973D01*
X-4694258Y-34418836D01*
X-4698246Y-34068461D01*
X-4699000Y-33751939D01*
X-4699000Y-32554333D01*
X-4367041Y-32554333D01*
X-4353104Y-33792583D01*
G36*
X-18001775Y-34279417D02*
G01*
X-18012833Y-36004500D01*
X-18162513Y-36017098D01*
X-18270389Y-36017720D01*
X-18338199Y-36002708D01*
X-18342430Y-35999459D01*
X-18349010Y-35951874D01*
X-18355098Y-35828759D01*
X-18360532Y-35639250D01*
X-18365156Y-35392484D01*
X-18368809Y-35097595D01*
X-18371332Y-34763720D01*
X-18372568Y-34399995D01*
X-18372666Y-34261778D01*
X-18372666Y-32554333D01*
X-17990717Y-32554333D01*
X-18001775Y-34279417D01*
G37*
X-18001775Y-34279417D02*
X-18012833Y-36004500D01*
X-18162513Y-36017098D01*
X-18270389Y-36017720D01*
X-18338199Y-36002708D01*
X-18342430Y-35999459D01*
X-18349010Y-35951874D01*
X-18355098Y-35828759D01*
X-18360532Y-35639250D01*
X-18365156Y-35392484D01*
X-18368809Y-35097595D01*
X-18371332Y-34763720D01*
X-18372568Y-34399995D01*
X-18372666Y-34261778D01*
X-18372666Y-32554333D01*
X-17990717Y-32554333D01*
X-18001775Y-34279417D01*
G36*
X-14689666Y-32893000D02*
G01*
X-15873957Y-32893000D01*
X-15885062Y-34448750D01*
X-15896166Y-36004500D01*
X-16045846Y-36017098D01*
X-16153723Y-36017720D01*
X-16221533Y-36002708D01*
X-16225763Y-35999459D01*
X-16232685Y-35951595D01*
X-16239050Y-35828716D01*
X-16244672Y-35640472D01*
X-16249363Y-35396514D01*
X-16252939Y-35106491D01*
X-16255213Y-34780056D01*
X-16256000Y-34431111D01*
X-16256000Y-32893000D01*
X-17441333Y-32893000D01*
X-17441333Y-32554333D01*
X-14689666Y-32554333D01*
X-14689666Y-32893000D01*
G37*
X-14689666Y-32893000D02*
X-15873957Y-32893000D01*
X-15885062Y-34448750D01*
X-15896166Y-36004500D01*
X-16045846Y-36017098D01*
X-16153723Y-36017720D01*
X-16221533Y-36002708D01*
X-16225763Y-35999459D01*
X-16232685Y-35951595D01*
X-16239050Y-35828716D01*
X-16244672Y-35640472D01*
X-16249363Y-35396514D01*
X-16252939Y-35106491D01*
X-16255213Y-34780056D01*
X-16256000Y-34431111D01*
X-16256000Y-32893000D01*
X-17441333Y-32893000D01*
X-17441333Y-32554333D01*
X-14689666Y-32554333D01*
X-14689666Y-32893000D01*
G36*
X285380Y-32575364D02*
G01*
X553614Y-32642285D01*
X783235Y-32760915D01*
X911117Y-32860347D01*
X1107773Y-33086570D01*
X1259587Y-33370116D01*
X1365335Y-33695740D01*
X1423795Y-34048200D01*
X1433744Y-34412253D01*
X1393961Y-34772655D01*
X1303223Y-35114164D01*
X1160308Y-35421537D01*
X1121479Y-35483463D01*
X931821Y-35696654D01*
X686235Y-35860656D01*
X400770Y-35970859D01*
X91476Y-36022657D01*
X-225596Y-36011439D01*
X-493926Y-35947305D01*
X-789074Y-35803145D01*
X-1031105Y-35593112D01*
X-1219820Y-35317426D01*
X-1345053Y-35009667D01*
X-1393654Y-34776507D01*
X-1418231Y-34491016D01*
X-1419189Y-34181929D01*
X-1416642Y-34147126D01*
X-1132333Y-34147126D01*
X-1128123Y-34553841D01*
X-1065949Y-34899365D01*
X-945087Y-35184888D01*
X-764816Y-35411605D01*
X-524412Y-35580707D01*
X-223155Y-35693386D01*
X-190500Y-35701397D01*
X-45149Y-35709678D01*
X140342Y-35684908D01*
X330847Y-35632805D01*
X402167Y-35604905D01*
X598945Y-35479533D01*
X776460Y-35292656D01*
X914683Y-35067433D01*
X957767Y-34962512D01*
X1006923Y-34754404D01*
X1034585Y-34493659D01*
X1040768Y-34209529D01*
X1025491Y-33931266D01*
X988768Y-33688123D01*
X956987Y-33572804D01*
X826402Y-33312230D01*
X642812Y-33105741D01*
X419412Y-32956978D01*
X169392Y-32869581D01*
X-94054Y-32847189D01*
X-357733Y-32893443D01*
X-608455Y-33011982D01*
X-732915Y-33106540D01*
X-896659Y-33287922D01*
X-1014276Y-33508835D01*
X-1090670Y-33782054D01*
X-1130743Y-34120354D01*
X-1132333Y-34147126D01*
X-1416642Y-34147126D01*
X-1396937Y-33877978D01*
X-1351881Y-33607899D01*
X-1323701Y-33503237D01*
X-1184213Y-33186381D01*
X-986589Y-32928601D01*
X-737066Y-32734505D01*
X-441883Y-32608701D01*
X-107276Y-32555797D01*
X-39433Y-32554367D01*
X285380Y-32575364D01*
G37*
X285380Y-32575364D02*
X553614Y-32642285D01*
X783235Y-32760915D01*
X911117Y-32860347D01*
X1107773Y-33086570D01*
X1259587Y-33370116D01*
X1365335Y-33695740D01*
X1423795Y-34048200D01*
X1433744Y-34412253D01*
X1393961Y-34772655D01*
X1303223Y-35114164D01*
X1160308Y-35421537D01*
X1121479Y-35483463D01*
X931821Y-35696654D01*
X686235Y-35860656D01*
X400770Y-35970859D01*
X91476Y-36022657D01*
X-225596Y-36011439D01*
X-493926Y-35947305D01*
X-789074Y-35803145D01*
X-1031105Y-35593112D01*
X-1219820Y-35317426D01*
X-1345053Y-35009667D01*
X-1393654Y-34776507D01*
X-1418231Y-34491016D01*
X-1419189Y-34181929D01*
X-1416642Y-34147126D01*
X-1132333Y-34147126D01*
X-1128123Y-34553841D01*
X-1065949Y-34899365D01*
X-945087Y-35184888D01*
X-764816Y-35411605D01*
X-524412Y-35580707D01*
X-223155Y-35693386D01*
X-190500Y-35701397D01*
X-45149Y-35709678D01*
X140342Y-35684908D01*
X330847Y-35632805D01*
X402167Y-35604905D01*
X598945Y-35479533D01*
X776460Y-35292656D01*
X914683Y-35067433D01*
X957767Y-34962512D01*
X1006923Y-34754404D01*
X1034585Y-34493659D01*
X1040768Y-34209529D01*
X1025491Y-33931266D01*
X988768Y-33688123D01*
X956987Y-33572804D01*
X826402Y-33312230D01*
X642812Y-33105741D01*
X419412Y-32956978D01*
X169392Y-32869581D01*
X-94054Y-32847189D01*
X-357733Y-32893443D01*
X-608455Y-33011982D01*
X-732915Y-33106540D01*
X-896659Y-33287922D01*
X-1014276Y-33508835D01*
X-1090670Y-33782054D01*
X-1130743Y-34120354D01*
X-1132333Y-34147126D01*
X-1416642Y-34147126D01*
X-1396937Y-33877978D01*
X-1351881Y-33607899D01*
X-1323701Y-33503237D01*
X-1184213Y-33186381D01*
X-986589Y-32928601D01*
X-737066Y-32734505D01*
X-441883Y-32608701D01*
X-107276Y-32555797D01*
X-39433Y-32554367D01*
X285380Y-32575364D01*
G36*
X3884558Y-34279417D02*
G01*
X3873500Y-36004500D01*
X3744979Y-36017089D01*
X3644598Y-36017019D01*
X3586229Y-35999451D01*
X3576489Y-35949266D01*
X3568054Y-35828564D01*
X3561468Y-35651491D01*
X3557276Y-35432192D01*
X3556000Y-35214278D01*
X3556000Y-34459333D01*
X2116667Y-34459333D01*
X2116667Y-34120667D01*
X3556000Y-34120667D01*
X3556000Y-32850667D01*
X1862667Y-32850667D01*
X1862667Y-32554333D01*
X3895617Y-32554333D01*
X3884558Y-34279417D01*
G37*
X3884558Y-34279417D02*
X3873500Y-36004500D01*
X3744979Y-36017089D01*
X3644598Y-36017019D01*
X3586229Y-35999451D01*
X3576489Y-35949266D01*
X3568054Y-35828564D01*
X3561468Y-35651491D01*
X3557276Y-35432192D01*
X3556000Y-35214278D01*
X3556000Y-34459333D01*
X2116667Y-34459333D01*
X2116667Y-34120667D01*
X3556000Y-34120667D01*
X3556000Y-32850667D01*
X1862667Y-32850667D01*
X1862667Y-32554333D01*
X3895617Y-32554333D01*
X3884558Y-34279417D01*
G36*
X-22775333Y-35983333D02*
G01*
X-23155176Y-35983333D01*
X-23177500Y-33217665D01*
X-24816368Y-35983333D01*
X-25230666Y-35983333D01*
X-25230666Y-32554333D01*
X-24893126Y-32554333D01*
X-24881980Y-33982998D01*
X-24870833Y-35411663D01*
X-24040798Y-33993581D01*
X-23210763Y-32575500D01*
X-22993048Y-32562704D01*
X-22775333Y-32549909D01*
X-22775333Y-35983333D01*
G37*
X-22775333Y-35983333D02*
X-23155176Y-35983333D01*
X-23177500Y-33217665D01*
X-24816368Y-35983333D01*
X-25230666Y-35983333D01*
X-25230666Y-32554333D01*
X-24893126Y-32554333D01*
X-24881980Y-33982998D01*
X-24870833Y-35411663D01*
X-24040798Y-33993581D01*
X-23210763Y-32575500D01*
X-22993048Y-32562704D01*
X-22775333Y-32549909D01*
X-22775333Y-35983333D01*
G36*
X-13299120Y-32563024D02*
G01*
X-13114821Y-32575500D01*
X-12510018Y-34188697D01*
X-12377734Y-34541872D01*
X-12254033Y-34872774D01*
X-12142243Y-35172451D01*
X-12045693Y-35431955D01*
X-11967710Y-35642333D01*
X-11911622Y-35794634D01*
X-11880759Y-35879910D01*
X-11876421Y-35892614D01*
X-11866380Y-35948683D01*
X-11896179Y-35975184D01*
X-11984784Y-35982998D01*
X-12034536Y-35983333D01*
X-12221444Y-35983333D01*
X-12402216Y-35495522D01*
X-12582988Y-35007710D01*
X-13306664Y-35019272D01*
X-14030340Y-35030833D01*
X-14373104Y-35962167D01*
X-14568693Y-35974864D01*
X-14764282Y-35987562D01*
X-14289419Y-34713333D01*
X-13921752Y-34713333D01*
X-12701520Y-34713333D01*
X-12844681Y-34321750D01*
X-12925694Y-34101039D01*
X-13020586Y-33843837D01*
X-13113551Y-33592948D01*
X-13149242Y-33497010D01*
X-13310643Y-33063854D01*
X-13495884Y-33560510D01*
X-13581806Y-33791360D01*
X-13670832Y-34031349D01*
X-13751252Y-34248874D01*
X-13801439Y-34385250D01*
X-13921752Y-34713333D01*
X-14289419Y-34713333D01*
X-13483420Y-32550548D01*
X-13299120Y-32563024D01*
G37*
X-13299120Y-32563024D02*
X-13114821Y-32575500D01*
X-12510018Y-34188697D01*
X-12377734Y-34541872D01*
X-12254033Y-34872774D01*
X-12142243Y-35172451D01*
X-12045693Y-35431955D01*
X-11967710Y-35642333D01*
X-11911622Y-35794634D01*
X-11880759Y-35879910D01*
X-11876421Y-35892614D01*
X-11866380Y-35948683D01*
X-11896179Y-35975184D01*
X-11984784Y-35982998D01*
X-12034536Y-35983333D01*
X-12221444Y-35983333D01*
X-12402216Y-35495522D01*
X-12582988Y-35007710D01*
X-13306664Y-35019272D01*
X-14030340Y-35030833D01*
X-14373104Y-35962167D01*
X-14568693Y-35974864D01*
X-14764282Y-35987562D01*
X-14289419Y-34713333D01*
X-13921752Y-34713333D01*
X-12701520Y-34713333D01*
X-12844681Y-34321750D01*
X-12925694Y-34101039D01*
X-13020586Y-33843837D01*
X-13113551Y-33592948D01*
X-13149242Y-33497010D01*
X-13310643Y-33063854D01*
X-13495884Y-33560510D01*
X-13581806Y-33791360D01*
X-13670832Y-34031349D01*
X-13751252Y-34248874D01*
X-13801439Y-34385250D01*
X-13921752Y-34713333D01*
X-14289419Y-34713333D01*
X-13483420Y-32550548D01*
X-13299120Y-32563024D01*
G36*
X-8974666Y-35983333D02*
G01*
X-9683750Y-35980501D01*
X-10006359Y-35975380D01*
X-10268371Y-35963171D01*
X-10461454Y-35944417D01*
X-10566556Y-35923296D01*
X-10851160Y-35792473D01*
X-11095131Y-35597327D01*
X-11285115Y-35351714D01*
X-11407758Y-35069489D01*
X-11414974Y-35043007D01*
X-11487175Y-34651105D01*
X-11503542Y-34262802D01*
X-11500438Y-34231598D01*
X-11126117Y-34231598D01*
X-11118054Y-34617781D01*
X-11059613Y-34939207D01*
X-10948689Y-35200675D01*
X-10783176Y-35406987D01*
X-10560967Y-35562944D01*
X-10536565Y-35575448D01*
X-10431751Y-35624011D01*
X-10335275Y-35656074D01*
X-10225309Y-35675002D01*
X-10080026Y-35684162D01*
X-9877597Y-35686917D01*
X-9813021Y-35687000D01*
X-9313333Y-35687000D01*
X-9313453Y-35083750D01*
X-9315172Y-34829598D01*
X-9319839Y-34521217D01*
X-9326849Y-34188971D01*
X-9335596Y-33863223D01*
X-9341313Y-33686750D01*
X-9369053Y-32893000D01*
X-9796277Y-32893413D01*
X-10010257Y-32896864D01*
X-10165339Y-32909395D01*
X-10287140Y-32935005D01*
X-10401277Y-32977694D01*
X-10435166Y-32993167D01*
X-10684455Y-33143540D01*
X-10873941Y-33336402D01*
X-11007935Y-33579479D01*
X-11090748Y-33880499D01*
X-11126117Y-34231598D01*
X-11500438Y-34231598D01*
X-11466607Y-33891547D01*
X-11378900Y-33550790D01*
X-11242953Y-33253982D01*
X-11061298Y-33014571D01*
X-11026941Y-32981364D01*
X-10846414Y-32832389D01*
X-10661284Y-32720659D01*
X-10455808Y-32641606D01*
X-10214244Y-32590663D01*
X-9920850Y-32563263D01*
X-9559883Y-32554839D01*
X-9556750Y-32554836D01*
X-8974666Y-32554333D01*
X-8974666Y-35983333D01*
G37*
X-8974666Y-35983333D02*
X-9683750Y-35980501D01*
X-10006359Y-35975380D01*
X-10268371Y-35963171D01*
X-10461454Y-35944417D01*
X-10566556Y-35923296D01*
X-10851160Y-35792473D01*
X-11095131Y-35597327D01*
X-11285115Y-35351714D01*
X-11407758Y-35069489D01*
X-11414974Y-35043007D01*
X-11487175Y-34651105D01*
X-11503542Y-34262802D01*
X-11500438Y-34231598D01*
X-11126117Y-34231598D01*
X-11118054Y-34617781D01*
X-11059613Y-34939207D01*
X-10948689Y-35200675D01*
X-10783176Y-35406987D01*
X-10560967Y-35562944D01*
X-10536565Y-35575448D01*
X-10431751Y-35624011D01*
X-10335275Y-35656074D01*
X-10225309Y-35675002D01*
X-10080026Y-35684162D01*
X-9877597Y-35686917D01*
X-9813021Y-35687000D01*
X-9313333Y-35687000D01*
X-9313453Y-35083750D01*
X-9315172Y-34829598D01*
X-9319839Y-34521217D01*
X-9326849Y-34188971D01*
X-9335596Y-33863223D01*
X-9341313Y-33686750D01*
X-9369053Y-32893000D01*
X-9796277Y-32893413D01*
X-10010257Y-32896864D01*
X-10165339Y-32909395D01*
X-10287140Y-32935005D01*
X-10401277Y-32977694D01*
X-10435166Y-32993167D01*
X-10684455Y-33143540D01*
X-10873941Y-33336402D01*
X-11007935Y-33579479D01*
X-11090748Y-33880499D01*
X-11126117Y-34231598D01*
X-11500438Y-34231598D01*
X-11466607Y-33891547D01*
X-11378900Y-33550790D01*
X-11242953Y-33253982D01*
X-11061298Y-33014571D01*
X-11026941Y-32981364D01*
X-10846414Y-32832389D01*
X-10661284Y-32720659D01*
X-10455808Y-32641606D01*
X-10214244Y-32590663D01*
X-9920850Y-32563263D01*
X-9559883Y-32554839D01*
X-9556750Y-32554836D01*
X-8974666Y-32554333D01*
X-8974666Y-35983333D01*
G36*
X-5588000Y-35983333D02*
G01*
X-5925525Y-35983333D01*
X-5947833Y-33175309D01*
X-6784611Y-34579321D01*
X-7621388Y-35983333D01*
X-8043333Y-35983333D01*
X-8043333Y-32554333D01*
X-7705778Y-32554333D01*
X-7694639Y-33985608D01*
X-7683500Y-35416882D01*
X-6019588Y-32575500D01*
X-5803794Y-32562704D01*
X-5588000Y-32549909D01*
X-5588000Y-35983333D01*
G37*
X-5588000Y-35983333D02*
X-5925525Y-35983333D01*
X-5947833Y-33175309D01*
X-6784611Y-34579321D01*
X-7621388Y-35983333D01*
X-8043333Y-35983333D01*
X-8043333Y-32554333D01*
X-7705778Y-32554333D01*
X-7694639Y-33985608D01*
X-7683500Y-35416882D01*
X-6019588Y-32575500D01*
X-5803794Y-32562704D01*
X-5588000Y-32549909D01*
X-5588000Y-35983333D01*
G36*
X-7588797Y-26459606D02*
G01*
X-7113079Y-26560832D01*
X-6673241Y-26736980D01*
X-6275247Y-26983764D01*
X-5925062Y-27296902D01*
X-5628650Y-27672109D01*
X-5439399Y-28003500D01*
X-5317761Y-28268587D01*
X-5236918Y-28492036D01*
X-5189627Y-28701929D01*
X-5168646Y-28926347D01*
X-5165701Y-29064733D01*
X-5198944Y-29432912D01*
X-5298197Y-29761661D01*
X-5458745Y-30043826D01*
X-5675875Y-30272251D01*
X-5944871Y-30439779D01*
X-6113511Y-30503457D01*
X-6366909Y-30557534D01*
X-6659859Y-30585325D01*
X-6955312Y-30585415D01*
X-7216219Y-30556395D01*
X-7260166Y-30547164D01*
X-7713506Y-30407051D01*
X-8113330Y-30210140D01*
X-8194273Y-30158806D01*
X-8388666Y-30008069D01*
X-8601329Y-29807938D01*
X-8809223Y-29582926D01*
X-8989308Y-29357544D01*
X-9091577Y-29204165D01*
X-9270769Y-28843040D01*
X-9388446Y-28475301D01*
X-9442537Y-28130500D01*
X-8403166Y-28130500D01*
X-8398078Y-28322900D01*
X-8377205Y-28469842D01*
X-8332134Y-28610212D01*
X-8268336Y-28753787D01*
X-8148827Y-28964756D01*
X-7996888Y-29173166D01*
X-7831079Y-29357221D01*
X-7669965Y-29495127D01*
X-7600166Y-29538311D01*
X-7328711Y-29649741D01*
X-7064148Y-29702152D01*
X-6821958Y-29694695D01*
X-6617624Y-29626518D01*
X-6567412Y-29595091D01*
X-6414742Y-29450776D01*
X-6318739Y-29269376D01*
X-6274646Y-29038163D01*
X-6273563Y-28808589D01*
X-6328218Y-28451899D01*
X-6448048Y-28125755D01*
X-6624937Y-27839320D01*
X-6850767Y-27601756D01*
X-7117421Y-27422226D01*
X-7416785Y-27309894D01*
X-7630356Y-27276874D01*
X-7890253Y-27289666D01*
X-8096870Y-27368026D01*
X-8250380Y-27512145D01*
X-8350956Y-27722214D01*
X-8398772Y-27998425D01*
X-8403166Y-28130500D01*
X-9442537Y-28130500D01*
X-9445582Y-28111091D01*
X-9443147Y-27760556D01*
X-9382113Y-27433841D01*
X-9263452Y-27141091D01*
X-9088135Y-26892451D01*
X-8857136Y-26698066D01*
X-8851176Y-26694315D01*
X-8535586Y-26545043D01*
X-8176189Y-26460359D01*
X-7786822Y-26442835D01*
X-7588797Y-26459606D01*
G37*
X-7588797Y-26459606D02*
X-7113079Y-26560832D01*
X-6673241Y-26736980D01*
X-6275247Y-26983764D01*
X-5925062Y-27296902D01*
X-5628650Y-27672109D01*
X-5439399Y-28003500D01*
X-5317761Y-28268587D01*
X-5236918Y-28492036D01*
X-5189627Y-28701929D01*
X-5168646Y-28926347D01*
X-5165701Y-29064733D01*
X-5198944Y-29432912D01*
X-5298197Y-29761661D01*
X-5458745Y-30043826D01*
X-5675875Y-30272251D01*
X-5944871Y-30439779D01*
X-6113511Y-30503457D01*
X-6366909Y-30557534D01*
X-6659859Y-30585325D01*
X-6955312Y-30585415D01*
X-7216219Y-30556395D01*
X-7260166Y-30547164D01*
X-7713506Y-30407051D01*
X-8113330Y-30210140D01*
X-8194273Y-30158806D01*
X-8388666Y-30008069D01*
X-8601329Y-29807938D01*
X-8809223Y-29582926D01*
X-8989308Y-29357544D01*
X-9091577Y-29204165D01*
X-9270769Y-28843040D01*
X-9388446Y-28475301D01*
X-9442537Y-28130500D01*
X-8403166Y-28130500D01*
X-8398078Y-28322900D01*
X-8377205Y-28469842D01*
X-8332134Y-28610212D01*
X-8268336Y-28753787D01*
X-8148827Y-28964756D01*
X-7996888Y-29173166D01*
X-7831079Y-29357221D01*
X-7669965Y-29495127D01*
X-7600166Y-29538311D01*
X-7328711Y-29649741D01*
X-7064148Y-29702152D01*
X-6821958Y-29694695D01*
X-6617624Y-29626518D01*
X-6567412Y-29595091D01*
X-6414742Y-29450776D01*
X-6318739Y-29269376D01*
X-6274646Y-29038163D01*
X-6273563Y-28808589D01*
X-6328218Y-28451899D01*
X-6448048Y-28125755D01*
X-6624937Y-27839320D01*
X-6850767Y-27601756D01*
X-7117421Y-27422226D01*
X-7416785Y-27309894D01*
X-7630356Y-27276874D01*
X-7890253Y-27289666D01*
X-8096870Y-27368026D01*
X-8250380Y-27512145D01*
X-8350956Y-27722214D01*
X-8398772Y-27998425D01*
X-8403166Y-28130500D01*
X-9442537Y-28130500D01*
X-9445582Y-28111091D01*
X-9443147Y-27760556D01*
X-9382113Y-27433841D01*
X-9263452Y-27141091D01*
X-9088135Y-26892451D01*
X-8857136Y-26698066D01*
X-8851176Y-26694315D01*
X-8535586Y-26545043D01*
X-8176189Y-26460359D01*
X-7786822Y-26442835D01*
X-7588797Y-26459606D01*
G36*
X804104Y-26458516D02*
G01*
X910982Y-26463559D01*
X1003667Y-26480203D01*
X1089485Y-26515189D01*
X1175763Y-26575259D01*
X1269826Y-26667153D01*
X1379001Y-26797614D01*
X1510615Y-26973381D01*
X1671993Y-27201197D01*
X1870462Y-27487803D01*
X2002170Y-27678863D01*
X2363293Y-28203552D01*
X2677052Y-28661584D01*
X2945047Y-29055375D01*
X3168881Y-29387337D01*
X3350155Y-29659885D01*
X3490470Y-29875433D01*
X3591430Y-30036394D01*
X3654634Y-30145184D01*
X3681686Y-30204215D01*
X3683000Y-30212091D01*
X3641843Y-30347234D01*
X3519221Y-30463012D01*
X3397347Y-30526828D01*
X3256193Y-30577528D01*
X3136438Y-30591535D01*
X3026306Y-30562038D01*
X2914021Y-30482223D01*
X2787805Y-30345278D01*
X2635883Y-30144392D01*
X2566311Y-30046083D01*
X2366389Y-29760333D01*
X1609026Y-29760333D01*
X1364453Y-29762257D01*
X1150237Y-29767599D01*
X980306Y-29775713D01*
X868592Y-29785954D01*
X829349Y-29796440D01*
X812664Y-29853424D01*
X789242Y-29970466D01*
X763783Y-30123734D01*
X760478Y-30145690D01*
X722339Y-30343649D01*
X675398Y-30471254D01*
X627438Y-30532917D01*
X557247Y-30581533D01*
X481301Y-30599068D01*
X377609Y-30584871D01*
X224182Y-30538293D01*
X169334Y-30519366D01*
X-48518Y-30415846D01*
X-189380Y-30285586D01*
X-251123Y-30130767D01*
X-253955Y-30086056D01*
X-248355Y-30013715D01*
X-232573Y-29868956D01*
X-208106Y-29663216D01*
X-176446Y-29407934D01*
X-139090Y-29114549D01*
X-107189Y-28868860D01*
X931334Y-28868860D01*
X936628Y-28908488D01*
X962755Y-28933853D01*
X1025076Y-28948115D01*
X1138956Y-28954438D01*
X1319756Y-28955984D01*
X1354667Y-28956000D01*
X1532374Y-28953917D01*
X1673348Y-28948300D01*
X1759666Y-28940098D01*
X1778000Y-28933586D01*
X1755386Y-28881985D01*
X1694441Y-28781309D01*
X1605512Y-28646106D01*
X1498944Y-28490920D01*
X1385086Y-28330300D01*
X1274281Y-28178790D01*
X1176878Y-28050937D01*
X1103223Y-27961288D01*
X1063662Y-27924389D01*
X1060513Y-27924847D01*
X1043739Y-27978090D01*
X1021527Y-28094202D01*
X996805Y-28251797D01*
X972499Y-28429491D01*
X951534Y-28605900D01*
X936837Y-28759639D01*
X931334Y-28868860D01*
X-107189Y-28868860D01*
X-97533Y-28794499D01*
X-53269Y-28459223D01*
X-7793Y-28120159D01*
X37400Y-27788746D01*
X80814Y-27476423D01*
X120956Y-27194628D01*
X148243Y-27008667D01*
X187139Y-26783460D01*
X233192Y-26629421D01*
X299162Y-26533236D01*
X397809Y-26481591D01*
X541894Y-26461174D01*
X675706Y-26458333D01*
X804104Y-26458516D01*
G37*
X804104Y-26458516D02*
X910982Y-26463559D01*
X1003667Y-26480203D01*
X1089485Y-26515189D01*
X1175763Y-26575259D01*
X1269826Y-26667153D01*
X1379001Y-26797614D01*
X1510615Y-26973381D01*
X1671993Y-27201197D01*
X1870462Y-27487803D01*
X2002170Y-27678863D01*
X2363293Y-28203552D01*
X2677052Y-28661584D01*
X2945047Y-29055375D01*
X3168881Y-29387337D01*
X3350155Y-29659885D01*
X3490470Y-29875433D01*
X3591430Y-30036394D01*
X3654634Y-30145184D01*
X3681686Y-30204215D01*
X3683000Y-30212091D01*
X3641843Y-30347234D01*
X3519221Y-30463012D01*
X3397347Y-30526828D01*
X3256193Y-30577528D01*
X3136438Y-30591535D01*
X3026306Y-30562038D01*
X2914021Y-30482223D01*
X2787805Y-30345278D01*
X2635883Y-30144392D01*
X2566311Y-30046083D01*
X2366389Y-29760333D01*
X1609026Y-29760333D01*
X1364453Y-29762257D01*
X1150237Y-29767599D01*
X980306Y-29775713D01*
X868592Y-29785954D01*
X829349Y-29796440D01*
X812664Y-29853424D01*
X789242Y-29970466D01*
X763783Y-30123734D01*
X760478Y-30145690D01*
X722339Y-30343649D01*
X675398Y-30471254D01*
X627438Y-30532917D01*
X557247Y-30581533D01*
X481301Y-30599068D01*
X377609Y-30584871D01*
X224182Y-30538293D01*
X169334Y-30519366D01*
X-48518Y-30415846D01*
X-189380Y-30285586D01*
X-251123Y-30130767D01*
X-253955Y-30086056D01*
X-248355Y-30013715D01*
X-232573Y-29868956D01*
X-208106Y-29663216D01*
X-176446Y-29407934D01*
X-139090Y-29114549D01*
X-107189Y-28868860D01*
X931334Y-28868860D01*
X936628Y-28908488D01*
X962755Y-28933853D01*
X1025076Y-28948115D01*
X1138956Y-28954438D01*
X1319756Y-28955984D01*
X1354667Y-28956000D01*
X1532374Y-28953917D01*
X1673348Y-28948300D01*
X1759666Y-28940098D01*
X1778000Y-28933586D01*
X1755386Y-28881985D01*
X1694441Y-28781309D01*
X1605512Y-28646106D01*
X1498944Y-28490920D01*
X1385086Y-28330300D01*
X1274281Y-28178790D01*
X1176878Y-28050937D01*
X1103223Y-27961288D01*
X1063662Y-27924389D01*
X1060513Y-27924847D01*
X1043739Y-27978090D01*
X1021527Y-28094202D01*
X996805Y-28251797D01*
X972499Y-28429491D01*
X951534Y-28605900D01*
X936837Y-28759639D01*
X931334Y-28868860D01*
X-107189Y-28868860D01*
X-97533Y-28794499D01*
X-53269Y-28459223D01*
X-7793Y-28120159D01*
X37400Y-27788746D01*
X80814Y-27476423D01*
X120956Y-27194628D01*
X148243Y-27008667D01*
X187139Y-26783460D01*
X233192Y-26629421D01*
X299162Y-26533236D01*
X397809Y-26481591D01*
X541894Y-26461174D01*
X675706Y-26458333D01*
X804104Y-26458516D01*
G36*
X9778589Y-26458515D02*
G01*
X9885320Y-26463554D01*
X9977891Y-26480191D01*
X10063625Y-26515166D01*
X10149846Y-26575218D01*
X10243878Y-26667088D01*
X10353044Y-26797517D01*
X10484669Y-26973244D01*
X10646076Y-27201010D01*
X10844589Y-27487554D01*
X10976424Y-27678713D01*
X11353165Y-28226153D01*
X11681099Y-28705526D01*
X11960727Y-29117587D01*
X12192553Y-29463094D01*
X12377077Y-29742805D01*
X12514802Y-29957478D01*
X12606231Y-30107868D01*
X12651865Y-30194735D01*
X12657667Y-30214753D01*
X12616437Y-30347601D01*
X12494450Y-30462564D01*
X12372013Y-30526828D01*
X12230860Y-30577528D01*
X12111105Y-30591535D01*
X12000973Y-30562038D01*
X11888688Y-30482223D01*
X11762472Y-30345278D01*
X11610550Y-30144392D01*
X11540978Y-30046083D01*
X11341056Y-29760333D01*
X10583693Y-29760333D01*
X10339120Y-29762257D01*
X10124903Y-29767599D01*
X9954973Y-29775713D01*
X9843259Y-29785954D01*
X9804015Y-29796440D01*
X9787331Y-29853424D01*
X9763909Y-29970466D01*
X9738450Y-30123734D01*
X9735144Y-30145690D01*
X9697006Y-30343649D01*
X9650064Y-30471254D01*
X9602104Y-30532917D01*
X9531914Y-30581533D01*
X9455967Y-30599068D01*
X9352275Y-30584871D01*
X9198848Y-30538293D01*
X9144000Y-30519366D01*
X8923618Y-30414633D01*
X8783327Y-30282657D01*
X8723176Y-30123491D01*
X8720667Y-30079427D01*
X8726289Y-30005443D01*
X8742157Y-29859035D01*
X8766776Y-29651626D01*
X8798651Y-29394641D01*
X8836285Y-29099504D01*
X8869494Y-28844381D01*
X9906000Y-28844381D01*
X9906000Y-28956000D01*
X10329334Y-28956000D01*
X10507041Y-28953917D01*
X10648014Y-28948300D01*
X10734332Y-28940098D01*
X10752667Y-28933586D01*
X10730072Y-28882150D01*
X10669179Y-28781597D01*
X10580326Y-28646474D01*
X10473850Y-28491328D01*
X10360091Y-28330706D01*
X10249385Y-28179155D01*
X10152071Y-28051223D01*
X10078487Y-27961456D01*
X10038971Y-27924402D01*
X10035803Y-27924847D01*
X10017616Y-27979995D01*
X9994199Y-28097622D01*
X9968627Y-28255952D01*
X9943974Y-28433204D01*
X9923314Y-28607602D01*
X9909720Y-28757367D01*
X9906000Y-28844381D01*
X8869494Y-28844381D01*
X8878182Y-28777639D01*
X8922849Y-28440470D01*
X8968787Y-28099421D01*
X9014503Y-27765916D01*
X9058499Y-27451380D01*
X9099282Y-27167236D01*
X9122697Y-27008667D01*
X9161711Y-26783463D01*
X9207842Y-26629424D01*
X9273854Y-26533239D01*
X9372513Y-26481593D01*
X9516581Y-26461175D01*
X9650373Y-26458333D01*
X9778589Y-26458515D01*
G37*
X9778589Y-26458515D02*
X9885320Y-26463554D01*
X9977891Y-26480191D01*
X10063625Y-26515166D01*
X10149846Y-26575218D01*
X10243878Y-26667088D01*
X10353044Y-26797517D01*
X10484669Y-26973244D01*
X10646076Y-27201010D01*
X10844589Y-27487554D01*
X10976424Y-27678713D01*
X11353165Y-28226153D01*
X11681099Y-28705526D01*
X11960727Y-29117587D01*
X12192553Y-29463094D01*
X12377077Y-29742805D01*
X12514802Y-29957478D01*
X12606231Y-30107868D01*
X12651865Y-30194735D01*
X12657667Y-30214753D01*
X12616437Y-30347601D01*
X12494450Y-30462564D01*
X12372013Y-30526828D01*
X12230860Y-30577528D01*
X12111105Y-30591535D01*
X12000973Y-30562038D01*
X11888688Y-30482223D01*
X11762472Y-30345278D01*
X11610550Y-30144392D01*
X11540978Y-30046083D01*
X11341056Y-29760333D01*
X10583693Y-29760333D01*
X10339120Y-29762257D01*
X10124903Y-29767599D01*
X9954973Y-29775713D01*
X9843259Y-29785954D01*
X9804015Y-29796440D01*
X9787331Y-29853424D01*
X9763909Y-29970466D01*
X9738450Y-30123734D01*
X9735144Y-30145690D01*
X9697006Y-30343649D01*
X9650064Y-30471254D01*
X9602104Y-30532917D01*
X9531914Y-30581533D01*
X9455967Y-30599068D01*
X9352275Y-30584871D01*
X9198848Y-30538293D01*
X9144000Y-30519366D01*
X8923618Y-30414633D01*
X8783327Y-30282657D01*
X8723176Y-30123491D01*
X8720667Y-30079427D01*
X8726289Y-30005443D01*
X8742157Y-29859035D01*
X8766776Y-29651626D01*
X8798651Y-29394641D01*
X8836285Y-29099504D01*
X8869494Y-28844381D01*
X9906000Y-28844381D01*
X9906000Y-28956000D01*
X10329334Y-28956000D01*
X10507041Y-28953917D01*
X10648014Y-28948300D01*
X10734332Y-28940098D01*
X10752667Y-28933586D01*
X10730072Y-28882150D01*
X10669179Y-28781597D01*
X10580326Y-28646474D01*
X10473850Y-28491328D01*
X10360091Y-28330706D01*
X10249385Y-28179155D01*
X10152071Y-28051223D01*
X10078487Y-27961456D01*
X10038971Y-27924402D01*
X10035803Y-27924847D01*
X10017616Y-27979995D01*
X9994199Y-28097622D01*
X9968627Y-28255952D01*
X9943974Y-28433204D01*
X9923314Y-28607602D01*
X9909720Y-28757367D01*
X9906000Y-28844381D01*
X8869494Y-28844381D01*
X8878182Y-28777639D01*
X8922849Y-28440470D01*
X8968787Y-28099421D01*
X9014503Y-27765916D01*
X9058499Y-27451380D01*
X9099282Y-27167236D01*
X9122697Y-27008667D01*
X9161711Y-26783463D01*
X9207842Y-26629424D01*
X9273854Y-26533239D01*
X9372513Y-26481593D01*
X9516581Y-26461175D01*
X9650373Y-26458333D01*
X9778589Y-26458515D01*
G36*
X16452120Y-26460882D02*
G01*
X16725855Y-26507383D01*
X16764000Y-26516584D01*
X17217549Y-26672142D01*
X17636273Y-26898439D01*
X18010528Y-27187704D01*
X18330667Y-27532167D01*
X18587047Y-27924060D01*
X18639566Y-28027523D01*
X18727287Y-28223130D01*
X18804509Y-28418459D01*
X18860022Y-28584078D01*
X18877102Y-28651167D01*
X18919521Y-29025610D01*
X18893008Y-29378812D01*
X18801319Y-29701284D01*
X18648211Y-29983536D01*
X18437440Y-30216081D01*
X18192937Y-30379435D01*
X17891393Y-30495855D01*
X17542554Y-30570768D01*
X17174734Y-30600763D01*
X16816250Y-30582430D01*
X16683791Y-30561190D01*
X16379048Y-30476990D01*
X16142658Y-30358788D01*
X15978721Y-30209323D01*
X15891495Y-30031959D01*
X15880110Y-29871334D01*
X15915862Y-29714380D01*
X15989514Y-29593863D01*
X16022832Y-29566160D01*
X16080126Y-29534790D01*
X16140112Y-29525151D01*
X16224885Y-29539500D01*
X16356538Y-29580091D01*
X16440714Y-29608814D01*
X16777213Y-29696424D01*
X17072742Y-29713990D01*
X17324764Y-29662378D01*
X17530743Y-29542456D01*
X17688140Y-29355093D01*
X17779418Y-29150991D01*
X17814773Y-28916839D01*
X17786589Y-28650427D01*
X17700326Y-28368558D01*
X17561446Y-28088038D01*
X17375409Y-27825670D01*
X17332789Y-27776593D01*
X17099352Y-27566997D01*
X16832506Y-27411314D01*
X16548052Y-27313596D01*
X16261790Y-27277896D01*
X15989520Y-27308266D01*
X15794094Y-27381960D01*
X15639351Y-27446255D01*
X15513797Y-27449761D01*
X15394505Y-27387405D01*
X15268987Y-27265748D01*
X15144510Y-27089694D01*
X15085433Y-26916637D01*
X15095506Y-26761454D01*
X15125867Y-26697892D01*
X15230954Y-26605628D01*
X15403308Y-26532157D01*
X15627265Y-26479213D01*
X15887161Y-26448530D01*
X16167334Y-26441842D01*
X16452120Y-26460882D01*
G37*
X16452120Y-26460882D02*
X16725855Y-26507383D01*
X16764000Y-26516584D01*
X17217549Y-26672142D01*
X17636273Y-26898439D01*
X18010528Y-27187704D01*
X18330667Y-27532167D01*
X18587047Y-27924060D01*
X18639566Y-28027523D01*
X18727287Y-28223130D01*
X18804509Y-28418459D01*
X18860022Y-28584078D01*
X18877102Y-28651167D01*
X18919521Y-29025610D01*
X18893008Y-29378812D01*
X18801319Y-29701284D01*
X18648211Y-29983536D01*
X18437440Y-30216081D01*
X18192937Y-30379435D01*
X17891393Y-30495855D01*
X17542554Y-30570768D01*
X17174734Y-30600763D01*
X16816250Y-30582430D01*
X16683791Y-30561190D01*
X16379048Y-30476990D01*
X16142658Y-30358788D01*
X15978721Y-30209323D01*
X15891495Y-30031959D01*
X15880110Y-29871334D01*
X15915862Y-29714380D01*
X15989514Y-29593863D01*
X16022832Y-29566160D01*
X16080126Y-29534790D01*
X16140112Y-29525151D01*
X16224885Y-29539500D01*
X16356538Y-29580091D01*
X16440714Y-29608814D01*
X16777213Y-29696424D01*
X17072742Y-29713990D01*
X17324764Y-29662378D01*
X17530743Y-29542456D01*
X17688140Y-29355093D01*
X17779418Y-29150991D01*
X17814773Y-28916839D01*
X17786589Y-28650427D01*
X17700326Y-28368558D01*
X17561446Y-28088038D01*
X17375409Y-27825670D01*
X17332789Y-27776593D01*
X17099352Y-27566997D01*
X16832506Y-27411314D01*
X16548052Y-27313596D01*
X16261790Y-27277896D01*
X15989520Y-27308266D01*
X15794094Y-27381960D01*
X15639351Y-27446255D01*
X15513797Y-27449761D01*
X15394505Y-27387405D01*
X15268987Y-27265748D01*
X15144510Y-27089694D01*
X15085433Y-26916637D01*
X15095506Y-26761454D01*
X15125867Y-26697892D01*
X15230954Y-26605628D01*
X15403308Y-26532157D01*
X15627265Y-26479213D01*
X15887161Y-26448530D01*
X16167334Y-26441842D01*
X16452120Y-26460882D01*
G36*
X14054985Y-26465541D02*
G01*
X14157586Y-26470904D01*
X14244137Y-26478934D01*
X14317978Y-26496481D01*
X14382447Y-26530398D01*
X14440883Y-26587534D01*
X14496624Y-26674742D01*
X14553009Y-26798874D01*
X14613377Y-26966779D01*
X14681066Y-27185310D01*
X14759416Y-27461318D01*
X14851764Y-27801654D01*
X14961450Y-28213169D01*
X15027338Y-28460910D01*
X15127145Y-28835254D01*
X15220784Y-29185332D01*
X15305904Y-29502439D01*
X15380156Y-29777869D01*
X15441187Y-30002916D01*
X15486647Y-30168874D01*
X15514187Y-30267038D01*
X15521195Y-30289944D01*
X15509008Y-30356551D01*
X15449490Y-30443053D01*
X15436231Y-30456951D01*
X15328515Y-30564667D01*
X14342341Y-30561983D01*
X14057341Y-30559760D01*
X13797136Y-30554994D01*
X13574875Y-30548145D01*
X13403706Y-30539675D01*
X13296778Y-30530044D01*
X13270030Y-30524385D01*
X13170748Y-30464456D01*
X13100813Y-30366335D01*
X13044833Y-30207705D01*
X13040461Y-30191602D01*
X13005561Y-30066468D01*
X12976491Y-29971257D01*
X12969549Y-29951459D01*
X12980676Y-29882999D01*
X13035394Y-29805940D01*
X13076982Y-29770811D01*
X13129477Y-29746478D01*
X13208002Y-29730985D01*
X13327682Y-29722379D01*
X13503642Y-29718705D01*
X13716000Y-29718000D01*
X13965589Y-29716012D01*
X14139952Y-29709491D01*
X14248448Y-29697601D01*
X14300437Y-29679505D01*
X14308402Y-29665083D01*
X14297810Y-29613065D01*
X14267817Y-29488963D01*
X14220911Y-29302481D01*
X14159577Y-29063325D01*
X14086300Y-28781198D01*
X14003569Y-28465806D01*
X13927402Y-28177812D01*
X13838421Y-27840422D01*
X13756819Y-27526841D01*
X13685096Y-27246995D01*
X13625749Y-27010805D01*
X13581277Y-26828196D01*
X13554177Y-26709091D01*
X13546667Y-26665372D01*
X13585111Y-26564318D01*
X13697338Y-26496959D01*
X13878688Y-26465128D01*
X14054985Y-26465541D01*
G37*
X14054985Y-26465541D02*
X14157586Y-26470904D01*
X14244137Y-26478934D01*
X14317978Y-26496481D01*
X14382447Y-26530398D01*
X14440883Y-26587534D01*
X14496624Y-26674742D01*
X14553009Y-26798874D01*
X14613377Y-26966779D01*
X14681066Y-27185310D01*
X14759416Y-27461318D01*
X14851764Y-27801654D01*
X14961450Y-28213169D01*
X15027338Y-28460910D01*
X15127145Y-28835254D01*
X15220784Y-29185332D01*
X15305904Y-29502439D01*
X15380156Y-29777869D01*
X15441187Y-30002916D01*
X15486647Y-30168874D01*
X15514187Y-30267038D01*
X15521195Y-30289944D01*
X15509008Y-30356551D01*
X15449490Y-30443053D01*
X15436231Y-30456951D01*
X15328515Y-30564667D01*
X14342341Y-30561983D01*
X14057341Y-30559760D01*
X13797136Y-30554994D01*
X13574875Y-30548145D01*
X13403706Y-30539675D01*
X13296778Y-30530044D01*
X13270030Y-30524385D01*
X13170748Y-30464456D01*
X13100813Y-30366335D01*
X13044833Y-30207705D01*
X13040461Y-30191602D01*
X13005561Y-30066468D01*
X12976491Y-29971257D01*
X12969549Y-29951459D01*
X12980676Y-29882999D01*
X13035394Y-29805940D01*
X13076982Y-29770811D01*
X13129477Y-29746478D01*
X13208002Y-29730985D01*
X13327682Y-29722379D01*
X13503642Y-29718705D01*
X13716000Y-29718000D01*
X13965589Y-29716012D01*
X14139952Y-29709491D01*
X14248448Y-29697601D01*
X14300437Y-29679505D01*
X14308402Y-29665083D01*
X14297810Y-29613065D01*
X14267817Y-29488963D01*
X14220911Y-29302481D01*
X14159577Y-29063325D01*
X14086300Y-28781198D01*
X14003569Y-28465806D01*
X13927402Y-28177812D01*
X13838421Y-27840422D01*
X13756819Y-27526841D01*
X13685096Y-27246995D01*
X13625749Y-27010805D01*
X13581277Y-26828196D01*
X13554177Y-26709091D01*
X13546667Y-26665372D01*
X13585111Y-26564318D01*
X13697338Y-26496959D01*
X13878688Y-26465128D01*
X14054985Y-26465541D01*
G36*
X19151188Y-26488646D02*
G01*
X19282771Y-26575117D01*
X19449359Y-26715863D01*
X19656500Y-26908924D01*
X19831415Y-27076085D01*
X19994120Y-27232546D01*
X20130259Y-27364433D01*
X20225476Y-27457872D01*
X20250194Y-27482704D01*
X20342748Y-27557940D01*
X20424074Y-27593082D01*
X20440694Y-27593030D01*
X20487283Y-27550594D01*
X20562192Y-27441397D01*
X20658956Y-27275870D01*
X20771111Y-27064445D01*
X20784039Y-27038975D01*
X20914633Y-26789582D01*
X21023489Y-26612758D01*
X21122079Y-26503190D01*
X21221877Y-26455566D01*
X21334356Y-26464574D01*
X21470989Y-26524902D01*
X21643248Y-26631237D01*
X21652076Y-26637054D01*
X21779379Y-26723323D01*
X21870121Y-26798337D01*
X21924420Y-26874779D01*
X21942397Y-26965329D01*
X21924169Y-27082672D01*
X21869855Y-27239488D01*
X21779576Y-27448461D01*
X21662077Y-27703672D01*
X21557824Y-27932148D01*
X21467368Y-28137516D01*
X21396441Y-28306175D01*
X21350775Y-28424524D01*
X21336000Y-28477403D01*
X21364783Y-28526325D01*
X21445569Y-28625398D01*
X21570011Y-28765388D01*
X21729764Y-28937060D01*
X21916481Y-29131181D01*
X22042967Y-29259604D01*
X22267662Y-29486551D01*
X22439198Y-29662711D01*
X22564676Y-29796772D01*
X22651199Y-29897422D01*
X22705867Y-29973347D01*
X22735782Y-30033235D01*
X22748046Y-30085773D01*
X22749934Y-30124437D01*
X22734288Y-30240834D01*
X22674455Y-30334749D01*
X22603884Y-30400044D01*
X22430631Y-30517838D01*
X22281839Y-30558909D01*
X22196305Y-30545850D01*
X22142341Y-30509046D01*
X22039029Y-30422755D01*
X21897431Y-30296811D01*
X21728612Y-30141047D01*
X21549065Y-29970528D01*
X21364792Y-29797002D01*
X21196782Y-29646044D01*
X21056033Y-29526963D01*
X20953542Y-29449070D01*
X20900714Y-29421667D01*
X20856920Y-29443013D01*
X20800608Y-29512855D01*
X20726368Y-29639898D01*
X20628791Y-29832849D01*
X20573684Y-29948032D01*
X20449266Y-30201718D01*
X20345258Y-30382905D01*
X20251389Y-30498007D01*
X20157389Y-30553440D01*
X20052988Y-30555617D01*
X19927915Y-30510952D01*
X19790834Y-30436965D01*
X19607720Y-30313388D01*
X19473146Y-30188160D01*
X19399262Y-30073809D01*
X19388862Y-30022556D01*
X19406296Y-29961465D01*
X19454369Y-29838652D01*
X19526940Y-29668655D01*
X19617868Y-29466012D01*
X19685195Y-29320933D01*
X19788904Y-29092443D01*
X19875936Y-28885387D01*
X19940312Y-28715122D01*
X19976049Y-28597010D01*
X19981334Y-28560504D01*
X19974216Y-28510999D01*
X19948236Y-28452574D01*
X19896450Y-28376944D01*
X19811913Y-28275824D01*
X19687682Y-28140929D01*
X19516815Y-27963976D01*
X19292367Y-27736679D01*
X19282834Y-27727084D01*
X19039044Y-27480191D01*
X18851548Y-27283815D01*
X18716137Y-27129244D01*
X18628603Y-27007767D01*
X18584738Y-26910669D01*
X18580335Y-26829241D01*
X18611186Y-26754769D01*
X18673083Y-26678541D01*
X18743084Y-26609533D01*
X18850558Y-26516894D01*
X18946673Y-26463334D01*
X19043019Y-26452652D01*
X19151188Y-26488646D01*
G37*
X19151188Y-26488646D02*
X19282771Y-26575117D01*
X19449359Y-26715863D01*
X19656500Y-26908924D01*
X19831415Y-27076085D01*
X19994120Y-27232546D01*
X20130259Y-27364433D01*
X20225476Y-27457872D01*
X20250194Y-27482704D01*
X20342748Y-27557940D01*
X20424074Y-27593082D01*
X20440694Y-27593030D01*
X20487283Y-27550594D01*
X20562192Y-27441397D01*
X20658956Y-27275870D01*
X20771111Y-27064445D01*
X20784039Y-27038975D01*
X20914633Y-26789582D01*
X21023489Y-26612758D01*
X21122079Y-26503190D01*
X21221877Y-26455566D01*
X21334356Y-26464574D01*
X21470989Y-26524902D01*
X21643248Y-26631237D01*
X21652076Y-26637054D01*
X21779379Y-26723323D01*
X21870121Y-26798337D01*
X21924420Y-26874779D01*
X21942397Y-26965329D01*
X21924169Y-27082672D01*
X21869855Y-27239488D01*
X21779576Y-27448461D01*
X21662077Y-27703672D01*
X21557824Y-27932148D01*
X21467368Y-28137516D01*
X21396441Y-28306175D01*
X21350775Y-28424524D01*
X21336000Y-28477403D01*
X21364783Y-28526325D01*
X21445569Y-28625398D01*
X21570011Y-28765388D01*
X21729764Y-28937060D01*
X21916481Y-29131181D01*
X22042967Y-29259604D01*
X22267662Y-29486551D01*
X22439198Y-29662711D01*
X22564676Y-29796772D01*
X22651199Y-29897422D01*
X22705867Y-29973347D01*
X22735782Y-30033235D01*
X22748046Y-30085773D01*
X22749934Y-30124437D01*
X22734288Y-30240834D01*
X22674455Y-30334749D01*
X22603884Y-30400044D01*
X22430631Y-30517838D01*
X22281839Y-30558909D01*
X22196305Y-30545850D01*
X22142341Y-30509046D01*
X22039029Y-30422755D01*
X21897431Y-30296811D01*
X21728612Y-30141047D01*
X21549065Y-29970528D01*
X21364792Y-29797002D01*
X21196782Y-29646044D01*
X21056033Y-29526963D01*
X20953542Y-29449070D01*
X20900714Y-29421667D01*
X20856920Y-29443013D01*
X20800608Y-29512855D01*
X20726368Y-29639898D01*
X20628791Y-29832849D01*
X20573684Y-29948032D01*
X20449266Y-30201718D01*
X20345258Y-30382905D01*
X20251389Y-30498007D01*
X20157389Y-30553440D01*
X20052988Y-30555617D01*
X19927915Y-30510952D01*
X19790834Y-30436965D01*
X19607720Y-30313388D01*
X19473146Y-30188160D01*
X19399262Y-30073809D01*
X19388862Y-30022556D01*
X19406296Y-29961465D01*
X19454369Y-29838652D01*
X19526940Y-29668655D01*
X19617868Y-29466012D01*
X19685195Y-29320933D01*
X19788904Y-29092443D01*
X19875936Y-28885387D01*
X19940312Y-28715122D01*
X19976049Y-28597010D01*
X19981334Y-28560504D01*
X19974216Y-28510999D01*
X19948236Y-28452574D01*
X19896450Y-28376944D01*
X19811913Y-28275824D01*
X19687682Y-28140929D01*
X19516815Y-27963976D01*
X19292367Y-27736679D01*
X19282834Y-27727084D01*
X19039044Y-27480191D01*
X18851548Y-27283815D01*
X18716137Y-27129244D01*
X18628603Y-27007767D01*
X18584738Y-26910669D01*
X18580335Y-26829241D01*
X18611186Y-26754769D01*
X18673083Y-26678541D01*
X18743084Y-26609533D01*
X18850558Y-26516894D01*
X18946673Y-26463334D01*
X19043019Y-26452652D01*
X19151188Y-26488646D01*
G36*
X23067398Y-26461932D02*
G01*
X23357650Y-26464651D01*
X23547029Y-26466808D01*
X24636224Y-26479500D01*
X24739571Y-26585333D01*
X24769021Y-26625352D01*
X24802407Y-26692296D01*
X24841857Y-26793109D01*
X24889501Y-26934732D01*
X24947471Y-27124110D01*
X25017896Y-27368186D01*
X25102906Y-27673903D01*
X25204632Y-28048204D01*
X25317499Y-28469167D01*
X25417674Y-28843982D01*
X25511534Y-29194234D01*
X25596749Y-29511294D01*
X25670989Y-29786533D01*
X25731922Y-30011323D01*
X25777218Y-30177036D01*
X25804547Y-30275043D01*
X25811513Y-30298201D01*
X25797211Y-30359166D01*
X25736844Y-30442760D01*
X25723231Y-30456951D01*
X25615515Y-30564667D01*
X24629341Y-30561983D01*
X24343854Y-30559655D01*
X24082708Y-30554594D01*
X23859165Y-30547293D01*
X23686484Y-30538245D01*
X23577927Y-30527940D01*
X23550385Y-30521927D01*
X23435327Y-30437293D01*
X23343812Y-30282178D01*
X23279343Y-30081572D01*
X23251405Y-29955883D01*
X23251164Y-29882191D01*
X23283182Y-29831047D01*
X23323607Y-29795822D01*
X23373153Y-29764113D01*
X23440061Y-29742229D01*
X23539556Y-29728439D01*
X23686864Y-29721011D01*
X23897209Y-29718212D01*
X24007690Y-29718000D01*
X24256034Y-29716000D01*
X24429237Y-29709434D01*
X24536741Y-29697449D01*
X24587991Y-29679192D01*
X24595667Y-29664948D01*
X24581521Y-29565172D01*
X24544936Y-29424608D01*
X24494689Y-29268719D01*
X24439556Y-29122966D01*
X24388316Y-29012811D01*
X24354927Y-28966583D01*
X24268669Y-28938181D01*
X24105114Y-28920310D01*
X23871061Y-28913690D01*
X23854122Y-28913667D01*
X23656545Y-28912120D01*
X23524600Y-28905080D01*
X23439272Y-28888948D01*
X23381546Y-28860124D01*
X23332407Y-28815008D01*
X23332290Y-28814883D01*
X23271090Y-28717363D01*
X23215045Y-28574757D01*
X23189889Y-28479636D01*
X23163862Y-28329954D01*
X23167126Y-28227048D01*
X23210970Y-28162227D01*
X23306681Y-28126798D01*
X23465549Y-28112071D01*
X23670846Y-28109333D01*
X23871835Y-28106758D01*
X24002733Y-28097649D01*
X24077998Y-28079928D01*
X24112087Y-28051520D01*
X24114792Y-28045571D01*
X24118909Y-27958839D01*
X24096123Y-27822416D01*
X24054448Y-27663746D01*
X24001894Y-27510272D01*
X23946472Y-27389436D01*
X23907860Y-27336750D01*
X23862828Y-27306793D01*
X23797148Y-27285997D01*
X23696294Y-27272791D01*
X23545735Y-27265604D01*
X23330944Y-27262867D01*
X23222523Y-27262667D01*
X22958544Y-27260591D01*
X22765297Y-27249837D01*
X22628868Y-27223612D01*
X22535344Y-27175123D01*
X22470812Y-27097579D01*
X22421356Y-26984187D01*
X22379825Y-26851286D01*
X22344517Y-26719639D01*
X22336924Y-26639300D01*
X22357665Y-26581361D01*
X22386439Y-26542261D01*
X22410975Y-26515459D01*
X22442619Y-26494881D01*
X22491656Y-26479856D01*
X22568369Y-26469718D01*
X22683041Y-26463796D01*
X22845956Y-26461424D01*
X23067398Y-26461932D01*
G37*
X23067398Y-26461932D02*
X23357650Y-26464651D01*
X23547029Y-26466808D01*
X24636224Y-26479500D01*
X24739571Y-26585333D01*
X24769021Y-26625352D01*
X24802407Y-26692296D01*
X24841857Y-26793109D01*
X24889501Y-26934732D01*
X24947471Y-27124110D01*
X25017896Y-27368186D01*
X25102906Y-27673903D01*
X25204632Y-28048204D01*
X25317499Y-28469167D01*
X25417674Y-28843982D01*
X25511534Y-29194234D01*
X25596749Y-29511294D01*
X25670989Y-29786533D01*
X25731922Y-30011323D01*
X25777218Y-30177036D01*
X25804547Y-30275043D01*
X25811513Y-30298201D01*
X25797211Y-30359166D01*
X25736844Y-30442760D01*
X25723231Y-30456951D01*
X25615515Y-30564667D01*
X24629341Y-30561983D01*
X24343854Y-30559655D01*
X24082708Y-30554594D01*
X23859165Y-30547293D01*
X23686484Y-30538245D01*
X23577927Y-30527940D01*
X23550385Y-30521927D01*
X23435327Y-30437293D01*
X23343812Y-30282178D01*
X23279343Y-30081572D01*
X23251405Y-29955883D01*
X23251164Y-29882191D01*
X23283182Y-29831047D01*
X23323607Y-29795822D01*
X23373153Y-29764113D01*
X23440061Y-29742229D01*
X23539556Y-29728439D01*
X23686864Y-29721011D01*
X23897209Y-29718212D01*
X24007690Y-29718000D01*
X24256034Y-29716000D01*
X24429237Y-29709434D01*
X24536741Y-29697449D01*
X24587991Y-29679192D01*
X24595667Y-29664948D01*
X24581521Y-29565172D01*
X24544936Y-29424608D01*
X24494689Y-29268719D01*
X24439556Y-29122966D01*
X24388316Y-29012811D01*
X24354927Y-28966583D01*
X24268669Y-28938181D01*
X24105114Y-28920310D01*
X23871061Y-28913690D01*
X23854122Y-28913667D01*
X23656545Y-28912120D01*
X23524600Y-28905080D01*
X23439272Y-28888948D01*
X23381546Y-28860124D01*
X23332407Y-28815008D01*
X23332290Y-28814883D01*
X23271090Y-28717363D01*
X23215045Y-28574757D01*
X23189889Y-28479636D01*
X23163862Y-28329954D01*
X23167126Y-28227048D01*
X23210970Y-28162227D01*
X23306681Y-28126798D01*
X23465549Y-28112071D01*
X23670846Y-28109333D01*
X23871835Y-28106758D01*
X24002733Y-28097649D01*
X24077998Y-28079928D01*
X24112087Y-28051520D01*
X24114792Y-28045571D01*
X24118909Y-27958839D01*
X24096123Y-27822416D01*
X24054448Y-27663746D01*
X24001894Y-27510272D01*
X23946472Y-27389436D01*
X23907860Y-27336750D01*
X23862828Y-27306793D01*
X23797148Y-27285997D01*
X23696294Y-27272791D01*
X23545735Y-27265604D01*
X23330944Y-27262867D01*
X23222523Y-27262667D01*
X22958544Y-27260591D01*
X22765297Y-27249837D01*
X22628868Y-27223612D01*
X22535344Y-27175123D01*
X22470812Y-27097579D01*
X22421356Y-26984187D01*
X22379825Y-26851286D01*
X22344517Y-26719639D01*
X22336924Y-26639300D01*
X22357665Y-26581361D01*
X22386439Y-26542261D01*
X22410975Y-26515459D01*
X22442619Y-26494881D01*
X22491656Y-26479856D01*
X22568369Y-26469718D01*
X22683041Y-26463796D01*
X22845956Y-26461424D01*
X23067398Y-26461932D01*
G36*
X-10960442Y-26452097D02*
G01*
X-10880423Y-26468390D01*
X-10822778Y-26500395D01*
X-10774070Y-26544687D01*
X-10744414Y-26583731D01*
X-10711320Y-26648270D01*
X-10672589Y-26745423D01*
X-10626024Y-26882312D01*
X-10569427Y-27066055D01*
X-10500601Y-27303772D01*
X-10417345Y-27602585D01*
X-10317464Y-27969612D01*
X-10206095Y-28384511D01*
X-10106465Y-28757563D01*
X-10012873Y-29108417D01*
X-9927751Y-29427925D01*
X-9853531Y-29706940D01*
X-9792646Y-29936315D01*
X-9747528Y-30106902D01*
X-9720609Y-30209553D01*
X-9714643Y-30232915D01*
X-9715570Y-30362764D01*
X-9791595Y-30454166D01*
X-9942896Y-30507238D01*
X-10140935Y-30522333D01*
X-10369656Y-30507746D01*
X-10532888Y-30458791D01*
X-10645531Y-30367681D01*
X-10722485Y-30226627D01*
X-10726324Y-30216318D01*
X-10756494Y-30122052D01*
X-10803521Y-29960717D01*
X-10863246Y-29747261D01*
X-10931508Y-29496633D01*
X-11004148Y-29223778D01*
X-11029957Y-29125333D01*
X-11114638Y-28804517D01*
X-11182287Y-28557963D01*
X-11235754Y-28377633D01*
X-11277889Y-28255490D01*
X-11311542Y-28183496D01*
X-11339564Y-28153614D01*
X-11364806Y-28157807D01*
X-11371121Y-28163343D01*
X-11389811Y-28209525D01*
X-11428998Y-28326325D01*
X-11485351Y-28503117D01*
X-11555538Y-28729275D01*
X-11636228Y-28994173D01*
X-11724088Y-29287185D01*
X-11735135Y-29324337D01*
X-11824494Y-29620475D01*
X-11908474Y-29890001D01*
X-11983528Y-30122218D01*
X-12046112Y-30306430D01*
X-12092680Y-30431941D01*
X-12119686Y-30488055D01*
X-12121391Y-30489584D01*
X-12192065Y-30506662D01*
X-12322518Y-30516658D01*
X-12488193Y-30519923D01*
X-12664530Y-30516810D01*
X-12826970Y-30507671D01*
X-12950953Y-30492857D01*
X-13006397Y-30476900D01*
X-13086255Y-30404769D01*
X-13127134Y-30345898D01*
X-13147667Y-30287471D01*
X-13187332Y-30155979D01*
X-13243673Y-29960224D01*
X-13314232Y-29709009D01*
X-13396551Y-29411136D01*
X-13488174Y-29075407D01*
X-13586642Y-28710625D01*
X-13655286Y-28454106D01*
X-13777463Y-27997232D01*
X-13879060Y-27615710D01*
X-13960125Y-27302780D01*
X-14020705Y-27051678D01*
X-14060849Y-26855643D01*
X-14080605Y-26707911D01*
X-14080020Y-26601722D01*
X-14059143Y-26530313D01*
X-14018021Y-26486921D01*
X-13956702Y-26464785D01*
X-13875234Y-26457142D01*
X-13773666Y-26457230D01*
X-13669434Y-26458333D01*
X-13525346Y-26459669D01*
X-13409011Y-26469385D01*
X-13314705Y-26496047D01*
X-13236700Y-26548219D01*
X-13169271Y-26634467D01*
X-13106692Y-26763354D01*
X-13043238Y-26943447D01*
X-12973181Y-27183309D01*
X-12890796Y-27491506D01*
X-12834529Y-27707167D01*
X-12740324Y-28066626D01*
X-12664190Y-28351233D01*
X-12603861Y-28568323D01*
X-12557075Y-28725233D01*
X-12521569Y-28829300D01*
X-12495078Y-28887858D01*
X-12475340Y-28908246D01*
X-12465093Y-28904538D01*
X-12448507Y-28860263D01*
X-12411561Y-28745092D01*
X-12357429Y-28569460D01*
X-12289285Y-28343802D01*
X-12210302Y-28078553D01*
X-12123654Y-27784148D01*
X-12106501Y-27725486D01*
X-12017329Y-27424525D01*
X-11933265Y-27148958D01*
X-11857810Y-26909629D01*
X-11794462Y-26717378D01*
X-11746723Y-26583049D01*
X-11718092Y-26517483D01*
X-11715406Y-26513985D01*
X-11644007Y-26485662D01*
X-11500779Y-26464343D01*
X-11298399Y-26451823D01*
X-11270536Y-26450992D01*
X-11083569Y-26447602D01*
X-10960442Y-26452097D01*
G37*
X-10960442Y-26452097D02*
X-10880423Y-26468390D01*
X-10822778Y-26500395D01*
X-10774070Y-26544687D01*
X-10744414Y-26583731D01*
X-10711320Y-26648270D01*
X-10672589Y-26745423D01*
X-10626024Y-26882312D01*
X-10569427Y-27066055D01*
X-10500601Y-27303772D01*
X-10417345Y-27602585D01*
X-10317464Y-27969612D01*
X-10206095Y-28384511D01*
X-10106465Y-28757563D01*
X-10012873Y-29108417D01*
X-9927751Y-29427925D01*
X-9853531Y-29706940D01*
X-9792646Y-29936315D01*
X-9747528Y-30106902D01*
X-9720609Y-30209553D01*
X-9714643Y-30232915D01*
X-9715570Y-30362764D01*
X-9791595Y-30454166D01*
X-9942896Y-30507238D01*
X-10140935Y-30522333D01*
X-10369656Y-30507746D01*
X-10532888Y-30458791D01*
X-10645531Y-30367681D01*
X-10722485Y-30226627D01*
X-10726324Y-30216318D01*
X-10756494Y-30122052D01*
X-10803521Y-29960717D01*
X-10863246Y-29747261D01*
X-10931508Y-29496633D01*
X-11004148Y-29223778D01*
X-11029957Y-29125333D01*
X-11114638Y-28804517D01*
X-11182287Y-28557963D01*
X-11235754Y-28377633D01*
X-11277889Y-28255490D01*
X-11311542Y-28183496D01*
X-11339564Y-28153614D01*
X-11364806Y-28157807D01*
X-11371121Y-28163343D01*
X-11389811Y-28209525D01*
X-11428998Y-28326325D01*
X-11485351Y-28503117D01*
X-11555538Y-28729275D01*
X-11636228Y-28994173D01*
X-11724088Y-29287185D01*
X-11735135Y-29324337D01*
X-11824494Y-29620475D01*
X-11908474Y-29890001D01*
X-11983528Y-30122218D01*
X-12046112Y-30306430D01*
X-12092680Y-30431941D01*
X-12119686Y-30488055D01*
X-12121391Y-30489584D01*
X-12192065Y-30506662D01*
X-12322518Y-30516658D01*
X-12488193Y-30519923D01*
X-12664530Y-30516810D01*
X-12826970Y-30507671D01*
X-12950953Y-30492857D01*
X-13006397Y-30476900D01*
X-13086255Y-30404769D01*
X-13127134Y-30345898D01*
X-13147667Y-30287471D01*
X-13187332Y-30155979D01*
X-13243673Y-29960224D01*
X-13314232Y-29709009D01*
X-13396551Y-29411136D01*
X-13488174Y-29075407D01*
X-13586642Y-28710625D01*
X-13655286Y-28454106D01*
X-13777463Y-27997232D01*
X-13879060Y-27615710D01*
X-13960125Y-27302780D01*
X-14020705Y-27051678D01*
X-14060849Y-26855643D01*
X-14080605Y-26707911D01*
X-14080020Y-26601722D01*
X-14059143Y-26530313D01*
X-14018021Y-26486921D01*
X-13956702Y-26464785D01*
X-13875234Y-26457142D01*
X-13773666Y-26457230D01*
X-13669434Y-26458333D01*
X-13525346Y-26459669D01*
X-13409011Y-26469385D01*
X-13314705Y-26496047D01*
X-13236700Y-26548219D01*
X-13169271Y-26634467D01*
X-13106692Y-26763354D01*
X-13043238Y-26943447D01*
X-12973181Y-27183309D01*
X-12890796Y-27491506D01*
X-12834529Y-27707167D01*
X-12740324Y-28066626D01*
X-12664190Y-28351233D01*
X-12603861Y-28568323D01*
X-12557075Y-28725233D01*
X-12521569Y-28829300D01*
X-12495078Y-28887858D01*
X-12475340Y-28908246D01*
X-12465093Y-28904538D01*
X-12448507Y-28860263D01*
X-12411561Y-28745092D01*
X-12357429Y-28569460D01*
X-12289285Y-28343802D01*
X-12210302Y-28078553D01*
X-12123654Y-27784148D01*
X-12106501Y-27725486D01*
X-12017329Y-27424525D01*
X-11933265Y-27148958D01*
X-11857810Y-26909629D01*
X-11794462Y-26717378D01*
X-11746723Y-26583049D01*
X-11718092Y-26517483D01*
X-11715406Y-26513985D01*
X-11644007Y-26485662D01*
X-11500779Y-26464343D01*
X-11298399Y-26451823D01*
X-11270536Y-26450992D01*
X-11083569Y-26447602D01*
X-10960442Y-26452097D01*
G36*
X-4584281Y-26461371D02*
G01*
X-4505063Y-26475228D01*
X-4436127Y-26506252D01*
X-4374084Y-26561150D01*
X-4315545Y-26646626D01*
X-4257120Y-26769388D01*
X-4195420Y-26936142D01*
X-4127057Y-27153594D01*
X-4048642Y-27428450D01*
X-3956785Y-27767417D01*
X-3848098Y-28177201D01*
X-3770934Y-28469167D01*
X-3671986Y-28844853D01*
X-3580148Y-29196744D01*
X-3497640Y-29516086D01*
X-3426687Y-29794125D01*
X-3369513Y-30022108D01*
X-3328339Y-30191282D01*
X-3305390Y-30292893D01*
X-3301290Y-30318226D01*
X-3325308Y-30413241D01*
X-3401693Y-30476029D01*
X-3540315Y-30510935D01*
X-3751042Y-30522304D01*
X-3764918Y-30522333D01*
X-3937402Y-30519436D01*
X-4049262Y-30506910D01*
X-4124448Y-30479008D01*
X-4186913Y-30429979D01*
X-4198975Y-30418146D01*
X-4228296Y-30379564D01*
X-4261030Y-30315793D01*
X-4299340Y-30219787D01*
X-4345395Y-30084495D01*
X-4401360Y-29902870D01*
X-4469401Y-29667864D01*
X-4551685Y-29372426D01*
X-4650378Y-29009510D01*
X-4767645Y-28572066D01*
X-4776247Y-28539817D01*
X-4876087Y-28162924D01*
X-4968756Y-27808319D01*
X-5051992Y-27485006D01*
X-5123535Y-27201985D01*
X-5181125Y-26968262D01*
X-5222501Y-26792837D01*
X-5245401Y-26684715D01*
X-5249333Y-26655826D01*
X-5229038Y-26564981D01*
X-5160812Y-26504974D01*
X-5033648Y-26471103D01*
X-4836538Y-26458663D01*
X-4787117Y-26458333D01*
X-4677169Y-26457975D01*
X-4584281Y-26461371D01*
G37*
X-4584281Y-26461371D02*
X-4505063Y-26475228D01*
X-4436127Y-26506252D01*
X-4374084Y-26561150D01*
X-4315545Y-26646626D01*
X-4257120Y-26769388D01*
X-4195420Y-26936142D01*
X-4127057Y-27153594D01*
X-4048642Y-27428450D01*
X-3956785Y-27767417D01*
X-3848098Y-28177201D01*
X-3770934Y-28469167D01*
X-3671986Y-28844853D01*
X-3580148Y-29196744D01*
X-3497640Y-29516086D01*
X-3426687Y-29794125D01*
X-3369513Y-30022108D01*
X-3328339Y-30191282D01*
X-3305390Y-30292893D01*
X-3301290Y-30318226D01*
X-3325308Y-30413241D01*
X-3401693Y-30476029D01*
X-3540315Y-30510935D01*
X-3751042Y-30522304D01*
X-3764918Y-30522333D01*
X-3937402Y-30519436D01*
X-4049262Y-30506910D01*
X-4124448Y-30479008D01*
X-4186913Y-30429979D01*
X-4198975Y-30418146D01*
X-4228296Y-30379564D01*
X-4261030Y-30315793D01*
X-4299340Y-30219787D01*
X-4345395Y-30084495D01*
X-4401360Y-29902870D01*
X-4469401Y-29667864D01*
X-4551685Y-29372426D01*
X-4650378Y-29009510D01*
X-4767645Y-28572066D01*
X-4776247Y-28539817D01*
X-4876087Y-28162924D01*
X-4968756Y-27808319D01*
X-5051992Y-27485006D01*
X-5123535Y-27201985D01*
X-5181125Y-26968262D01*
X-5222501Y-26792837D01*
X-5245401Y-26684715D01*
X-5249333Y-26655826D01*
X-5229038Y-26564981D01*
X-5160812Y-26504974D01*
X-5033648Y-26471103D01*
X-4836538Y-26458663D01*
X-4787117Y-26458333D01*
X-4677169Y-26457975D01*
X-4584281Y-26461371D01*
G36*
X-2086251Y-26458419D02*
G01*
X-1767614Y-26460134D01*
X-1515977Y-26465668D01*
X-1322507Y-26477210D01*
X-1178370Y-26496949D01*
X-1074735Y-26527073D01*
X-1002767Y-26569771D01*
X-953636Y-26627233D01*
X-918508Y-26701647D01*
X-888549Y-26795202D01*
X-870570Y-26857352D01*
X-829854Y-26998611D01*
X-811336Y-27081577D01*
X-815035Y-27129666D01*
X-840971Y-27166294D01*
X-870857Y-27196143D01*
X-931807Y-27231888D01*
X-1037655Y-27252959D01*
X-1204700Y-27261908D01*
X-1295519Y-27262667D01*
X-1485471Y-27266684D01*
X-1604052Y-27280079D01*
X-1664237Y-27304867D01*
X-1676357Y-27321821D01*
X-1671101Y-27375102D01*
X-1646114Y-27500570D01*
X-1603679Y-27688656D01*
X-1546080Y-27929791D01*
X-1475602Y-28214407D01*
X-1394528Y-28532937D01*
X-1307731Y-28865990D01*
X-1205679Y-29253865D01*
X-1123675Y-29568210D01*
X-1060059Y-29817329D01*
X-1013173Y-30009528D01*
X-981356Y-30153115D01*
X-962950Y-30256393D01*
X-956295Y-30327670D01*
X-959731Y-30375250D01*
X-971600Y-30407440D01*
X-990241Y-30432546D01*
X-993931Y-30436669D01*
X-1048685Y-30481937D01*
X-1125640Y-30508133D01*
X-1246905Y-30519990D01*
X-1394142Y-30522333D01*
X-1621477Y-30511631D01*
X-1768461Y-30479643D01*
X-1805079Y-30460519D01*
X-1886896Y-30374448D01*
X-1940279Y-30280603D01*
X-1959090Y-30220389D01*
X-1995866Y-30091705D01*
X-2047505Y-29906110D01*
X-2110905Y-29675165D01*
X-2182964Y-29410428D01*
X-2260580Y-29123459D01*
X-2340651Y-28825818D01*
X-2420076Y-28529065D01*
X-2495751Y-28244758D01*
X-2564576Y-27984459D01*
X-2623449Y-27759726D01*
X-2669267Y-27582119D01*
X-2698928Y-27463197D01*
X-2709333Y-27414640D01*
X-2735530Y-27373417D01*
X-2775857Y-27329190D01*
X-2837375Y-27293226D01*
X-2944285Y-27272129D01*
X-3112888Y-27263325D01*
X-3196830Y-27262667D01*
X-3378512Y-27259783D01*
X-3498279Y-27247998D01*
X-3578777Y-27222609D01*
X-3642653Y-27178913D01*
X-3655589Y-27167417D01*
X-3740692Y-27057389D01*
X-3810887Y-26909856D01*
X-3857085Y-26753388D01*
X-3870198Y-26616552D01*
X-3853513Y-26545205D01*
X-3838016Y-26520983D01*
X-3814291Y-26501739D01*
X-3773296Y-26486901D01*
X-3705987Y-26475897D01*
X-3603323Y-26468155D01*
X-3456259Y-26463102D01*
X-3255755Y-26460166D01*
X-2992766Y-26458775D01*
X-2658250Y-26458357D01*
X-2480719Y-26458333D01*
X-2086251Y-26458419D01*
G37*
X-2086251Y-26458419D02*
X-1767614Y-26460134D01*
X-1515977Y-26465668D01*
X-1322507Y-26477210D01*
X-1178370Y-26496949D01*
X-1074735Y-26527073D01*
X-1002767Y-26569771D01*
X-953636Y-26627233D01*
X-918508Y-26701647D01*
X-888549Y-26795202D01*
X-870570Y-26857352D01*
X-829854Y-26998611D01*
X-811336Y-27081577D01*
X-815035Y-27129666D01*
X-840971Y-27166294D01*
X-870857Y-27196143D01*
X-931807Y-27231888D01*
X-1037655Y-27252959D01*
X-1204700Y-27261908D01*
X-1295519Y-27262667D01*
X-1485471Y-27266684D01*
X-1604052Y-27280079D01*
X-1664237Y-27304867D01*
X-1676357Y-27321821D01*
X-1671101Y-27375102D01*
X-1646114Y-27500570D01*
X-1603679Y-27688656D01*
X-1546080Y-27929791D01*
X-1475602Y-28214407D01*
X-1394528Y-28532937D01*
X-1307731Y-28865990D01*
X-1205679Y-29253865D01*
X-1123675Y-29568210D01*
X-1060059Y-29817329D01*
X-1013173Y-30009528D01*
X-981356Y-30153115D01*
X-962950Y-30256393D01*
X-956295Y-30327670D01*
X-959731Y-30375250D01*
X-971600Y-30407440D01*
X-990241Y-30432546D01*
X-993931Y-30436669D01*
X-1048685Y-30481937D01*
X-1125640Y-30508133D01*
X-1246905Y-30519990D01*
X-1394142Y-30522333D01*
X-1621477Y-30511631D01*
X-1768461Y-30479643D01*
X-1805079Y-30460519D01*
X-1886896Y-30374448D01*
X-1940279Y-30280603D01*
X-1959090Y-30220389D01*
X-1995866Y-30091705D01*
X-2047505Y-29906110D01*
X-2110905Y-29675165D01*
X-2182964Y-29410428D01*
X-2260580Y-29123459D01*
X-2340651Y-28825818D01*
X-2420076Y-28529065D01*
X-2495751Y-28244758D01*
X-2564576Y-27984459D01*
X-2623449Y-27759726D01*
X-2669267Y-27582119D01*
X-2698928Y-27463197D01*
X-2709333Y-27414640D01*
X-2735530Y-27373417D01*
X-2775857Y-27329190D01*
X-2837375Y-27293226D01*
X-2944285Y-27272129D01*
X-3112888Y-27263325D01*
X-3196830Y-27262667D01*
X-3378512Y-27259783D01*
X-3498279Y-27247998D01*
X-3578777Y-27222609D01*
X-3642653Y-27178913D01*
X-3655589Y-27167417D01*
X-3740692Y-27057389D01*
X-3810887Y-26909856D01*
X-3857085Y-26753388D01*
X-3870198Y-26616552D01*
X-3853513Y-26545205D01*
X-3838016Y-26520983D01*
X-3814291Y-26501739D01*
X-3773296Y-26486901D01*
X-3705987Y-26475897D01*
X-3603323Y-26468155D01*
X-3456259Y-26463102D01*
X-3255755Y-26460166D01*
X-2992766Y-26458775D01*
X-2658250Y-26458357D01*
X-2480719Y-26458333D01*
X-2086251Y-26458419D01*
G36*
X3957367Y-26434848D02*
G01*
X4146439Y-26497484D01*
X4298388Y-26613046D01*
X4389724Y-26725068D01*
X4448284Y-26808564D01*
X4547044Y-26949857D01*
X4677839Y-27137249D01*
X4832507Y-27359039D01*
X5002886Y-27603530D01*
X5142415Y-27803869D01*
X5312827Y-28045631D01*
X5469138Y-28261719D01*
X5604498Y-28443117D01*
X5712058Y-28580810D01*
X5784967Y-28665783D01*
X5815418Y-28689694D01*
X5834424Y-28645487D01*
X5864303Y-28528894D01*
X5902736Y-28351164D01*
X5947405Y-28123542D01*
X5995989Y-27857278D01*
X6040325Y-27598833D01*
X6099081Y-27252820D01*
X6147793Y-26982100D01*
X6188380Y-26778148D01*
X6222763Y-26632439D01*
X6252860Y-26536449D01*
X6280592Y-26481654D01*
X6295384Y-26466096D01*
X6366777Y-26436833D01*
X6491073Y-26422601D01*
X6681456Y-26422246D01*
X6763790Y-26425090D01*
X6954356Y-26435188D01*
X7081127Y-26450054D01*
X7164973Y-26474733D01*
X7226767Y-26514272D01*
X7259733Y-26545002D01*
X7288629Y-26583557D01*
X7321280Y-26648094D01*
X7359792Y-26745494D01*
X7406271Y-26882636D01*
X7462822Y-27066402D01*
X7531550Y-27303670D01*
X7614562Y-27601322D01*
X7713964Y-27966236D01*
X7831859Y-28405294D01*
X7851041Y-28477118D01*
X7951675Y-28857725D01*
X8044169Y-29214480D01*
X8126430Y-29538804D01*
X8196366Y-29822118D01*
X8251886Y-30055840D01*
X8290898Y-30231392D01*
X8311309Y-30340194D01*
X8313201Y-30372711D01*
X8255631Y-30448658D01*
X8210469Y-30481176D01*
X8103697Y-30509988D01*
X7946492Y-30521254D01*
X7771041Y-30515939D01*
X7609530Y-30495008D01*
X7494743Y-30459735D01*
X7444373Y-30428465D01*
X7399878Y-30384635D01*
X7357600Y-30318621D01*
X7313885Y-30220801D01*
X7265075Y-30081552D01*
X7207515Y-29891252D01*
X7137549Y-29640278D01*
X7051519Y-29319008D01*
X7029075Y-29234157D01*
X6961528Y-28984346D01*
X6898402Y-28761843D01*
X6843720Y-28579981D01*
X6801506Y-28452094D01*
X6775783Y-28391516D01*
X6774207Y-28389607D01*
X6736330Y-28370488D01*
X6731000Y-28392273D01*
X6725486Y-28454568D01*
X6710513Y-28582978D01*
X6688437Y-28759781D01*
X6661613Y-28967253D01*
X6632396Y-29187673D01*
X6603142Y-29403316D01*
X6576206Y-29596461D01*
X6553944Y-29749384D01*
X6538710Y-29844363D01*
X6536474Y-29856019D01*
X6496056Y-29966905D01*
X6449350Y-30035935D01*
X6361089Y-30077633D01*
X6223528Y-30097097D01*
X6069063Y-30094327D01*
X5930093Y-30069320D01*
X5855515Y-30035968D01*
X5806562Y-29983559D01*
X5718969Y-29871427D01*
X5600706Y-29710528D01*
X5459746Y-29511821D01*
X5304058Y-29286262D01*
X5222466Y-29165772D01*
X5067835Y-28938253D01*
X4929261Y-28738782D01*
X4813443Y-28576634D01*
X4727074Y-28461087D01*
X4676852Y-28401416D01*
X4666904Y-28396122D01*
X4674010Y-28446113D01*
X4700804Y-28565600D01*
X4744276Y-28742511D01*
X4801419Y-28964773D01*
X4869223Y-29220315D01*
X4907486Y-29361568D01*
X4988632Y-29660063D01*
X5049241Y-29887956D01*
X5091199Y-30056290D01*
X5116394Y-30176104D01*
X5126712Y-30258441D01*
X5124042Y-30314343D01*
X5110269Y-30354850D01*
X5087281Y-30391004D01*
X5084166Y-30395333D01*
X5032486Y-30452913D01*
X4965364Y-30486689D01*
X4858644Y-30504347D01*
X4715797Y-30512540D01*
X4534415Y-30512941D01*
X4407317Y-30493899D01*
X4305385Y-30450546D01*
X4290030Y-30441377D01*
X4194407Y-30366313D01*
X4135819Y-30290779D01*
X4132401Y-30281837D01*
X4082688Y-30113966D01*
X4020069Y-29891189D01*
X3947111Y-29623614D01*
X3866383Y-29321343D01*
X3780451Y-28994484D01*
X3691882Y-28653140D01*
X3603245Y-28307417D01*
X3517106Y-27967419D01*
X3436034Y-27643253D01*
X3362595Y-27345023D01*
X3299357Y-27082833D01*
X3248887Y-26866790D01*
X3213753Y-26706998D01*
X3196523Y-26613562D01*
X3195523Y-26594419D01*
X3247272Y-26507932D01*
X3357076Y-26451495D01*
X3533617Y-26422104D01*
X3711108Y-26416000D01*
X3957367Y-26434848D01*
G37*
X3957367Y-26434848D02*
X4146439Y-26497484D01*
X4298388Y-26613046D01*
X4389724Y-26725068D01*
X4448284Y-26808564D01*
X4547044Y-26949857D01*
X4677839Y-27137249D01*
X4832507Y-27359039D01*
X5002886Y-27603530D01*
X5142415Y-27803869D01*
X5312827Y-28045631D01*
X5469138Y-28261719D01*
X5604498Y-28443117D01*
X5712058Y-28580810D01*
X5784967Y-28665783D01*
X5815418Y-28689694D01*
X5834424Y-28645487D01*
X5864303Y-28528894D01*
X5902736Y-28351164D01*
X5947405Y-28123542D01*
X5995989Y-27857278D01*
X6040325Y-27598833D01*
X6099081Y-27252820D01*
X6147793Y-26982100D01*
X6188380Y-26778148D01*
X6222763Y-26632439D01*
X6252860Y-26536449D01*
X6280592Y-26481654D01*
X6295384Y-26466096D01*
X6366777Y-26436833D01*
X6491073Y-26422601D01*
X6681456Y-26422246D01*
X6763790Y-26425090D01*
X6954356Y-26435188D01*
X7081127Y-26450054D01*
X7164973Y-26474733D01*
X7226767Y-26514272D01*
X7259733Y-26545002D01*
X7288629Y-26583557D01*
X7321280Y-26648094D01*
X7359792Y-26745494D01*
X7406271Y-26882636D01*
X7462822Y-27066402D01*
X7531550Y-27303670D01*
X7614562Y-27601322D01*
X7713964Y-27966236D01*
X7831859Y-28405294D01*
X7851041Y-28477118D01*
X7951675Y-28857725D01*
X8044169Y-29214480D01*
X8126430Y-29538804D01*
X8196366Y-29822118D01*
X8251886Y-30055840D01*
X8290898Y-30231392D01*
X8311309Y-30340194D01*
X8313201Y-30372711D01*
X8255631Y-30448658D01*
X8210469Y-30481176D01*
X8103697Y-30509988D01*
X7946492Y-30521254D01*
X7771041Y-30515939D01*
X7609530Y-30495008D01*
X7494743Y-30459735D01*
X7444373Y-30428465D01*
X7399878Y-30384635D01*
X7357600Y-30318621D01*
X7313885Y-30220801D01*
X7265075Y-30081552D01*
X7207515Y-29891252D01*
X7137549Y-29640278D01*
X7051519Y-29319008D01*
X7029075Y-29234157D01*
X6961528Y-28984346D01*
X6898402Y-28761843D01*
X6843720Y-28579981D01*
X6801506Y-28452094D01*
X6775783Y-28391516D01*
X6774207Y-28389607D01*
X6736330Y-28370488D01*
X6731000Y-28392273D01*
X6725486Y-28454568D01*
X6710513Y-28582978D01*
X6688437Y-28759781D01*
X6661613Y-28967253D01*
X6632396Y-29187673D01*
X6603142Y-29403316D01*
X6576206Y-29596461D01*
X6553944Y-29749384D01*
X6538710Y-29844363D01*
X6536474Y-29856019D01*
X6496056Y-29966905D01*
X6449350Y-30035935D01*
X6361089Y-30077633D01*
X6223528Y-30097097D01*
X6069063Y-30094327D01*
X5930093Y-30069320D01*
X5855515Y-30035968D01*
X5806562Y-29983559D01*
X5718969Y-29871427D01*
X5600706Y-29710528D01*
X5459746Y-29511821D01*
X5304058Y-29286262D01*
X5222466Y-29165772D01*
X5067835Y-28938253D01*
X4929261Y-28738782D01*
X4813443Y-28576634D01*
X4727074Y-28461087D01*
X4676852Y-28401416D01*
X4666904Y-28396122D01*
X4674010Y-28446113D01*
X4700804Y-28565600D01*
X4744276Y-28742511D01*
X4801419Y-28964773D01*
X4869223Y-29220315D01*
X4907486Y-29361568D01*
X4988632Y-29660063D01*
X5049241Y-29887956D01*
X5091199Y-30056290D01*
X5116394Y-30176104D01*
X5126712Y-30258441D01*
X5124042Y-30314343D01*
X5110269Y-30354850D01*
X5087281Y-30391004D01*
X5084166Y-30395333D01*
X5032486Y-30452913D01*
X4965364Y-30486689D01*
X4858644Y-30504347D01*
X4715797Y-30512540D01*
X4534415Y-30512941D01*
X4407317Y-30493899D01*
X4305385Y-30450546D01*
X4290030Y-30441377D01*
X4194407Y-30366313D01*
X4135819Y-30290779D01*
X4132401Y-30281837D01*
X4082688Y-30113966D01*
X4020069Y-29891189D01*
X3947111Y-29623614D01*
X3866383Y-29321343D01*
X3780451Y-28994484D01*
X3691882Y-28653140D01*
X3603245Y-28307417D01*
X3517106Y-27967419D01*
X3436034Y-27643253D01*
X3362595Y-27345023D01*
X3299357Y-27082833D01*
X3248887Y-26866790D01*
X3213753Y-26706998D01*
X3196523Y-26613562D01*
X3195523Y-26594419D01*
X3247272Y-26507932D01*
X3357076Y-26451495D01*
X3533617Y-26422104D01*
X3711108Y-26416000D01*
X3957367Y-26434848D01*
G36*
X-17993480Y-28082135D02*
G01*
X-17887461Y-28108650D01*
X-17881581Y-28111609D01*
X-17778217Y-28196619D01*
X-17672989Y-28328975D01*
X-17584832Y-28478987D01*
X-17532684Y-28616967D01*
X-17526000Y-28669084D01*
X-17542280Y-28760070D01*
X-17606299Y-28820594D01*
X-17672807Y-28852327D01*
X-17770517Y-28890930D01*
X-17827331Y-28909167D01*
X-17831557Y-28909333D01*
X-17876445Y-28897851D01*
X-17971480Y-28875192D01*
X-17991666Y-28870474D01*
X-18113746Y-28815195D01*
X-18238837Y-28714961D01*
X-18355043Y-28586659D01*
X-18450466Y-28447175D01*
X-18513209Y-28313398D01*
X-18531376Y-28202216D01*
X-18505726Y-28140792D01*
X-18426178Y-28104307D01*
X-18293708Y-28081406D01*
X-18139186Y-28073535D01*
X-17993480Y-28082135D01*
G37*
X-17993480Y-28082135D02*
X-17887461Y-28108650D01*
X-17881581Y-28111609D01*
X-17778217Y-28196619D01*
X-17672989Y-28328975D01*
X-17584832Y-28478987D01*
X-17532684Y-28616967D01*
X-17526000Y-28669084D01*
X-17542280Y-28760070D01*
X-17606299Y-28820594D01*
X-17672807Y-28852327D01*
X-17770517Y-28890930D01*
X-17827331Y-28909167D01*
X-17831557Y-28909333D01*
X-17876445Y-28897851D01*
X-17971480Y-28875192D01*
X-17991666Y-28870474D01*
X-18113746Y-28815195D01*
X-18238837Y-28714961D01*
X-18355043Y-28586659D01*
X-18450466Y-28447175D01*
X-18513209Y-28313398D01*
X-18531376Y-28202216D01*
X-18505726Y-28140792D01*
X-18426178Y-28104307D01*
X-18293708Y-28081406D01*
X-18139186Y-28073535D01*
X-17993480Y-28082135D01*
G36*
X-23431578Y-23880073D02*
G01*
X-23169001Y-23886691D01*
X-23055805Y-23890172D01*
X-22730888Y-23903681D01*
X-22413928Y-23922790D01*
X-22117628Y-23946216D01*
X-21854693Y-23972674D01*
X-21637826Y-24000880D01*
X-21479729Y-24029551D01*
X-21393107Y-24057402D01*
X-21391468Y-24058382D01*
X-21335682Y-24123470D01*
X-21274808Y-24237381D01*
X-21221720Y-24368846D01*
X-21189291Y-24486593D01*
X-21187775Y-24553150D01*
X-21184048Y-24628756D01*
X-21150629Y-24774760D01*
X-21090137Y-24983302D01*
X-21005192Y-25246522D01*
X-20898416Y-25556560D01*
X-20772429Y-25905557D01*
X-20629850Y-26285652D01*
X-20489116Y-26648833D01*
X-20331242Y-27051810D01*
X-20202435Y-27384623D01*
X-20099874Y-27655542D01*
X-20020739Y-27872837D01*
X-19962211Y-28044777D01*
X-19921470Y-28179632D01*
X-19895697Y-28285672D01*
X-19882070Y-28371166D01*
X-19877799Y-28441658D01*
X-19880447Y-28560717D01*
X-19901237Y-28619138D01*
X-19953837Y-28640832D01*
X-19994155Y-28645200D01*
X-20095432Y-28631750D01*
X-20150222Y-28562052D01*
X-20187633Y-28469167D01*
X-20190316Y-28564417D01*
X-20214998Y-28628123D01*
X-20264579Y-28661905D01*
X-20308667Y-28653360D01*
X-20320000Y-28617333D01*
X-20355053Y-28581748D01*
X-20396200Y-28575000D01*
X-20492095Y-28546860D01*
X-20526224Y-28522083D01*
X-20566682Y-28491361D01*
X-20566440Y-28527375D01*
X-20579513Y-28589625D01*
X-20596726Y-28601978D01*
X-20634294Y-28573133D01*
X-20694295Y-28476107D01*
X-20771574Y-28322764D01*
X-20860978Y-28124969D01*
X-20957350Y-27894586D01*
X-21055537Y-27643480D01*
X-21150382Y-27383515D01*
X-21233814Y-27135667D01*
X-21287186Y-26976743D01*
X-21335676Y-26845213D01*
X-21370159Y-26765577D01*
X-21374286Y-26758470D01*
X-21402609Y-26736002D01*
X-21461099Y-26721524D01*
X-21561705Y-26714506D01*
X-21716377Y-26714416D01*
X-21937062Y-26720722D01*
X-22089595Y-26726671D01*
X-22350881Y-26736227D01*
X-22539147Y-26739696D01*
X-22665854Y-26736579D01*
X-22742463Y-26726377D01*
X-22780436Y-26708592D01*
X-22788681Y-26696276D01*
X-22782282Y-26618486D01*
X-22762172Y-26589105D01*
X-22744156Y-26546926D01*
X-22801357Y-26517303D01*
X-22811615Y-26514515D01*
X-22883524Y-26476088D01*
X-22892376Y-26398187D01*
X-22889919Y-26384091D01*
X-22893721Y-26297452D01*
X-22957460Y-26231005D01*
X-22991683Y-26210106D01*
X-23084130Y-26131974D01*
X-23109667Y-26052305D01*
X-23066212Y-25989519D01*
X-23018750Y-25970411D01*
X-22938706Y-25964536D01*
X-22796385Y-25967238D01*
X-22613654Y-25977726D01*
X-22457833Y-25990736D01*
X-22249426Y-26009120D01*
X-22055388Y-26023769D01*
X-21901479Y-26032869D01*
X-21830564Y-26034964D01*
X-21764480Y-26034248D01*
X-21719513Y-26025395D01*
X-21697834Y-25998396D01*
X-21701611Y-25943243D01*
X-21733015Y-25849928D01*
X-21794215Y-25708444D01*
X-21887382Y-25508783D01*
X-21992677Y-25287221D01*
X-22257738Y-24729943D01*
X-23183286Y-24712452D01*
X-23494557Y-24705799D01*
X-23733447Y-24698377D01*
X-23912238Y-24689065D01*
X-24043214Y-24676742D01*
X-24138658Y-24660286D01*
X-24210855Y-24638574D01*
X-24266205Y-24613564D01*
X-24368675Y-24541885D01*
X-24420567Y-24468422D01*
X-24416288Y-24410183D01*
X-24350248Y-24384179D01*
X-24341666Y-24384000D01*
X-24288757Y-24371535D01*
X-24263737Y-24319779D01*
X-24257032Y-24207185D01*
X-24257000Y-24193500D01*
X-24246635Y-24061928D01*
X-24214223Y-24006009D01*
X-24200004Y-24003000D01*
X-24125962Y-23985094D01*
X-24019537Y-23941239D01*
X-24004226Y-23933766D01*
X-23944803Y-23909453D01*
X-23870904Y-23892528D01*
X-23769452Y-23882390D01*
X-23627370Y-23878439D01*
X-23431578Y-23880073D01*
G37*
X-23431578Y-23880073D02*
X-23169001Y-23886691D01*
X-23055805Y-23890172D01*
X-22730888Y-23903681D01*
X-22413928Y-23922790D01*
X-22117628Y-23946216D01*
X-21854693Y-23972674D01*
X-21637826Y-24000880D01*
X-21479729Y-24029551D01*
X-21393107Y-24057402D01*
X-21391468Y-24058382D01*
X-21335682Y-24123470D01*
X-21274808Y-24237381D01*
X-21221720Y-24368846D01*
X-21189291Y-24486593D01*
X-21187775Y-24553150D01*
X-21184048Y-24628756D01*
X-21150629Y-24774760D01*
X-21090137Y-24983302D01*
X-21005192Y-25246522D01*
X-20898416Y-25556560D01*
X-20772429Y-25905557D01*
X-20629850Y-26285652D01*
X-20489116Y-26648833D01*
X-20331242Y-27051810D01*
X-20202435Y-27384623D01*
X-20099874Y-27655542D01*
X-20020739Y-27872837D01*
X-19962211Y-28044777D01*
X-19921470Y-28179632D01*
X-19895697Y-28285672D01*
X-19882070Y-28371166D01*
X-19877799Y-28441658D01*
X-19880447Y-28560717D01*
X-19901237Y-28619138D01*
X-19953837Y-28640832D01*
X-19994155Y-28645200D01*
X-20095432Y-28631750D01*
X-20150222Y-28562052D01*
X-20187633Y-28469167D01*
X-20190316Y-28564417D01*
X-20214998Y-28628123D01*
X-20264579Y-28661905D01*
X-20308667Y-28653360D01*
X-20320000Y-28617333D01*
X-20355053Y-28581748D01*
X-20396200Y-28575000D01*
X-20492095Y-28546860D01*
X-20526224Y-28522083D01*
X-20566682Y-28491361D01*
X-20566440Y-28527375D01*
X-20579513Y-28589625D01*
X-20596726Y-28601978D01*
X-20634294Y-28573133D01*
X-20694295Y-28476107D01*
X-20771574Y-28322764D01*
X-20860978Y-28124969D01*
X-20957350Y-27894586D01*
X-21055537Y-27643480D01*
X-21150382Y-27383515D01*
X-21233814Y-27135667D01*
X-21287186Y-26976743D01*
X-21335676Y-26845213D01*
X-21370159Y-26765577D01*
X-21374286Y-26758470D01*
X-21402609Y-26736002D01*
X-21461099Y-26721524D01*
X-21561705Y-26714506D01*
X-21716377Y-26714416D01*
X-21937062Y-26720722D01*
X-22089595Y-26726671D01*
X-22350881Y-26736227D01*
X-22539147Y-26739696D01*
X-22665854Y-26736579D01*
X-22742463Y-26726377D01*
X-22780436Y-26708592D01*
X-22788681Y-26696276D01*
X-22782282Y-26618486D01*
X-22762172Y-26589105D01*
X-22744156Y-26546926D01*
X-22801357Y-26517303D01*
X-22811615Y-26514515D01*
X-22883524Y-26476088D01*
X-22892376Y-26398187D01*
X-22889919Y-26384091D01*
X-22893721Y-26297452D01*
X-22957460Y-26231005D01*
X-22991683Y-26210106D01*
X-23084130Y-26131974D01*
X-23109667Y-26052305D01*
X-23066212Y-25989519D01*
X-23018750Y-25970411D01*
X-22938706Y-25964536D01*
X-22796385Y-25967238D01*
X-22613654Y-25977726D01*
X-22457833Y-25990736D01*
X-22249426Y-26009120D01*
X-22055388Y-26023769D01*
X-21901479Y-26032869D01*
X-21830564Y-26034964D01*
X-21764480Y-26034248D01*
X-21719513Y-26025395D01*
X-21697834Y-25998396D01*
X-21701611Y-25943243D01*
X-21733015Y-25849928D01*
X-21794215Y-25708444D01*
X-21887382Y-25508783D01*
X-21992677Y-25287221D01*
X-22257738Y-24729943D01*
X-23183286Y-24712452D01*
X-23494557Y-24705799D01*
X-23733447Y-24698377D01*
X-23912238Y-24689065D01*
X-24043214Y-24676742D01*
X-24138658Y-24660286D01*
X-24210855Y-24638574D01*
X-24266205Y-24613564D01*
X-24368675Y-24541885D01*
X-24420567Y-24468422D01*
X-24416288Y-24410183D01*
X-24350248Y-24384179D01*
X-24341666Y-24384000D01*
X-24288757Y-24371535D01*
X-24263737Y-24319779D01*
X-24257032Y-24207185D01*
X-24257000Y-24193500D01*
X-24246635Y-24061928D01*
X-24214223Y-24006009D01*
X-24200004Y-24003000D01*
X-24125962Y-23985094D01*
X-24019537Y-23941239D01*
X-24004226Y-23933766D01*
X-23944803Y-23909453D01*
X-23870904Y-23892528D01*
X-23769452Y-23882390D01*
X-23627370Y-23878439D01*
X-23431578Y-23880073D01*
G36*
X-19469485Y-23675121D02*
G01*
X-19336303Y-23704937D01*
X-19295551Y-23719791D01*
X-19221391Y-23759767D01*
X-19154256Y-23821646D01*
X-19082444Y-23920605D01*
X-18994255Y-24071819D01*
X-18925642Y-24199569D01*
X-18735547Y-24579081D01*
X-18551292Y-24983609D01*
X-18377115Y-25400896D01*
X-18217256Y-25818686D01*
X-18075955Y-26224723D01*
X-17957450Y-26606751D01*
X-17865981Y-26952514D01*
X-17805787Y-27249755D01*
X-17781107Y-27486219D01*
X-17780735Y-27509611D01*
X-17789028Y-27630846D01*
X-17816709Y-27676347D01*
X-17832916Y-27675229D01*
X-17902551Y-27687847D01*
X-17928166Y-27710257D01*
X-17990258Y-27742447D01*
X-18109133Y-27772981D01*
X-18234828Y-27792183D01*
X-18381619Y-27805405D01*
X-18465812Y-27801991D01*
X-18508457Y-27778397D01*
X-18526652Y-27743043D01*
X-18599703Y-27538852D01*
X-18681376Y-27316246D01*
X-18762275Y-27100327D01*
X-18833003Y-26916198D01*
X-18880784Y-26797000D01*
X-18942277Y-26639082D01*
X-18998271Y-26478185D01*
X-19011078Y-26437167D01*
X-19050604Y-26334368D01*
X-19122928Y-26173178D01*
X-19220023Y-25969378D01*
X-19333864Y-25738750D01*
X-19456423Y-25497076D01*
X-19579674Y-25260139D01*
X-19695589Y-25043719D01*
X-19796143Y-24863599D01*
X-19873308Y-24735560D01*
X-19886923Y-24715109D01*
X-19989064Y-24553969D01*
X-20089137Y-24375285D01*
X-20177006Y-24199693D01*
X-20242537Y-24047825D01*
X-20275596Y-23940318D01*
X-20277666Y-23919540D01*
X-20252550Y-23851589D01*
X-20175296Y-23833667D01*
X-20056032Y-23821546D01*
X-19976898Y-23790949D01*
X-19959422Y-23750522D01*
X-19961024Y-23747612D01*
X-19951623Y-23706316D01*
X-19878071Y-23677595D01*
X-19760066Y-23662273D01*
X-19617305Y-23661174D01*
X-19469485Y-23675121D01*
G37*
X-19469485Y-23675121D02*
X-19336303Y-23704937D01*
X-19295551Y-23719791D01*
X-19221391Y-23759767D01*
X-19154256Y-23821646D01*
X-19082444Y-23920605D01*
X-18994255Y-24071819D01*
X-18925642Y-24199569D01*
X-18735547Y-24579081D01*
X-18551292Y-24983609D01*
X-18377115Y-25400896D01*
X-18217256Y-25818686D01*
X-18075955Y-26224723D01*
X-17957450Y-26606751D01*
X-17865981Y-26952514D01*
X-17805787Y-27249755D01*
X-17781107Y-27486219D01*
X-17780735Y-27509611D01*
X-17789028Y-27630846D01*
X-17816709Y-27676347D01*
X-17832916Y-27675229D01*
X-17902551Y-27687847D01*
X-17928166Y-27710257D01*
X-17990258Y-27742447D01*
X-18109133Y-27772981D01*
X-18234828Y-27792183D01*
X-18381619Y-27805405D01*
X-18465812Y-27801991D01*
X-18508457Y-27778397D01*
X-18526652Y-27743043D01*
X-18599703Y-27538852D01*
X-18681376Y-27316246D01*
X-18762275Y-27100327D01*
X-18833003Y-26916198D01*
X-18880784Y-26797000D01*
X-18942277Y-26639082D01*
X-18998271Y-26478185D01*
X-19011078Y-26437167D01*
X-19050604Y-26334368D01*
X-19122928Y-26173178D01*
X-19220023Y-25969378D01*
X-19333864Y-25738750D01*
X-19456423Y-25497076D01*
X-19579674Y-25260139D01*
X-19695589Y-25043719D01*
X-19796143Y-24863599D01*
X-19873308Y-24735560D01*
X-19886923Y-24715109D01*
X-19989064Y-24553969D01*
X-20089137Y-24375285D01*
X-20177006Y-24199693D01*
X-20242537Y-24047825D01*
X-20275596Y-23940318D01*
X-20277666Y-23919540D01*
X-20252550Y-23851589D01*
X-20175296Y-23833667D01*
X-20056032Y-23821546D01*
X-19976898Y-23790949D01*
X-19959422Y-23750522D01*
X-19961024Y-23747612D01*
X-19951623Y-23706316D01*
X-19878071Y-23677595D01*
X-19760066Y-23662273D01*
X-19617305Y-23661174D01*
X-19469485Y-23675121D01*
M02*
