G04 #@! TF.GenerationSoftware,KiCad,Pcbnew,(5.1.5-0-10_14)*
G04 #@! TF.CreationDate,2020-02-09T18:22:42-08:00*
G04 #@! TF.ProjectId,badge-proto,62616467-652d-4707-926f-746f2e6b6963,rev?*
G04 #@! TF.SameCoordinates,Original*
G04 #@! TF.FileFunction,Copper,L1,Top*
G04 #@! TF.FilePolarity,Positive*
%FSLAX46Y46*%
G04 Gerber Fmt 4.6, Leading zero omitted, Abs format (unit mm)*
G04 Created by KiCad (PCBNEW (5.1.5-0-10_14)) date 2020-02-09 18:22:42*
%MOMM*%
%LPD*%
G04 APERTURE LIST*
%ADD10C,0.010000*%
%ADD11C,0.467722*%
G04 APERTURE END LIST*
D10*
G36*
X-12755160Y48243205D02*
G01*
X-12467732Y48227272D01*
X-12222423Y48203714D01*
X-12037906Y48173069D01*
X-12001500Y48163810D01*
X-11740110Y48075088D01*
X-11553568Y47973261D01*
X-11432106Y47848157D01*
X-11365956Y47689603D01*
X-11345350Y47487426D01*
X-11345333Y47480444D01*
X-11356996Y47200687D01*
X-11391450Y46844353D01*
X-11447889Y46416174D01*
X-11525510Y45920885D01*
X-11623509Y45363221D01*
X-11741082Y44747916D01*
X-11877423Y44079705D01*
X-12031730Y43363321D01*
X-12086602Y43116500D01*
X-12277030Y42252210D01*
X-12468291Y41355534D01*
X-12661352Y40421361D01*
X-12857181Y39444580D01*
X-13056745Y38420081D01*
X-13261012Y37342752D01*
X-13470951Y36207484D01*
X-13687528Y35009165D01*
X-13911713Y33742685D01*
X-14144471Y32402932D01*
X-14386772Y30984798D01*
X-14411335Y30839833D01*
X-14490587Y30372256D01*
X-14566712Y29924087D01*
X-14638360Y29503214D01*
X-14704180Y29117525D01*
X-14762822Y28774906D01*
X-14812936Y28483246D01*
X-14853171Y28250431D01*
X-14882178Y28084349D01*
X-14898605Y27992888D01*
X-14899699Y27987139D01*
X-14924622Y27843889D01*
X-14940556Y27725421D01*
X-14943666Y27680222D01*
X-14941625Y27668841D01*
X-14932650Y27658609D01*
X-14912464Y27649466D01*
X-14876792Y27641351D01*
X-14821357Y27634202D01*
X-14741881Y27627959D01*
X-14634090Y27622559D01*
X-14493705Y27617942D01*
X-14316452Y27614047D01*
X-14098052Y27610813D01*
X-13834231Y27608178D01*
X-13520710Y27606081D01*
X-13153215Y27604461D01*
X-12727467Y27603257D01*
X-12239192Y27602408D01*
X-11684112Y27601852D01*
X-11057950Y27601529D01*
X-10356431Y27601376D01*
X-9575277Y27601334D01*
X-9428587Y27601333D01*
X-3913507Y27601333D01*
X-3792568Y27315583D01*
X-3580057Y26851807D01*
X-3321484Y26350290D01*
X-3030021Y25833788D01*
X-2718841Y25325056D01*
X-2401115Y24846849D01*
X-2206192Y24575099D01*
X-1566808Y23779202D01*
X-859454Y23020419D01*
X-93710Y22306488D01*
X720843Y21645151D01*
X1574627Y21044146D01*
X2458062Y20511215D01*
X3361567Y20054096D01*
X3425407Y20025096D01*
X3640524Y19925095D01*
X3839392Y19827162D01*
X4003482Y19740805D01*
X4114265Y19675535D01*
X4135263Y19660782D01*
X4277212Y19552513D01*
X4202356Y19424053D01*
X4103016Y19291478D01*
X3947026Y19128815D01*
X3750073Y18949972D01*
X3527845Y18768858D01*
X3296028Y18599381D01*
X3199730Y18535114D01*
X2712477Y18266498D01*
X2209876Y18080512D01*
X1693618Y17977612D01*
X1165393Y17958258D01*
X1088220Y17962394D01*
X765488Y17993826D01*
X466052Y18047829D01*
X178664Y18129752D01*
X-107929Y18244945D01*
X-404978Y18398759D01*
X-723734Y18596545D01*
X-1075447Y18843653D01*
X-1471370Y19145433D01*
X-1580258Y19231382D01*
X-2056385Y19598177D01*
X-2487027Y19904502D01*
X-2881268Y20154625D01*
X-3248194Y20352810D01*
X-3596888Y20503323D01*
X-3936435Y20610431D01*
X-4275920Y20678398D01*
X-4624428Y20711492D01*
X-4740740Y20715442D01*
X-4913091Y20716222D01*
X-5029671Y20705332D01*
X-5119248Y20675763D01*
X-5210589Y20620506D01*
X-5252545Y20590737D01*
X-5433899Y20425817D01*
X-5541679Y20237914D01*
X-5585736Y20007585D01*
X-5588000Y19928616D01*
X-5575405Y19747353D01*
X-5533260Y19576879D01*
X-5455028Y19408059D01*
X-5334169Y19231764D01*
X-5164145Y19038860D01*
X-4938418Y18820216D01*
X-4650448Y18566701D01*
X-4554969Y18485866D01*
X-4358946Y18320665D01*
X-4187752Y18175199D01*
X-4031823Y18040799D01*
X-3881596Y17908796D01*
X-3727507Y17770521D01*
X-3559993Y17617304D01*
X-3369490Y17440478D01*
X-3146435Y17231373D01*
X-2881263Y16981321D01*
X-2564412Y16681651D01*
X-2561166Y16678580D01*
X-2152019Y16292152D01*
X-1797699Y15959682D01*
X-1492272Y15676166D01*
X-1229801Y15436600D01*
X-1004352Y15235983D01*
X-809989Y15069311D01*
X-640777Y14931581D01*
X-490779Y14817791D01*
X-354061Y14722937D01*
X-224686Y14642017D01*
X-96720Y14570028D01*
X0Y14519846D01*
X541487Y14287813D01*
X1104763Y14128700D01*
X1699334Y14040589D01*
X2334704Y14021564D01*
X2452038Y14025243D01*
X2701260Y14038266D01*
X2932668Y14058362D01*
X3155145Y14088412D01*
X3377572Y14131297D01*
X3608834Y14189896D01*
X3857812Y14267092D01*
X4133389Y14365765D01*
X4444447Y14488796D01*
X4799870Y14639066D01*
X5208539Y14819454D01*
X5679338Y15032843D01*
X5969497Y15166016D01*
X6374029Y15349531D01*
X6713172Y15496777D01*
X6996382Y15611067D01*
X7233113Y15695714D01*
X7432821Y15754030D01*
X7604962Y15789329D01*
X7758992Y15804922D01*
X7796507Y15806144D01*
X8019979Y15792168D01*
X8185062Y15733356D01*
X8310797Y15619129D01*
X8401184Y15470102D01*
X8486213Y15204868D01*
X8500117Y14898452D01*
X8443404Y14554802D01*
X8316586Y14177867D01*
X8202216Y13927667D01*
X8110401Y13757220D01*
X8009872Y13602250D01*
X7885864Y13443351D01*
X7723611Y13261115D01*
X7580324Y13110258D01*
X7265328Y12795262D01*
X6933765Y12483913D01*
X6596569Y12185155D01*
X6264674Y11907934D01*
X5949014Y11661194D01*
X5660524Y11453882D01*
X5410138Y11294942D01*
X5270500Y11220614D01*
X5077546Y11140526D01*
X4856402Y11072929D01*
X4594276Y11015192D01*
X4278374Y10964679D01*
X3895902Y10918759D01*
X3714948Y10900461D01*
X3357090Y10861349D01*
X3074850Y10817276D01*
X2859184Y10762442D01*
X2701050Y10691047D01*
X2591403Y10597290D01*
X2521199Y10475371D01*
X2481395Y10319491D01*
X2462946Y10123848D01*
X2461707Y10096700D01*
X2474714Y9688719D01*
X2551093Y9328578D01*
X2692590Y9014718D01*
X2900951Y8745579D01*
X3177923Y8519603D01*
X3525253Y8335229D01*
X3944687Y8190899D01*
X4437970Y8085053D01*
X4765523Y8039891D01*
X5276786Y8012114D01*
X5799320Y8045398D01*
X6338786Y8141393D01*
X6900845Y8301748D01*
X7491158Y8528112D01*
X8115389Y8822133D01*
X8779197Y9185461D01*
X8859096Y9232214D01*
X9281058Y9486591D01*
X9676712Y9738559D01*
X10055594Y9995673D01*
X10427239Y10265488D01*
X10801182Y10555560D01*
X11186960Y10873443D01*
X11594107Y11226693D01*
X12032158Y11622866D01*
X12510649Y12069517D01*
X12861405Y12403454D01*
X13248470Y12772998D01*
X13581850Y13087818D01*
X13867803Y13352980D01*
X14112584Y13573555D01*
X14322453Y13754609D01*
X14503666Y13901211D01*
X14662481Y14018430D01*
X14805156Y14111334D01*
X14937947Y14184992D01*
X15067114Y14244472D01*
X15194704Y14293360D01*
X15521604Y14375646D01*
X15840649Y14386173D01*
X16158001Y14322994D01*
X16479817Y14184161D01*
X16812258Y13967727D01*
X17161484Y13671745D01*
X17161778Y13671470D01*
X17344138Y13490796D01*
X17535724Y13279963D01*
X17742605Y13031257D01*
X17970848Y12736964D01*
X18226519Y12389370D01*
X18515689Y11980761D01*
X18691821Y11726333D01*
X18877361Y11458332D01*
X19063070Y11193248D01*
X19238727Y10945436D01*
X19394113Y10729254D01*
X19519008Y10559057D01*
X19580851Y10477500D01*
X19880822Y10123039D01*
X20232810Y9760762D01*
X20624082Y9400366D01*
X21041904Y9051546D01*
X21473542Y8723997D01*
X21906262Y8427417D01*
X22327331Y8171499D01*
X22724016Y7965941D01*
X23059930Y7828451D01*
X23423854Y7743267D01*
X23828158Y7718444D01*
X24257799Y7750337D01*
X24697734Y7835302D01*
X25132922Y7969692D01*
X25548319Y8149863D01*
X25928884Y8372168D01*
X26215586Y8593163D01*
X26421759Y8808583D01*
X26573479Y9037059D01*
X26664670Y9265036D01*
X26689256Y9478962D01*
X26667558Y9601217D01*
X26608950Y9742837D01*
X26524696Y9863714D01*
X26404813Y9969984D01*
X26239322Y10067785D01*
X26018241Y10163254D01*
X25731588Y10262528D01*
X25454755Y10346933D01*
X25048785Y10471317D01*
X24711281Y10588707D01*
X24427372Y10707054D01*
X24182187Y10834307D01*
X23960853Y10978416D01*
X23748500Y11147331D01*
X23530256Y11349002D01*
X23471253Y11407243D01*
X23131963Y11779806D01*
X22812875Y12196018D01*
X22520225Y12643180D01*
X22260249Y13108593D01*
X22039183Y13579558D01*
X21863265Y14043374D01*
X21738729Y14487341D01*
X21671813Y14898762D01*
X21661882Y15091833D01*
X21684348Y15377543D01*
X21754633Y15602402D01*
X21870174Y15762490D01*
X22028408Y15853887D01*
X22174073Y15875000D01*
X22312098Y15855696D01*
X22455187Y15793321D01*
X22612078Y15681183D01*
X22791511Y15512588D01*
X23002226Y15280843D01*
X23099454Y15166303D01*
X23477598Y14730223D01*
X23834589Y14354984D01*
X24186885Y14025576D01*
X24550946Y13726987D01*
X24943232Y13444206D01*
X25107425Y13334966D01*
X25784412Y12940979D01*
X26486071Y12624442D01*
X27207043Y12387000D01*
X27941968Y12230295D01*
X28685484Y12155970D01*
X28973914Y12149667D01*
X29589627Y12178069D01*
X30205499Y12265268D01*
X30835757Y12414250D01*
X31494626Y12628001D01*
X31792334Y12741386D01*
X32268163Y12945190D01*
X32682804Y13158693D01*
X33059577Y13396823D01*
X33421799Y13674508D01*
X33792788Y14006676D01*
X33841235Y14053055D01*
X34217023Y14436504D01*
X34533168Y14804130D01*
X34785817Y15150573D01*
X34971115Y15470472D01*
X35085208Y15758465D01*
X35095815Y15798070D01*
X35122127Y15929110D01*
X35115745Y16024126D01*
X35071288Y16127230D01*
X35051223Y16163667D01*
X34962420Y16285349D01*
X34836747Y16415865D01*
X34753720Y16486173D01*
X34550279Y16641319D01*
X33562890Y16340838D01*
X33161832Y16219286D01*
X32828034Y16120315D01*
X32547879Y16041458D01*
X32307751Y15980248D01*
X32094031Y15934218D01*
X31893103Y15900902D01*
X31691351Y15877832D01*
X31475157Y15862541D01*
X31230904Y15852563D01*
X30944976Y15845431D01*
X30813674Y15842779D01*
X30377681Y15837444D01*
X30019500Y15840044D01*
X29741176Y15850532D01*
X29544755Y15868861D01*
X29518770Y15872902D01*
X29249610Y15942538D01*
X28928707Y16067279D01*
X28564404Y16242583D01*
X28165044Y16463903D01*
X27738969Y16726696D01*
X27294521Y17026416D01*
X26967638Y17262669D01*
X26635285Y17516338D01*
X26369972Y17735487D01*
X26165331Y17927783D01*
X26014992Y18100890D01*
X25912586Y18262473D01*
X25851744Y18420196D01*
X25826097Y18581724D01*
X25824263Y18638610D01*
X25835265Y18811358D01*
X25875318Y18961752D01*
X25952425Y19097642D01*
X26074587Y19226876D01*
X26249807Y19357304D01*
X26486086Y19496773D01*
X26791428Y19653132D01*
X26923588Y19716875D01*
X27311484Y19902139D01*
X27633671Y20057117D01*
X27901117Y20187423D01*
X28124793Y20298669D01*
X28315669Y20396469D01*
X28484713Y20486435D01*
X28642895Y20574181D01*
X28801186Y20665320D01*
X28956669Y20757186D01*
X29817871Y21316348D01*
X30645967Y21945454D01*
X31434328Y22637057D01*
X32176326Y23383712D01*
X32518765Y23778463D01*
X36408838Y23778463D01*
X36411542Y23527065D01*
X36423350Y23306885D01*
X36443590Y23144565D01*
X36533892Y22859966D01*
X36687852Y22628041D01*
X36901920Y22453731D01*
X36964442Y22419720D01*
X37185291Y22309667D01*
X42436895Y22310597D01*
X43213855Y22310779D01*
X43910671Y22311082D01*
X44531864Y22311568D01*
X45081958Y22312304D01*
X45565473Y22313355D01*
X45986933Y22314785D01*
X46350860Y22316661D01*
X46661776Y22319046D01*
X46924203Y22322006D01*
X47142663Y22325607D01*
X47321679Y22329913D01*
X47465773Y22334989D01*
X47579466Y22340901D01*
X47667282Y22347713D01*
X47733743Y22355491D01*
X47783370Y22364300D01*
X47820686Y22374205D01*
X47850214Y22385271D01*
X47857834Y22388647D01*
X48031916Y22499418D01*
X48196431Y22657980D01*
X48326329Y22836688D01*
X48387959Y22973785D01*
X48407200Y23090932D01*
X48419575Y23288273D01*
X48424939Y23561603D01*
X48423147Y23906719D01*
X48422197Y23967736D01*
X48408167Y24800305D01*
X48279594Y24983110D01*
X48078177Y25204520D01*
X47838353Y25354515D01*
X47706896Y25400746D01*
X47636375Y25407946D01*
X47481895Y25414296D01*
X47244157Y25419794D01*
X46923866Y25424435D01*
X46521722Y25428215D01*
X46038430Y25431130D01*
X45474691Y25433175D01*
X44831208Y25434347D01*
X44108685Y25434641D01*
X43307823Y25434054D01*
X42429326Y25432580D01*
X42347540Y25432406D01*
X37147500Y25421167D01*
X36978167Y25329794D01*
X36734389Y25154020D01*
X36556021Y24926796D01*
X36506611Y24828500D01*
X36474624Y24710391D01*
X36448132Y24527041D01*
X36427855Y24297742D01*
X36414517Y24041785D01*
X36408838Y23778463D01*
X32518765Y23778463D01*
X32865333Y24177972D01*
X33494722Y25012390D01*
X34057865Y25879520D01*
X34548132Y26771915D01*
X34814010Y27337845D01*
X34930731Y27603523D01*
X41055615Y27590350D01*
X41901552Y27588473D01*
X42667029Y27586622D01*
X43356254Y27584742D01*
X43973432Y27582775D01*
X44522772Y27580667D01*
X45008479Y27578360D01*
X45434761Y27575798D01*
X45805825Y27572926D01*
X46125878Y27569686D01*
X46399126Y27566024D01*
X46629777Y27561882D01*
X46822038Y27557205D01*
X46980114Y27551937D01*
X47108214Y27546020D01*
X47210544Y27539400D01*
X47291311Y27532020D01*
X47354723Y27523823D01*
X47404985Y27514754D01*
X47445315Y27505026D01*
X48019738Y27312464D01*
X48536167Y27062177D01*
X49002205Y26749968D01*
X49333031Y26463258D01*
X49709443Y26048731D01*
X50019480Y25591008D01*
X50268453Y25081341D01*
X50408132Y24692539D01*
X50524834Y24320500D01*
X50524834Y-45106167D01*
X50426793Y-45466000D01*
X50236377Y-46007595D01*
X49973439Y-46511600D01*
X49644062Y-46971888D01*
X49254326Y-47382332D01*
X48810314Y-47736804D01*
X48318108Y-48029177D01*
X47783788Y-48253325D01*
X47603834Y-48309954D01*
X47265167Y-48408167D01*
X148167Y-48415442D01*
X-2296620Y-48415808D01*
X-4658127Y-48416137D01*
X-6937739Y-48416426D01*
X-9136843Y-48416676D01*
X-11256824Y-48416884D01*
X-13299069Y-48417048D01*
X-15264963Y-48417167D01*
X-17155893Y-48417241D01*
X-18973245Y-48417266D01*
X-20718404Y-48417242D01*
X-22392758Y-48417168D01*
X-23997691Y-48417041D01*
X-25534590Y-48416860D01*
X-27004841Y-48416623D01*
X-28409830Y-48416330D01*
X-29750943Y-48415979D01*
X-31029566Y-48415568D01*
X-32247086Y-48415095D01*
X-33404887Y-48414560D01*
X-34504357Y-48413960D01*
X-35546881Y-48413294D01*
X-36533846Y-48412561D01*
X-37466636Y-48411759D01*
X-38346640Y-48410886D01*
X-39175241Y-48409942D01*
X-39953827Y-48408924D01*
X-40683784Y-48407832D01*
X-41366498Y-48406663D01*
X-42003354Y-48405416D01*
X-42595739Y-48404090D01*
X-43145038Y-48402682D01*
X-43652638Y-48401193D01*
X-44119926Y-48399619D01*
X-44548286Y-48397960D01*
X-44939105Y-48396214D01*
X-45293769Y-48394380D01*
X-45613664Y-48392455D01*
X-45900176Y-48390439D01*
X-46154692Y-48388331D01*
X-46378596Y-48386127D01*
X-46573276Y-48383828D01*
X-46740117Y-48381431D01*
X-46880505Y-48378936D01*
X-46995827Y-48376340D01*
X-47087468Y-48373641D01*
X-47156815Y-48370840D01*
X-47205253Y-48367933D01*
X-47234169Y-48364920D01*
X-47239217Y-48364001D01*
X-47792854Y-48208703D01*
X-48294135Y-47992005D01*
X-48754336Y-47707517D01*
X-49184731Y-47348848D01*
X-49384455Y-47148023D01*
X-49737451Y-46722791D01*
X-50014685Y-46273705D01*
X-50223039Y-45787401D01*
X-50369394Y-45250518D01*
X-50374495Y-45225634D01*
X-50461693Y-44794768D01*
X-50450930Y-10279467D01*
X-50440355Y23629880D01*
X-48214413Y23629880D01*
X-48211897Y23370720D01*
X-48200642Y23170245D01*
X-48178312Y23015514D01*
X-48142567Y22893585D01*
X-48091069Y22791516D01*
X-48021481Y22696366D01*
X-47971762Y22639085D01*
X-47931247Y22591529D01*
X-47896961Y22548785D01*
X-47864428Y22510597D01*
X-47829172Y22476710D01*
X-47786716Y22446867D01*
X-47732583Y22420813D01*
X-47662298Y22398291D01*
X-47571383Y22379047D01*
X-47455362Y22362823D01*
X-47309759Y22349364D01*
X-47130097Y22338414D01*
X-46911900Y22329718D01*
X-46650691Y22323019D01*
X-46341994Y22318061D01*
X-45981332Y22314589D01*
X-45564228Y22312347D01*
X-45086207Y22311079D01*
X-44542791Y22310528D01*
X-43929505Y22310439D01*
X-43241872Y22310557D01*
X-42475414Y22310625D01*
X-42225228Y22310597D01*
X-36973624Y22309667D01*
X-36755030Y22418597D01*
X-36521967Y22579822D01*
X-36349690Y22797915D01*
X-36243704Y23065613D01*
X-36234874Y23104678D01*
X-36215894Y23251609D01*
X-36203930Y23466800D01*
X-36199546Y23734088D01*
X-36202869Y24019495D01*
X-36210355Y24283147D01*
X-36219617Y24477870D01*
X-36232649Y24619401D01*
X-36251445Y24723478D01*
X-36277998Y24805837D01*
X-36311470Y24876868D01*
X-36464844Y25092367D01*
X-36667159Y25265967D01*
X-36895338Y25379400D01*
X-36973098Y25400669D01*
X-37040760Y25408359D01*
X-37169278Y25415118D01*
X-37360798Y25420960D01*
X-37617466Y25425896D01*
X-37941429Y25429942D01*
X-38334832Y25433109D01*
X-38799821Y25435413D01*
X-39338543Y25436865D01*
X-39953143Y25437480D01*
X-40645767Y25437270D01*
X-41418563Y25436249D01*
X-42273674Y25434431D01*
X-42357833Y25434221D01*
X-47525832Y25421167D01*
X-47733478Y25292781D01*
X-47879493Y25181476D01*
X-48016151Y25043556D01*
X-48068812Y24975281D01*
X-48196500Y24786167D01*
X-48210530Y23960667D01*
X-48214413Y23629880D01*
X-50440355Y23629880D01*
X-50440166Y24235833D01*
X-50347770Y24559532D01*
X-50141877Y25139859D01*
X-49871973Y25666981D01*
X-49540777Y26138158D01*
X-49151007Y26550649D01*
X-48705380Y26901714D01*
X-48206616Y27188612D01*
X-47657432Y27408604D01*
X-47464464Y27466364D01*
X-47053500Y27579612D01*
X-41373952Y27591647D01*
X-35694405Y27603681D01*
X-35670685Y27951757D01*
X-35662493Y28089914D01*
X-35651828Y28296887D01*
X-35639426Y28556888D01*
X-35626021Y28854129D01*
X-35612348Y29172819D01*
X-35601301Y29442833D01*
X-35563618Y30320277D01*
X-35519613Y31229430D01*
X-35470010Y32159853D01*
X-35415531Y33101106D01*
X-35356897Y34042749D01*
X-35294830Y34974344D01*
X-35230053Y35885451D01*
X-35163287Y36765631D01*
X-35095254Y37604444D01*
X-35026678Y38391452D01*
X-34958278Y39116213D01*
X-34890779Y39768290D01*
X-34881037Y39856833D01*
X-34763603Y40823269D01*
X-34633944Y41712452D01*
X-34490777Y42531090D01*
X-34332814Y43285888D01*
X-34158773Y43983551D01*
X-33967366Y44630786D01*
X-33964242Y44640500D01*
X-33822485Y45047628D01*
X-33683117Y45378244D01*
X-33542164Y45640265D01*
X-33395653Y45841605D01*
X-33322760Y45918469D01*
X-33075393Y46122002D01*
X-32752538Y46333226D01*
X-32362644Y46548765D01*
X-31914165Y46765244D01*
X-31415551Y46979287D01*
X-30875255Y47187521D01*
X-30301727Y47386569D01*
X-29703419Y47573056D01*
X-29088782Y47743607D01*
X-28466268Y47894848D01*
X-28261247Y47939796D01*
X-27828453Y48029588D01*
X-27458555Y48099829D01*
X-27132639Y48152766D01*
X-26831787Y48190647D01*
X-26537086Y48215720D01*
X-26229618Y48230234D01*
X-25890470Y48236435D01*
X-25759833Y48237060D01*
X-25403310Y48234902D01*
X-25118887Y48224966D01*
X-24894149Y48204548D01*
X-24716681Y48170948D01*
X-24574069Y48121462D01*
X-24453898Y48053389D01*
X-24343754Y47964027D01*
X-24296572Y47918572D01*
X-24182001Y47780576D01*
X-24099303Y47620362D01*
X-24044546Y47423137D01*
X-24013796Y47174109D01*
X-24003119Y46858483D01*
X-24003000Y46814439D01*
X-24007034Y46584705D01*
X-24019938Y46344172D01*
X-24042914Y46085955D01*
X-24077165Y45803170D01*
X-24123892Y45488931D01*
X-24184299Y45136355D01*
X-24259587Y44738556D01*
X-24350959Y44288649D01*
X-24459616Y43779750D01*
X-24586763Y43204974D01*
X-24733600Y42557436D01*
X-24787216Y42323854D01*
X-24933247Y41682673D01*
X-25071282Y41061991D01*
X-25203513Y40450792D01*
X-25332130Y39838063D01*
X-25459322Y39212786D01*
X-25587280Y38563949D01*
X-25718194Y37880535D01*
X-25854255Y37151529D01*
X-25997652Y36365918D01*
X-26150576Y35512684D01*
X-26224745Y35094333D01*
X-26282678Y34763158D01*
X-26347842Y34384609D01*
X-26419071Y33965875D01*
X-26495199Y33514141D01*
X-26575059Y33036593D01*
X-26657485Y32540419D01*
X-26741309Y32032804D01*
X-26825366Y31520936D01*
X-26908489Y31011999D01*
X-26989511Y30513182D01*
X-27067266Y30031670D01*
X-27140587Y29574649D01*
X-27208307Y29149307D01*
X-27269260Y28762829D01*
X-27322280Y28422402D01*
X-27366199Y28135213D01*
X-27399852Y27908447D01*
X-27422071Y27749291D01*
X-27431690Y27664932D01*
X-27432000Y27657366D01*
X-27418696Y27644420D01*
X-27374688Y27633537D01*
X-27293832Y27624555D01*
X-27169982Y27617312D01*
X-26996994Y27611648D01*
X-26768723Y27607400D01*
X-26479024Y27604408D01*
X-26121753Y27602509D01*
X-25690764Y27601543D01*
X-25298661Y27601333D01*
X-23165322Y27601333D01*
X-23140495Y27971750D01*
X-23128561Y28166615D01*
X-23115132Y28412586D01*
X-23101966Y28676168D01*
X-23092148Y28892500D01*
X-23050946Y29818739D01*
X-23006289Y30752480D01*
X-22958560Y31688406D01*
X-22908140Y32621198D01*
X-22855411Y33545535D01*
X-22800754Y34456100D01*
X-22744551Y35347574D01*
X-22687184Y36214636D01*
X-22629034Y37051970D01*
X-22570482Y37854254D01*
X-22511911Y38616172D01*
X-22453701Y39332403D01*
X-22396235Y39997629D01*
X-22339894Y40606530D01*
X-22285060Y41153788D01*
X-22232114Y41634084D01*
X-22181438Y42042099D01*
X-22133413Y42372514D01*
X-22118781Y42460333D01*
X-22031911Y42901898D01*
X-21921754Y43367294D01*
X-21794218Y43836575D01*
X-21655214Y44289797D01*
X-21510650Y44707013D01*
X-21366436Y45068279D01*
X-21307792Y45197682D01*
X-21087174Y45567191D01*
X-20792294Y45899834D01*
X-20468166Y46165098D01*
X-20074423Y46416356D01*
X-19606544Y46664955D01*
X-19075058Y46907574D01*
X-18490492Y47140893D01*
X-17863375Y47361592D01*
X-17204236Y47566351D01*
X-16523602Y47751849D01*
X-15832002Y47914766D01*
X-15139964Y48051781D01*
X-14458017Y48159574D01*
X-13952579Y48219949D01*
X-13683416Y48239886D01*
X-13381676Y48250050D01*
X-13066032Y48250977D01*
X-12755160Y48243205D01*
G37*
X-12755160Y48243205D02*
X-12467732Y48227272D01*
X-12222423Y48203714D01*
X-12037906Y48173069D01*
X-12001500Y48163810D01*
X-11740110Y48075088D01*
X-11553568Y47973261D01*
X-11432106Y47848157D01*
X-11365956Y47689603D01*
X-11345350Y47487426D01*
X-11345333Y47480444D01*
X-11356996Y47200687D01*
X-11391450Y46844353D01*
X-11447889Y46416174D01*
X-11525510Y45920885D01*
X-11623509Y45363221D01*
X-11741082Y44747916D01*
X-11877423Y44079705D01*
X-12031730Y43363321D01*
X-12086602Y43116500D01*
X-12277030Y42252210D01*
X-12468291Y41355534D01*
X-12661352Y40421361D01*
X-12857181Y39444580D01*
X-13056745Y38420081D01*
X-13261012Y37342752D01*
X-13470951Y36207484D01*
X-13687528Y35009165D01*
X-13911713Y33742685D01*
X-14144471Y32402932D01*
X-14386772Y30984798D01*
X-14411335Y30839833D01*
X-14490587Y30372256D01*
X-14566712Y29924087D01*
X-14638360Y29503214D01*
X-14704180Y29117525D01*
X-14762822Y28774906D01*
X-14812936Y28483246D01*
X-14853171Y28250431D01*
X-14882178Y28084349D01*
X-14898605Y27992888D01*
X-14899699Y27987139D01*
X-14924622Y27843889D01*
X-14940556Y27725421D01*
X-14943666Y27680222D01*
X-14941625Y27668841D01*
X-14932650Y27658609D01*
X-14912464Y27649466D01*
X-14876792Y27641351D01*
X-14821357Y27634202D01*
X-14741881Y27627959D01*
X-14634090Y27622559D01*
X-14493705Y27617942D01*
X-14316452Y27614047D01*
X-14098052Y27610813D01*
X-13834231Y27608178D01*
X-13520710Y27606081D01*
X-13153215Y27604461D01*
X-12727467Y27603257D01*
X-12239192Y27602408D01*
X-11684112Y27601852D01*
X-11057950Y27601529D01*
X-10356431Y27601376D01*
X-9575277Y27601334D01*
X-9428587Y27601333D01*
X-3913507Y27601333D01*
X-3792568Y27315583D01*
X-3580057Y26851807D01*
X-3321484Y26350290D01*
X-3030021Y25833788D01*
X-2718841Y25325056D01*
X-2401115Y24846849D01*
X-2206192Y24575099D01*
X-1566808Y23779202D01*
X-859454Y23020419D01*
X-93710Y22306488D01*
X720843Y21645151D01*
X1574627Y21044146D01*
X2458062Y20511215D01*
X3361567Y20054096D01*
X3425407Y20025096D01*
X3640524Y19925095D01*
X3839392Y19827162D01*
X4003482Y19740805D01*
X4114265Y19675535D01*
X4135263Y19660782D01*
X4277212Y19552513D01*
X4202356Y19424053D01*
X4103016Y19291478D01*
X3947026Y19128815D01*
X3750073Y18949972D01*
X3527845Y18768858D01*
X3296028Y18599381D01*
X3199730Y18535114D01*
X2712477Y18266498D01*
X2209876Y18080512D01*
X1693618Y17977612D01*
X1165393Y17958258D01*
X1088220Y17962394D01*
X765488Y17993826D01*
X466052Y18047829D01*
X178664Y18129752D01*
X-107929Y18244945D01*
X-404978Y18398759D01*
X-723734Y18596545D01*
X-1075447Y18843653D01*
X-1471370Y19145433D01*
X-1580258Y19231382D01*
X-2056385Y19598177D01*
X-2487027Y19904502D01*
X-2881268Y20154625D01*
X-3248194Y20352810D01*
X-3596888Y20503323D01*
X-3936435Y20610431D01*
X-4275920Y20678398D01*
X-4624428Y20711492D01*
X-4740740Y20715442D01*
X-4913091Y20716222D01*
X-5029671Y20705332D01*
X-5119248Y20675763D01*
X-5210589Y20620506D01*
X-5252545Y20590737D01*
X-5433899Y20425817D01*
X-5541679Y20237914D01*
X-5585736Y20007585D01*
X-5588000Y19928616D01*
X-5575405Y19747353D01*
X-5533260Y19576879D01*
X-5455028Y19408059D01*
X-5334169Y19231764D01*
X-5164145Y19038860D01*
X-4938418Y18820216D01*
X-4650448Y18566701D01*
X-4554969Y18485866D01*
X-4358946Y18320665D01*
X-4187752Y18175199D01*
X-4031823Y18040799D01*
X-3881596Y17908796D01*
X-3727507Y17770521D01*
X-3559993Y17617304D01*
X-3369490Y17440478D01*
X-3146435Y17231373D01*
X-2881263Y16981321D01*
X-2564412Y16681651D01*
X-2561166Y16678580D01*
X-2152019Y16292152D01*
X-1797699Y15959682D01*
X-1492272Y15676166D01*
X-1229801Y15436600D01*
X-1004352Y15235983D01*
X-809989Y15069311D01*
X-640777Y14931581D01*
X-490779Y14817791D01*
X-354061Y14722937D01*
X-224686Y14642017D01*
X-96720Y14570028D01*
X0Y14519846D01*
X541487Y14287813D01*
X1104763Y14128700D01*
X1699334Y14040589D01*
X2334704Y14021564D01*
X2452038Y14025243D01*
X2701260Y14038266D01*
X2932668Y14058362D01*
X3155145Y14088412D01*
X3377572Y14131297D01*
X3608834Y14189896D01*
X3857812Y14267092D01*
X4133389Y14365765D01*
X4444447Y14488796D01*
X4799870Y14639066D01*
X5208539Y14819454D01*
X5679338Y15032843D01*
X5969497Y15166016D01*
X6374029Y15349531D01*
X6713172Y15496777D01*
X6996382Y15611067D01*
X7233113Y15695714D01*
X7432821Y15754030D01*
X7604962Y15789329D01*
X7758992Y15804922D01*
X7796507Y15806144D01*
X8019979Y15792168D01*
X8185062Y15733356D01*
X8310797Y15619129D01*
X8401184Y15470102D01*
X8486213Y15204868D01*
X8500117Y14898452D01*
X8443404Y14554802D01*
X8316586Y14177867D01*
X8202216Y13927667D01*
X8110401Y13757220D01*
X8009872Y13602250D01*
X7885864Y13443351D01*
X7723611Y13261115D01*
X7580324Y13110258D01*
X7265328Y12795262D01*
X6933765Y12483913D01*
X6596569Y12185155D01*
X6264674Y11907934D01*
X5949014Y11661194D01*
X5660524Y11453882D01*
X5410138Y11294942D01*
X5270500Y11220614D01*
X5077546Y11140526D01*
X4856402Y11072929D01*
X4594276Y11015192D01*
X4278374Y10964679D01*
X3895902Y10918759D01*
X3714948Y10900461D01*
X3357090Y10861349D01*
X3074850Y10817276D01*
X2859184Y10762442D01*
X2701050Y10691047D01*
X2591403Y10597290D01*
X2521199Y10475371D01*
X2481395Y10319491D01*
X2462946Y10123848D01*
X2461707Y10096700D01*
X2474714Y9688719D01*
X2551093Y9328578D01*
X2692590Y9014718D01*
X2900951Y8745579D01*
X3177923Y8519603D01*
X3525253Y8335229D01*
X3944687Y8190899D01*
X4437970Y8085053D01*
X4765523Y8039891D01*
X5276786Y8012114D01*
X5799320Y8045398D01*
X6338786Y8141393D01*
X6900845Y8301748D01*
X7491158Y8528112D01*
X8115389Y8822133D01*
X8779197Y9185461D01*
X8859096Y9232214D01*
X9281058Y9486591D01*
X9676712Y9738559D01*
X10055594Y9995673D01*
X10427239Y10265488D01*
X10801182Y10555560D01*
X11186960Y10873443D01*
X11594107Y11226693D01*
X12032158Y11622866D01*
X12510649Y12069517D01*
X12861405Y12403454D01*
X13248470Y12772998D01*
X13581850Y13087818D01*
X13867803Y13352980D01*
X14112584Y13573555D01*
X14322453Y13754609D01*
X14503666Y13901211D01*
X14662481Y14018430D01*
X14805156Y14111334D01*
X14937947Y14184992D01*
X15067114Y14244472D01*
X15194704Y14293360D01*
X15521604Y14375646D01*
X15840649Y14386173D01*
X16158001Y14322994D01*
X16479817Y14184161D01*
X16812258Y13967727D01*
X17161484Y13671745D01*
X17161778Y13671470D01*
X17344138Y13490796D01*
X17535724Y13279963D01*
X17742605Y13031257D01*
X17970848Y12736964D01*
X18226519Y12389370D01*
X18515689Y11980761D01*
X18691821Y11726333D01*
X18877361Y11458332D01*
X19063070Y11193248D01*
X19238727Y10945436D01*
X19394113Y10729254D01*
X19519008Y10559057D01*
X19580851Y10477500D01*
X19880822Y10123039D01*
X20232810Y9760762D01*
X20624082Y9400366D01*
X21041904Y9051546D01*
X21473542Y8723997D01*
X21906262Y8427417D01*
X22327331Y8171499D01*
X22724016Y7965941D01*
X23059930Y7828451D01*
X23423854Y7743267D01*
X23828158Y7718444D01*
X24257799Y7750337D01*
X24697734Y7835302D01*
X25132922Y7969692D01*
X25548319Y8149863D01*
X25928884Y8372168D01*
X26215586Y8593163D01*
X26421759Y8808583D01*
X26573479Y9037059D01*
X26664670Y9265036D01*
X26689256Y9478962D01*
X26667558Y9601217D01*
X26608950Y9742837D01*
X26524696Y9863714D01*
X26404813Y9969984D01*
X26239322Y10067785D01*
X26018241Y10163254D01*
X25731588Y10262528D01*
X25454755Y10346933D01*
X25048785Y10471317D01*
X24711281Y10588707D01*
X24427372Y10707054D01*
X24182187Y10834307D01*
X23960853Y10978416D01*
X23748500Y11147331D01*
X23530256Y11349002D01*
X23471253Y11407243D01*
X23131963Y11779806D01*
X22812875Y12196018D01*
X22520225Y12643180D01*
X22260249Y13108593D01*
X22039183Y13579558D01*
X21863265Y14043374D01*
X21738729Y14487341D01*
X21671813Y14898762D01*
X21661882Y15091833D01*
X21684348Y15377543D01*
X21754633Y15602402D01*
X21870174Y15762490D01*
X22028408Y15853887D01*
X22174073Y15875000D01*
X22312098Y15855696D01*
X22455187Y15793321D01*
X22612078Y15681183D01*
X22791511Y15512588D01*
X23002226Y15280843D01*
X23099454Y15166303D01*
X23477598Y14730223D01*
X23834589Y14354984D01*
X24186885Y14025576D01*
X24550946Y13726987D01*
X24943232Y13444206D01*
X25107425Y13334966D01*
X25784412Y12940979D01*
X26486071Y12624442D01*
X27207043Y12387000D01*
X27941968Y12230295D01*
X28685484Y12155970D01*
X28973914Y12149667D01*
X29589627Y12178069D01*
X30205499Y12265268D01*
X30835757Y12414250D01*
X31494626Y12628001D01*
X31792334Y12741386D01*
X32268163Y12945190D01*
X32682804Y13158693D01*
X33059577Y13396823D01*
X33421799Y13674508D01*
X33792788Y14006676D01*
X33841235Y14053055D01*
X34217023Y14436504D01*
X34533168Y14804130D01*
X34785817Y15150573D01*
X34971115Y15470472D01*
X35085208Y15758465D01*
X35095815Y15798070D01*
X35122127Y15929110D01*
X35115745Y16024126D01*
X35071288Y16127230D01*
X35051223Y16163667D01*
X34962420Y16285349D01*
X34836747Y16415865D01*
X34753720Y16486173D01*
X34550279Y16641319D01*
X33562890Y16340838D01*
X33161832Y16219286D01*
X32828034Y16120315D01*
X32547879Y16041458D01*
X32307751Y15980248D01*
X32094031Y15934218D01*
X31893103Y15900902D01*
X31691351Y15877832D01*
X31475157Y15862541D01*
X31230904Y15852563D01*
X30944976Y15845431D01*
X30813674Y15842779D01*
X30377681Y15837444D01*
X30019500Y15840044D01*
X29741176Y15850532D01*
X29544755Y15868861D01*
X29518770Y15872902D01*
X29249610Y15942538D01*
X28928707Y16067279D01*
X28564404Y16242583D01*
X28165044Y16463903D01*
X27738969Y16726696D01*
X27294521Y17026416D01*
X26967638Y17262669D01*
X26635285Y17516338D01*
X26369972Y17735487D01*
X26165331Y17927783D01*
X26014992Y18100890D01*
X25912586Y18262473D01*
X25851744Y18420196D01*
X25826097Y18581724D01*
X25824263Y18638610D01*
X25835265Y18811358D01*
X25875318Y18961752D01*
X25952425Y19097642D01*
X26074587Y19226876D01*
X26249807Y19357304D01*
X26486086Y19496773D01*
X26791428Y19653132D01*
X26923588Y19716875D01*
X27311484Y19902139D01*
X27633671Y20057117D01*
X27901117Y20187423D01*
X28124793Y20298669D01*
X28315669Y20396469D01*
X28484713Y20486435D01*
X28642895Y20574181D01*
X28801186Y20665320D01*
X28956669Y20757186D01*
X29817871Y21316348D01*
X30645967Y21945454D01*
X31434328Y22637057D01*
X32176326Y23383712D01*
X32518765Y23778463D01*
X36408838Y23778463D01*
X36411542Y23527065D01*
X36423350Y23306885D01*
X36443590Y23144565D01*
X36533892Y22859966D01*
X36687852Y22628041D01*
X36901920Y22453731D01*
X36964442Y22419720D01*
X37185291Y22309667D01*
X42436895Y22310597D01*
X43213855Y22310779D01*
X43910671Y22311082D01*
X44531864Y22311568D01*
X45081958Y22312304D01*
X45565473Y22313355D01*
X45986933Y22314785D01*
X46350860Y22316661D01*
X46661776Y22319046D01*
X46924203Y22322006D01*
X47142663Y22325607D01*
X47321679Y22329913D01*
X47465773Y22334989D01*
X47579466Y22340901D01*
X47667282Y22347713D01*
X47733743Y22355491D01*
X47783370Y22364300D01*
X47820686Y22374205D01*
X47850214Y22385271D01*
X47857834Y22388647D01*
X48031916Y22499418D01*
X48196431Y22657980D01*
X48326329Y22836688D01*
X48387959Y22973785D01*
X48407200Y23090932D01*
X48419575Y23288273D01*
X48424939Y23561603D01*
X48423147Y23906719D01*
X48422197Y23967736D01*
X48408167Y24800305D01*
X48279594Y24983110D01*
X48078177Y25204520D01*
X47838353Y25354515D01*
X47706896Y25400746D01*
X47636375Y25407946D01*
X47481895Y25414296D01*
X47244157Y25419794D01*
X46923866Y25424435D01*
X46521722Y25428215D01*
X46038430Y25431130D01*
X45474691Y25433175D01*
X44831208Y25434347D01*
X44108685Y25434641D01*
X43307823Y25434054D01*
X42429326Y25432580D01*
X42347540Y25432406D01*
X37147500Y25421167D01*
X36978167Y25329794D01*
X36734389Y25154020D01*
X36556021Y24926796D01*
X36506611Y24828500D01*
X36474624Y24710391D01*
X36448132Y24527041D01*
X36427855Y24297742D01*
X36414517Y24041785D01*
X36408838Y23778463D01*
X32518765Y23778463D01*
X32865333Y24177972D01*
X33494722Y25012390D01*
X34057865Y25879520D01*
X34548132Y26771915D01*
X34814010Y27337845D01*
X34930731Y27603523D01*
X41055615Y27590350D01*
X41901552Y27588473D01*
X42667029Y27586622D01*
X43356254Y27584742D01*
X43973432Y27582775D01*
X44522772Y27580667D01*
X45008479Y27578360D01*
X45434761Y27575798D01*
X45805825Y27572926D01*
X46125878Y27569686D01*
X46399126Y27566024D01*
X46629777Y27561882D01*
X46822038Y27557205D01*
X46980114Y27551937D01*
X47108214Y27546020D01*
X47210544Y27539400D01*
X47291311Y27532020D01*
X47354723Y27523823D01*
X47404985Y27514754D01*
X47445315Y27505026D01*
X48019738Y27312464D01*
X48536167Y27062177D01*
X49002205Y26749968D01*
X49333031Y26463258D01*
X49709443Y26048731D01*
X50019480Y25591008D01*
X50268453Y25081341D01*
X50408132Y24692539D01*
X50524834Y24320500D01*
X50524834Y-45106167D01*
X50426793Y-45466000D01*
X50236377Y-46007595D01*
X49973439Y-46511600D01*
X49644062Y-46971888D01*
X49254326Y-47382332D01*
X48810314Y-47736804D01*
X48318108Y-48029177D01*
X47783788Y-48253325D01*
X47603834Y-48309954D01*
X47265167Y-48408167D01*
X148167Y-48415442D01*
X-2296620Y-48415808D01*
X-4658127Y-48416137D01*
X-6937739Y-48416426D01*
X-9136843Y-48416676D01*
X-11256824Y-48416884D01*
X-13299069Y-48417048D01*
X-15264963Y-48417167D01*
X-17155893Y-48417241D01*
X-18973245Y-48417266D01*
X-20718404Y-48417242D01*
X-22392758Y-48417168D01*
X-23997691Y-48417041D01*
X-25534590Y-48416860D01*
X-27004841Y-48416623D01*
X-28409830Y-48416330D01*
X-29750943Y-48415979D01*
X-31029566Y-48415568D01*
X-32247086Y-48415095D01*
X-33404887Y-48414560D01*
X-34504357Y-48413960D01*
X-35546881Y-48413294D01*
X-36533846Y-48412561D01*
X-37466636Y-48411759D01*
X-38346640Y-48410886D01*
X-39175241Y-48409942D01*
X-39953827Y-48408924D01*
X-40683784Y-48407832D01*
X-41366498Y-48406663D01*
X-42003354Y-48405416D01*
X-42595739Y-48404090D01*
X-43145038Y-48402682D01*
X-43652638Y-48401193D01*
X-44119926Y-48399619D01*
X-44548286Y-48397960D01*
X-44939105Y-48396214D01*
X-45293769Y-48394380D01*
X-45613664Y-48392455D01*
X-45900176Y-48390439D01*
X-46154692Y-48388331D01*
X-46378596Y-48386127D01*
X-46573276Y-48383828D01*
X-46740117Y-48381431D01*
X-46880505Y-48378936D01*
X-46995827Y-48376340D01*
X-47087468Y-48373641D01*
X-47156815Y-48370840D01*
X-47205253Y-48367933D01*
X-47234169Y-48364920D01*
X-47239217Y-48364001D01*
X-47792854Y-48208703D01*
X-48294135Y-47992005D01*
X-48754336Y-47707517D01*
X-49184731Y-47348848D01*
X-49384455Y-47148023D01*
X-49737451Y-46722791D01*
X-50014685Y-46273705D01*
X-50223039Y-45787401D01*
X-50369394Y-45250518D01*
X-50374495Y-45225634D01*
X-50461693Y-44794768D01*
X-50450930Y-10279467D01*
X-50440355Y23629880D01*
X-48214413Y23629880D01*
X-48211897Y23370720D01*
X-48200642Y23170245D01*
X-48178312Y23015514D01*
X-48142567Y22893585D01*
X-48091069Y22791516D01*
X-48021481Y22696366D01*
X-47971762Y22639085D01*
X-47931247Y22591529D01*
X-47896961Y22548785D01*
X-47864428Y22510597D01*
X-47829172Y22476710D01*
X-47786716Y22446867D01*
X-47732583Y22420813D01*
X-47662298Y22398291D01*
X-47571383Y22379047D01*
X-47455362Y22362823D01*
X-47309759Y22349364D01*
X-47130097Y22338414D01*
X-46911900Y22329718D01*
X-46650691Y22323019D01*
X-46341994Y22318061D01*
X-45981332Y22314589D01*
X-45564228Y22312347D01*
X-45086207Y22311079D01*
X-44542791Y22310528D01*
X-43929505Y22310439D01*
X-43241872Y22310557D01*
X-42475414Y22310625D01*
X-42225228Y22310597D01*
X-36973624Y22309667D01*
X-36755030Y22418597D01*
X-36521967Y22579822D01*
X-36349690Y22797915D01*
X-36243704Y23065613D01*
X-36234874Y23104678D01*
X-36215894Y23251609D01*
X-36203930Y23466800D01*
X-36199546Y23734088D01*
X-36202869Y24019495D01*
X-36210355Y24283147D01*
X-36219617Y24477870D01*
X-36232649Y24619401D01*
X-36251445Y24723478D01*
X-36277998Y24805837D01*
X-36311470Y24876868D01*
X-36464844Y25092367D01*
X-36667159Y25265967D01*
X-36895338Y25379400D01*
X-36973098Y25400669D01*
X-37040760Y25408359D01*
X-37169278Y25415118D01*
X-37360798Y25420960D01*
X-37617466Y25425896D01*
X-37941429Y25429942D01*
X-38334832Y25433109D01*
X-38799821Y25435413D01*
X-39338543Y25436865D01*
X-39953143Y25437480D01*
X-40645767Y25437270D01*
X-41418563Y25436249D01*
X-42273674Y25434431D01*
X-42357833Y25434221D01*
X-47525832Y25421167D01*
X-47733478Y25292781D01*
X-47879493Y25181476D01*
X-48016151Y25043556D01*
X-48068812Y24975281D01*
X-48196500Y24786167D01*
X-48210530Y23960667D01*
X-48214413Y23629880D01*
X-50440355Y23629880D01*
X-50440166Y24235833D01*
X-50347770Y24559532D01*
X-50141877Y25139859D01*
X-49871973Y25666981D01*
X-49540777Y26138158D01*
X-49151007Y26550649D01*
X-48705380Y26901714D01*
X-48206616Y27188612D01*
X-47657432Y27408604D01*
X-47464464Y27466364D01*
X-47053500Y27579612D01*
X-41373952Y27591647D01*
X-35694405Y27603681D01*
X-35670685Y27951757D01*
X-35662493Y28089914D01*
X-35651828Y28296887D01*
X-35639426Y28556888D01*
X-35626021Y28854129D01*
X-35612348Y29172819D01*
X-35601301Y29442833D01*
X-35563618Y30320277D01*
X-35519613Y31229430D01*
X-35470010Y32159853D01*
X-35415531Y33101106D01*
X-35356897Y34042749D01*
X-35294830Y34974344D01*
X-35230053Y35885451D01*
X-35163287Y36765631D01*
X-35095254Y37604444D01*
X-35026678Y38391452D01*
X-34958278Y39116213D01*
X-34890779Y39768290D01*
X-34881037Y39856833D01*
X-34763603Y40823269D01*
X-34633944Y41712452D01*
X-34490777Y42531090D01*
X-34332814Y43285888D01*
X-34158773Y43983551D01*
X-33967366Y44630786D01*
X-33964242Y44640500D01*
X-33822485Y45047628D01*
X-33683117Y45378244D01*
X-33542164Y45640265D01*
X-33395653Y45841605D01*
X-33322760Y45918469D01*
X-33075393Y46122002D01*
X-32752538Y46333226D01*
X-32362644Y46548765D01*
X-31914165Y46765244D01*
X-31415551Y46979287D01*
X-30875255Y47187521D01*
X-30301727Y47386569D01*
X-29703419Y47573056D01*
X-29088782Y47743607D01*
X-28466268Y47894848D01*
X-28261247Y47939796D01*
X-27828453Y48029588D01*
X-27458555Y48099829D01*
X-27132639Y48152766D01*
X-26831787Y48190647D01*
X-26537086Y48215720D01*
X-26229618Y48230234D01*
X-25890470Y48236435D01*
X-25759833Y48237060D01*
X-25403310Y48234902D01*
X-25118887Y48224966D01*
X-24894149Y48204548D01*
X-24716681Y48170948D01*
X-24574069Y48121462D01*
X-24453898Y48053389D01*
X-24343754Y47964027D01*
X-24296572Y47918572D01*
X-24182001Y47780576D01*
X-24099303Y47620362D01*
X-24044546Y47423137D01*
X-24013796Y47174109D01*
X-24003119Y46858483D01*
X-24003000Y46814439D01*
X-24007034Y46584705D01*
X-24019938Y46344172D01*
X-24042914Y46085955D01*
X-24077165Y45803170D01*
X-24123892Y45488931D01*
X-24184299Y45136355D01*
X-24259587Y44738556D01*
X-24350959Y44288649D01*
X-24459616Y43779750D01*
X-24586763Y43204974D01*
X-24733600Y42557436D01*
X-24787216Y42323854D01*
X-24933247Y41682673D01*
X-25071282Y41061991D01*
X-25203513Y40450792D01*
X-25332130Y39838063D01*
X-25459322Y39212786D01*
X-25587280Y38563949D01*
X-25718194Y37880535D01*
X-25854255Y37151529D01*
X-25997652Y36365918D01*
X-26150576Y35512684D01*
X-26224745Y35094333D01*
X-26282678Y34763158D01*
X-26347842Y34384609D01*
X-26419071Y33965875D01*
X-26495199Y33514141D01*
X-26575059Y33036593D01*
X-26657485Y32540419D01*
X-26741309Y32032804D01*
X-26825366Y31520936D01*
X-26908489Y31011999D01*
X-26989511Y30513182D01*
X-27067266Y30031670D01*
X-27140587Y29574649D01*
X-27208307Y29149307D01*
X-27269260Y28762829D01*
X-27322280Y28422402D01*
X-27366199Y28135213D01*
X-27399852Y27908447D01*
X-27422071Y27749291D01*
X-27431690Y27664932D01*
X-27432000Y27657366D01*
X-27418696Y27644420D01*
X-27374688Y27633537D01*
X-27293832Y27624555D01*
X-27169982Y27617312D01*
X-26996994Y27611648D01*
X-26768723Y27607400D01*
X-26479024Y27604408D01*
X-26121753Y27602509D01*
X-25690764Y27601543D01*
X-25298661Y27601333D01*
X-23165322Y27601333D01*
X-23140495Y27971750D01*
X-23128561Y28166615D01*
X-23115132Y28412586D01*
X-23101966Y28676168D01*
X-23092148Y28892500D01*
X-23050946Y29818739D01*
X-23006289Y30752480D01*
X-22958560Y31688406D01*
X-22908140Y32621198D01*
X-22855411Y33545535D01*
X-22800754Y34456100D01*
X-22744551Y35347574D01*
X-22687184Y36214636D01*
X-22629034Y37051970D01*
X-22570482Y37854254D01*
X-22511911Y38616172D01*
X-22453701Y39332403D01*
X-22396235Y39997629D01*
X-22339894Y40606530D01*
X-22285060Y41153788D01*
X-22232114Y41634084D01*
X-22181438Y42042099D01*
X-22133413Y42372514D01*
X-22118781Y42460333D01*
X-22031911Y42901898D01*
X-21921754Y43367294D01*
X-21794218Y43836575D01*
X-21655214Y44289797D01*
X-21510650Y44707013D01*
X-21366436Y45068279D01*
X-21307792Y45197682D01*
X-21087174Y45567191D01*
X-20792294Y45899834D01*
X-20468166Y46165098D01*
X-20074423Y46416356D01*
X-19606544Y46664955D01*
X-19075058Y46907574D01*
X-18490492Y47140893D01*
X-17863375Y47361592D01*
X-17204236Y47566351D01*
X-16523602Y47751849D01*
X-15832002Y47914766D01*
X-15139964Y48051781D01*
X-14458017Y48159574D01*
X-13952579Y48219949D01*
X-13683416Y48239886D01*
X-13381676Y48250050D01*
X-13066032Y48250977D01*
X-12755160Y48243205D01*
G36*
X16528393Y27447572D02*
G01*
X16654300Y27329342D01*
X16764909Y27140332D01*
X16858115Y26887125D01*
X16931810Y26576298D01*
X16983888Y26214432D01*
X17012241Y25808107D01*
X17016965Y25528111D01*
X17009457Y25247678D01*
X16983652Y25018336D01*
X16932194Y24807220D01*
X16847723Y24581463D01*
X16762606Y24391986D01*
X16486872Y23901515D01*
X16139690Y23447859D01*
X15728342Y23036684D01*
X15260107Y22673656D01*
X14742269Y22364442D01*
X14182106Y22114707D01*
X13604996Y21934605D01*
X13361770Y21879732D01*
X13140834Y21840854D01*
X12958963Y21820169D01*
X12832935Y21819877D01*
X12795250Y21828423D01*
X12753716Y21856531D01*
X12757401Y21892365D01*
X12813942Y21942225D01*
X12930974Y22012414D01*
X13116132Y22109234D01*
X13165798Y22134248D01*
X13586856Y22371709D01*
X13937377Y22630301D01*
X14231067Y22922662D01*
X14481630Y23261433D01*
X14595296Y23452667D01*
X14683320Y23617161D01*
X14751032Y23763486D01*
X14801498Y23907137D01*
X14837786Y24063609D01*
X14862962Y24248399D01*
X14880094Y24477003D01*
X14892248Y24764915D01*
X14898794Y24986119D01*
X14922500Y25863404D01*
X15180018Y26129119D01*
X15404454Y26371022D01*
X15581136Y26587829D01*
X15729954Y26805362D01*
X15825583Y26967231D01*
X15977384Y27200198D01*
X16132671Y27368784D01*
X16284092Y27466189D01*
X16389297Y27488445D01*
X16528393Y27447572D01*
G37*
X16528393Y27447572D02*
X16654300Y27329342D01*
X16764909Y27140332D01*
X16858115Y26887125D01*
X16931810Y26576298D01*
X16983888Y26214432D01*
X17012241Y25808107D01*
X17016965Y25528111D01*
X17009457Y25247678D01*
X16983652Y25018336D01*
X16932194Y24807220D01*
X16847723Y24581463D01*
X16762606Y24391986D01*
X16486872Y23901515D01*
X16139690Y23447859D01*
X15728342Y23036684D01*
X15260107Y22673656D01*
X14742269Y22364442D01*
X14182106Y22114707D01*
X13604996Y21934605D01*
X13361770Y21879732D01*
X13140834Y21840854D01*
X12958963Y21820169D01*
X12832935Y21819877D01*
X12795250Y21828423D01*
X12753716Y21856531D01*
X12757401Y21892365D01*
X12813942Y21942225D01*
X12930974Y22012414D01*
X13116132Y22109234D01*
X13165798Y22134248D01*
X13586856Y22371709D01*
X13937377Y22630301D01*
X14231067Y22922662D01*
X14481630Y23261433D01*
X14595296Y23452667D01*
X14683320Y23617161D01*
X14751032Y23763486D01*
X14801498Y23907137D01*
X14837786Y24063609D01*
X14862962Y24248399D01*
X14880094Y24477003D01*
X14892248Y24764915D01*
X14898794Y24986119D01*
X14922500Y25863404D01*
X15180018Y26129119D01*
X15404454Y26371022D01*
X15581136Y26587829D01*
X15729954Y26805362D01*
X15825583Y26967231D01*
X15977384Y27200198D01*
X16132671Y27368784D01*
X16284092Y27466189D01*
X16389297Y27488445D01*
X16528393Y27447572D01*
G36*
X11545365Y27350470D02*
G01*
X11855972Y27245010D01*
X12161382Y27060308D01*
X12456978Y26797066D01*
X12612284Y26620799D01*
X12871287Y26256586D01*
X13047538Y25899768D01*
X13142143Y25546065D01*
X13156209Y25191195D01*
X13090841Y24830880D01*
X13082303Y24801988D01*
X13009136Y24576322D01*
X12940150Y24407762D01*
X12861729Y24270642D01*
X12760253Y24139293D01*
X12687526Y24057870D01*
X12431947Y23841062D01*
X12131512Y23688985D01*
X11800002Y23605297D01*
X11451199Y23593655D01*
X11138096Y23646660D01*
X10757280Y23789437D01*
X10425622Y23997008D01*
X10149454Y24263579D01*
X9935109Y24583358D01*
X9819223Y24853177D01*
X9775070Y24997267D01*
X9750066Y25127535D01*
X9741321Y25273136D01*
X9745944Y25463226D01*
X9750325Y25548167D01*
X9785494Y25914884D01*
X9851098Y26218295D01*
X9954763Y26476630D01*
X10104114Y26708121D01*
X10306778Y26930998D01*
X10343341Y26965841D01*
X10628550Y27184373D01*
X10927036Y27320854D01*
X11234181Y27375985D01*
X11545365Y27350470D01*
G37*
X11545365Y27350470D02*
X11855972Y27245010D01*
X12161382Y27060308D01*
X12456978Y26797066D01*
X12612284Y26620799D01*
X12871287Y26256586D01*
X13047538Y25899768D01*
X13142143Y25546065D01*
X13156209Y25191195D01*
X13090841Y24830880D01*
X13082303Y24801988D01*
X13009136Y24576322D01*
X12940150Y24407762D01*
X12861729Y24270642D01*
X12760253Y24139293D01*
X12687526Y24057870D01*
X12431947Y23841062D01*
X12131512Y23688985D01*
X11800002Y23605297D01*
X11451199Y23593655D01*
X11138096Y23646660D01*
X10757280Y23789437D01*
X10425622Y23997008D01*
X10149454Y24263579D01*
X9935109Y24583358D01*
X9819223Y24853177D01*
X9775070Y24997267D01*
X9750066Y25127535D01*
X9741321Y25273136D01*
X9745944Y25463226D01*
X9750325Y25548167D01*
X9785494Y25914884D01*
X9851098Y26218295D01*
X9954763Y26476630D01*
X10104114Y26708121D01*
X10306778Y26930998D01*
X10343341Y26965841D01*
X10628550Y27184373D01*
X10927036Y27320854D01*
X11234181Y27375985D01*
X11545365Y27350470D01*
G36*
X18553295Y33847570D02*
G01*
X18943425Y33705425D01*
X19275241Y33501924D01*
X19548505Y33237317D01*
X19762980Y32911856D01*
X19918427Y32525794D01*
X19963698Y32355866D01*
X19994742Y32185439D01*
X20013043Y31986600D01*
X20019718Y31740299D01*
X20016507Y31453667D01*
X20002290Y30839833D01*
X19834451Y30525399D01*
X19607703Y30167502D01*
X19344234Y29867783D01*
X19051939Y29630791D01*
X18738714Y29461075D01*
X18412453Y29363184D01*
X18081052Y29341669D01*
X17840977Y29376672D01*
X17513249Y29497263D01*
X17214295Y29689822D01*
X16950054Y29944786D01*
X16726461Y30252594D01*
X16549456Y30603685D01*
X16424975Y30988497D01*
X16358957Y31397468D01*
X16354016Y31771167D01*
X16409232Y32171653D01*
X16523093Y32546732D01*
X16688332Y32889544D01*
X16897685Y33193231D01*
X17143887Y33450933D01*
X17419672Y33655790D01*
X17717774Y33800943D01*
X18030930Y33879533D01*
X18351873Y33884701D01*
X18553295Y33847570D01*
G37*
X18553295Y33847570D02*
X18943425Y33705425D01*
X19275241Y33501924D01*
X19548505Y33237317D01*
X19762980Y32911856D01*
X19918427Y32525794D01*
X19963698Y32355866D01*
X19994742Y32185439D01*
X20013043Y31986600D01*
X20019718Y31740299D01*
X20016507Y31453667D01*
X20002290Y30839833D01*
X19834451Y30525399D01*
X19607703Y30167502D01*
X19344234Y29867783D01*
X19051939Y29630791D01*
X18738714Y29461075D01*
X18412453Y29363184D01*
X18081052Y29341669D01*
X17840977Y29376672D01*
X17513249Y29497263D01*
X17214295Y29689822D01*
X16950054Y29944786D01*
X16726461Y30252594D01*
X16549456Y30603685D01*
X16424975Y30988497D01*
X16358957Y31397468D01*
X16354016Y31771167D01*
X16409232Y32171653D01*
X16523093Y32546732D01*
X16688332Y32889544D01*
X16897685Y33193231D01*
X17143887Y33450933D01*
X17419672Y33655790D01*
X17717774Y33800943D01*
X18030930Y33879533D01*
X18351873Y33884701D01*
X18553295Y33847570D01*
G36*
X10227148Y34787102D02*
G01*
X10475035Y34745712D01*
X10693901Y34655392D01*
X10906819Y34506929D01*
X11113224Y34315184D01*
X11366082Y34028961D01*
X11550624Y33743262D01*
X11674206Y33439511D01*
X11744188Y33099132D01*
X11767925Y32703547D01*
X11768041Y32661856D01*
X11733920Y32179172D01*
X11634563Y31740476D01*
X11472255Y31350003D01*
X11249282Y31011987D01*
X10967929Y30730659D01*
X10630483Y30510255D01*
X10597435Y30493550D01*
X10416174Y30409917D01*
X10267029Y30360409D01*
X10110005Y30334779D01*
X9935144Y30323906D01*
X9684444Y30324914D01*
X9479551Y30353038D01*
X9351812Y30388469D01*
X9009069Y30544386D01*
X8715516Y30767481D01*
X8474388Y31053819D01*
X8288923Y31399466D01*
X8162356Y31800488D01*
X8152488Y31846263D01*
X8091499Y32319415D01*
X8103398Y32780766D01*
X8185651Y33220534D01*
X8335722Y33628938D01*
X8551077Y33996198D01*
X8779193Y34264372D01*
X9034946Y34490061D01*
X9286282Y34645384D01*
X9555233Y34740405D01*
X9863830Y34785187D01*
X9927167Y34788775D01*
X10227148Y34787102D01*
G37*
X10227148Y34787102D02*
X10475035Y34745712D01*
X10693901Y34655392D01*
X10906819Y34506929D01*
X11113224Y34315184D01*
X11366082Y34028961D01*
X11550624Y33743262D01*
X11674206Y33439511D01*
X11744188Y33099132D01*
X11767925Y32703547D01*
X11768041Y32661856D01*
X11733920Y32179172D01*
X11634563Y31740476D01*
X11472255Y31350003D01*
X11249282Y31011987D01*
X10967929Y30730659D01*
X10630483Y30510255D01*
X10597435Y30493550D01*
X10416174Y30409917D01*
X10267029Y30360409D01*
X10110005Y30334779D01*
X9935144Y30323906D01*
X9684444Y30324914D01*
X9479551Y30353038D01*
X9351812Y30388469D01*
X9009069Y30544386D01*
X8715516Y30767481D01*
X8474388Y31053819D01*
X8288923Y31399466D01*
X8162356Y31800488D01*
X8152488Y31846263D01*
X8091499Y32319415D01*
X8103398Y32780766D01*
X8185651Y33220534D01*
X8335722Y33628938D01*
X8551077Y33996198D01*
X8779193Y34264372D01*
X9034946Y34490061D01*
X9286282Y34645384D01*
X9555233Y34740405D01*
X9863830Y34785187D01*
X9927167Y34788775D01*
X10227148Y34787102D01*
D11*
X-49948508Y1851311D03*
X-49948508Y-40099258D03*
X49799093Y-40099258D03*
X49799093Y1851311D03*
M02*
