G04 #@! TF.GenerationSoftware,KiCad,Pcbnew,(5.1.5-0-10_14)*
G04 #@! TF.CreationDate,2020-02-09T18:22:42-08:00*
G04 #@! TF.ProjectId,badge-proto,62616467-652d-4707-926f-746f2e6b6963,rev?*
G04 #@! TF.SameCoordinates,Original*
G04 #@! TF.FileFunction,Copper,L2,Bot*
G04 #@! TF.FilePolarity,Positive*
%FSLAX46Y46*%
G04 Gerber Fmt 4.6, Leading zero omitted, Abs format (unit mm)*
G04 Created by KiCad (PCBNEW (5.1.5-0-10_14)) date 2020-02-09 18:22:42*
%MOMM*%
%LPD*%
G04 APERTURE LIST*
%ADD10C,0.010000*%
%ADD11C,0.467722*%
G04 APERTURE END LIST*
D10*
G36*
X15689475Y48406602D02*
G01*
X16051048Y48397296D01*
X16368610Y48382714D01*
X16626091Y48362766D01*
X16721667Y48351525D01*
X17712407Y48193110D01*
X18634393Y47996913D01*
X19496094Y47759864D01*
X20305980Y47478896D01*
X21072520Y47150940D01*
X21804183Y46772925D01*
X22509438Y46341785D01*
X22784984Y46154507D01*
X23614627Y45524470D01*
X24381896Y44839191D01*
X25084759Y44101543D01*
X25721181Y43314395D01*
X26289131Y42480620D01*
X26786574Y41603088D01*
X27211478Y40684671D01*
X27561810Y39728240D01*
X27724015Y39179500D01*
X27808244Y38855475D01*
X27880070Y38546194D01*
X27940435Y38241527D01*
X27990280Y37931345D01*
X28030547Y37605517D01*
X28062178Y37253913D01*
X28086115Y36866404D01*
X28103299Y36432861D01*
X28114674Y35943152D01*
X28121179Y35387149D01*
X28123523Y34882667D01*
X28120062Y34155705D01*
X28105255Y33501004D01*
X28077785Y32906753D01*
X28036336Y32361143D01*
X27979591Y31852363D01*
X27906233Y31368603D01*
X27814946Y30898054D01*
X27704414Y30428905D01*
X27573752Y29950833D01*
X27440762Y29536057D01*
X27275280Y29089552D01*
X27085857Y28630207D01*
X26881046Y28176913D01*
X26669398Y27748557D01*
X26459464Y27364028D01*
X26259796Y27042215D01*
X26251139Y27029437D01*
X26139383Y26862184D01*
X26069445Y26745657D01*
X26033826Y26661765D01*
X26025026Y26592414D01*
X26035545Y26519511D01*
X26037017Y26512889D01*
X26074224Y26402016D01*
X26120635Y26328841D01*
X26127189Y26323606D01*
X26246266Y26293864D01*
X26411298Y26331535D01*
X26619438Y26434846D01*
X26867837Y26602024D01*
X27153648Y26831296D01*
X27474024Y27120889D01*
X27595648Y27237979D01*
X28253832Y27927920D01*
X28833226Y28636645D01*
X29339066Y29372549D01*
X29776589Y30144028D01*
X30151031Y30959479D01*
X30467628Y31827298D01*
X30477943Y31859401D01*
X30685765Y32609496D01*
X30831099Y33369622D01*
X30913916Y34146733D01*
X30934193Y34947780D01*
X30891901Y35779716D01*
X30787015Y36649494D01*
X30619509Y37564066D01*
X30453745Y38279679D01*
X30397464Y38498820D01*
X30337224Y38721457D01*
X30270416Y38955816D01*
X30194430Y39210121D01*
X30106659Y39492598D01*
X30004493Y39811474D01*
X29885323Y40174972D01*
X29746540Y40591320D01*
X29585535Y41068743D01*
X29399698Y41615466D01*
X29342547Y41783000D01*
X29200781Y42201693D01*
X29084987Y42555241D01*
X28992362Y42858127D01*
X28920101Y43124833D01*
X28865400Y43369841D01*
X28825456Y43607633D01*
X28797463Y43852691D01*
X28778618Y44119497D01*
X28766116Y44422533D01*
X28757153Y44776280D01*
X28756451Y44809833D01*
X28749689Y45221298D01*
X28749155Y45560586D01*
X28756392Y45840060D01*
X28772946Y46072080D01*
X28800359Y46269007D01*
X28840177Y46443202D01*
X28893945Y46607028D01*
X28963206Y46772843D01*
X29015623Y46884167D01*
X29259518Y47309901D01*
X29542271Y47661197D01*
X29865630Y47939714D01*
X30231341Y48147116D01*
X30422550Y48221934D01*
X30579012Y48269174D01*
X30731719Y48299208D01*
X30907906Y48315544D01*
X31134804Y48321689D01*
X31199667Y48322037D01*
X31466300Y48316517D01*
X31670324Y48293182D01*
X31833201Y48244211D01*
X31976397Y48161788D01*
X32121376Y48038092D01*
X32202935Y47956577D01*
X32411351Y47684754D01*
X32551458Y47368785D01*
X32623634Y47006722D01*
X32628253Y46596619D01*
X32565694Y46136527D01*
X32560158Y46108982D01*
X32479759Y45623031D01*
X32441193Y45165450D01*
X32445521Y44753530D01*
X32465297Y44561545D01*
X32490371Y44417495D01*
X32526632Y44277404D01*
X32579151Y44131432D01*
X32652997Y43969739D01*
X32753240Y43782483D01*
X32884950Y43559825D01*
X33053197Y43291923D01*
X33263050Y42968936D01*
X33367193Y42810889D01*
X33738879Y42239495D01*
X34062048Y41721500D01*
X34342398Y41245271D01*
X34585623Y40799172D01*
X34797421Y40371570D01*
X34983487Y39950829D01*
X35149517Y39525315D01*
X35301207Y39083394D01*
X35444253Y38613430D01*
X35475025Y38505488D01*
X35685042Y37680374D01*
X35864540Y36809563D01*
X36012252Y35907864D01*
X36126909Y34990084D01*
X36207244Y34071032D01*
X36251990Y33165516D01*
X36259878Y32288343D01*
X36229642Y31454323D01*
X36160013Y30678264D01*
X36151164Y30607000D01*
X36066238Y30076552D01*
X35942981Y29500267D01*
X35787939Y28904106D01*
X35607660Y28314025D01*
X35480033Y27945992D01*
X35355076Y27603603D01*
X41246621Y27590688D01*
X47138167Y27577772D01*
X47489275Y27483916D01*
X48058889Y27291931D01*
X48579680Y27034456D01*
X49047294Y26714005D01*
X49427063Y26365443D01*
X49782476Y25943010D01*
X50070935Y25491428D01*
X50302227Y24993763D01*
X50427291Y24635152D01*
X50524834Y24320500D01*
X50537532Y-10223500D01*
X50538303Y-12401812D01*
X50538983Y-14496716D01*
X50539571Y-16509473D01*
X50540065Y-18441341D01*
X50540464Y-20293580D01*
X50540767Y-22067448D01*
X50540972Y-23764206D01*
X50541079Y-25385113D01*
X50541085Y-26931428D01*
X50540989Y-28404410D01*
X50540791Y-29805319D01*
X50540488Y-31135414D01*
X50540080Y-32395954D01*
X50539565Y-33588199D01*
X50538942Y-34713407D01*
X50538209Y-35772839D01*
X50537366Y-36767754D01*
X50536411Y-37699411D01*
X50535342Y-38569069D01*
X50534158Y-39377988D01*
X50532859Y-40127426D01*
X50531442Y-40818644D01*
X50529906Y-41452901D01*
X50528251Y-42031455D01*
X50526474Y-42555567D01*
X50524575Y-43026495D01*
X50522551Y-43445499D01*
X50520403Y-43813839D01*
X50518127Y-44132773D01*
X50515724Y-44403561D01*
X50513192Y-44627462D01*
X50510529Y-44805736D01*
X50507735Y-44939642D01*
X50504807Y-45030439D01*
X50501745Y-45079387D01*
X50501117Y-45084259D01*
X50374930Y-45629636D01*
X50173553Y-46145162D01*
X49903116Y-46624560D01*
X49569749Y-47061553D01*
X49179580Y-47449864D01*
X48738740Y-47783214D01*
X48253358Y-48055328D01*
X47729563Y-48259927D01*
X47293193Y-48369589D01*
X47268401Y-48372687D01*
X47225877Y-48375678D01*
X47164220Y-48378562D01*
X47082029Y-48381341D01*
X46977901Y-48384017D01*
X46850434Y-48386591D01*
X46698226Y-48389066D01*
X46519876Y-48391442D01*
X46313981Y-48393722D01*
X46079141Y-48395906D01*
X45813952Y-48397998D01*
X45517013Y-48399997D01*
X45186923Y-48401906D01*
X44822278Y-48403727D01*
X44421678Y-48405460D01*
X43983721Y-48407109D01*
X43507004Y-48408674D01*
X42990126Y-48410156D01*
X42431685Y-48411559D01*
X41830278Y-48412882D01*
X41184505Y-48414128D01*
X40492963Y-48415299D01*
X39754251Y-48416396D01*
X38966966Y-48417421D01*
X38129706Y-48418374D01*
X37241070Y-48419259D01*
X36299656Y-48420077D01*
X35304062Y-48420828D01*
X34252886Y-48421515D01*
X33144726Y-48422140D01*
X31978181Y-48422704D01*
X30751848Y-48423209D01*
X29464325Y-48423656D01*
X28114212Y-48424046D01*
X26700105Y-48424383D01*
X25220602Y-48424666D01*
X23674303Y-48424899D01*
X22059805Y-48425082D01*
X20375707Y-48425217D01*
X18620605Y-48425305D01*
X16793100Y-48425349D01*
X14891788Y-48425350D01*
X12915267Y-48425309D01*
X10862137Y-48425229D01*
X8730994Y-48425110D01*
X6520438Y-48424955D01*
X4229066Y-48424765D01*
X1855476Y-48424542D01*
X28026Y-48424354D01*
X-1965580Y-48424112D01*
X-3939012Y-48423811D01*
X-5890557Y-48423453D01*
X-7818503Y-48423039D01*
X-9721140Y-48422571D01*
X-11596755Y-48422050D01*
X-13443636Y-48421477D01*
X-15260072Y-48420854D01*
X-17044352Y-48420183D01*
X-18794763Y-48419464D01*
X-20509594Y-48418700D01*
X-22187132Y-48417891D01*
X-23825668Y-48417039D01*
X-25423488Y-48416146D01*
X-26978881Y-48415213D01*
X-28490135Y-48414241D01*
X-29955539Y-48413232D01*
X-31373381Y-48412187D01*
X-32741949Y-48411108D01*
X-34059531Y-48409996D01*
X-35324416Y-48408852D01*
X-36534893Y-48407678D01*
X-37689249Y-48406476D01*
X-38785773Y-48405246D01*
X-39822752Y-48403991D01*
X-40798476Y-48402711D01*
X-41711233Y-48401409D01*
X-42559311Y-48400085D01*
X-43340998Y-48398740D01*
X-44054582Y-48397378D01*
X-44698352Y-48395998D01*
X-45270597Y-48394602D01*
X-45769604Y-48393192D01*
X-46193662Y-48391769D01*
X-46541058Y-48390334D01*
X-46810083Y-48388889D01*
X-46999023Y-48387436D01*
X-47106166Y-48385976D01*
X-47131404Y-48384983D01*
X-47535117Y-48289445D01*
X-47958202Y-48140260D01*
X-48368089Y-47950642D01*
X-48725666Y-47738264D01*
X-48917682Y-47591096D01*
X-49135033Y-47398103D01*
X-49353820Y-47182339D01*
X-49550141Y-46966855D01*
X-49640857Y-46855550D01*
X-49930742Y-46415463D01*
X-50164181Y-45924510D01*
X-50333629Y-45400944D01*
X-50417017Y-44978165D01*
X-50420063Y-44932938D01*
X-50422975Y-44840494D01*
X-50425754Y-44699697D01*
X-50428402Y-44509411D01*
X-50430920Y-44268501D01*
X-50433308Y-43975832D01*
X-50435569Y-43630267D01*
X-50437702Y-43230672D01*
X-50439710Y-42775910D01*
X-50441594Y-42264847D01*
X-50443354Y-41696346D01*
X-50444992Y-41069273D01*
X-50446510Y-40382491D01*
X-50447907Y-39634866D01*
X-50449185Y-38825261D01*
X-50450347Y-37952541D01*
X-50451391Y-37015571D01*
X-50452321Y-36013215D01*
X-50453136Y-34944337D01*
X-50453839Y-33807803D01*
X-50454429Y-32602476D01*
X-50454910Y-31327221D01*
X-50455280Y-29980902D01*
X-50455543Y-28562384D01*
X-50455698Y-27070532D01*
X-50455748Y-25504210D01*
X-50455692Y-23862282D01*
X-50455533Y-22143613D01*
X-50455272Y-20347067D01*
X-50454909Y-18471509D01*
X-50454446Y-16515803D01*
X-50453884Y-14478814D01*
X-50453225Y-12359406D01*
X-50452485Y-10202333D01*
X-50440378Y23644594D01*
X-48214162Y23644594D01*
X-48213900Y23410180D01*
X-48208875Y23234386D01*
X-48198409Y23104225D01*
X-48181823Y23006708D01*
X-48158438Y22928845D01*
X-48156714Y22924278D01*
X-48032596Y22705329D01*
X-47848547Y22515738D01*
X-47646166Y22388870D01*
X-47618139Y22377449D01*
X-47583730Y22367207D01*
X-47538426Y22358079D01*
X-47477714Y22350000D01*
X-47397078Y22342904D01*
X-47292005Y22336728D01*
X-47157981Y22331406D01*
X-46990493Y22326872D01*
X-46785025Y22323063D01*
X-46537065Y22319913D01*
X-46242098Y22317357D01*
X-45895610Y22315331D01*
X-45493087Y22313768D01*
X-45030016Y22312606D01*
X-44501882Y22311777D01*
X-43904172Y22311219D01*
X-43232371Y22310864D01*
X-42481965Y22310650D01*
X-42205678Y22310597D01*
X-36934524Y22309667D01*
X-36744678Y22410095D01*
X-36519741Y22575375D01*
X-36349082Y22798293D01*
X-36244031Y23063524D01*
X-36236290Y23097860D01*
X-36215669Y23255881D01*
X-36203225Y23484166D01*
X-36199467Y23768659D01*
X-36200922Y23876000D01*
X36427834Y23876000D01*
X36428345Y23589617D01*
X36430802Y23373838D01*
X36436589Y23214604D01*
X36447092Y23097854D01*
X36463694Y23009527D01*
X36487780Y22935564D01*
X36520735Y22861905D01*
X36529457Y22844052D01*
X36644823Y22673582D01*
X36806412Y22514743D01*
X36985279Y22392944D01*
X37097220Y22345637D01*
X37150519Y22342147D01*
X37283275Y22338733D01*
X37490277Y22335425D01*
X37766315Y22332252D01*
X38106180Y22329246D01*
X38504661Y22326436D01*
X38956548Y22323852D01*
X39456632Y22321525D01*
X39999701Y22319483D01*
X40580546Y22317758D01*
X41193957Y22316379D01*
X41834724Y22315377D01*
X42439167Y22314816D01*
X43215821Y22314374D01*
X43912333Y22314112D01*
X44533228Y22314094D01*
X45083030Y22314380D01*
X45566262Y22315033D01*
X45987451Y22316115D01*
X46351120Y22317688D01*
X46661794Y22319812D01*
X46923997Y22322551D01*
X47142254Y22325966D01*
X47321089Y22330118D01*
X47465027Y22335070D01*
X47578592Y22340884D01*
X47666308Y22347620D01*
X47732701Y22355342D01*
X47782295Y22364111D01*
X47819613Y22373988D01*
X47849181Y22385037D01*
X47857834Y22388870D01*
X48074110Y22527190D01*
X48254001Y22718183D01*
X48367669Y22922415D01*
X48391304Y22999537D01*
X48408169Y23096801D01*
X48418935Y23227066D01*
X48424275Y23403190D01*
X48424859Y23638034D01*
X48421361Y23944458D01*
X48421295Y23948771D01*
X48408167Y24800335D01*
X48279594Y24983125D01*
X48079129Y25203725D01*
X47840855Y25354001D01*
X47714647Y25399321D01*
X47647314Y25406282D01*
X47501830Y25412649D01*
X47284571Y25418426D01*
X47001914Y25423618D01*
X46660237Y25428226D01*
X46265916Y25432257D01*
X45825328Y25435712D01*
X45344852Y25438596D01*
X44830863Y25440912D01*
X44289739Y25442664D01*
X43727856Y25443856D01*
X43151593Y25444491D01*
X42567326Y25444574D01*
X41981432Y25444107D01*
X41400288Y25443095D01*
X40830272Y25441541D01*
X40277760Y25439448D01*
X39749130Y25436821D01*
X39250758Y25433664D01*
X38789022Y25429979D01*
X38370299Y25425771D01*
X38000965Y25421043D01*
X37687399Y25415798D01*
X37435977Y25410042D01*
X37253076Y25403777D01*
X37145073Y25397006D01*
X37120341Y25393203D01*
X36931410Y25303009D01*
X36743662Y25156423D01*
X36584905Y24977427D01*
X36521623Y24876868D01*
X36489121Y24810966D01*
X36465116Y24743199D01*
X36448332Y24659927D01*
X36437489Y24547514D01*
X36431311Y24392321D01*
X36428519Y24180710D01*
X36427835Y23899042D01*
X36427834Y23876000D01*
X-36200922Y23876000D01*
X-36202869Y24019495D01*
X-36210355Y24283147D01*
X-36219617Y24477870D01*
X-36232649Y24619401D01*
X-36251445Y24723478D01*
X-36277998Y24805837D01*
X-36311470Y24876868D01*
X-36441880Y25062931D01*
X-36617044Y25229831D01*
X-36808965Y25353362D01*
X-36908674Y25393203D01*
X-36974267Y25400240D01*
X-37118149Y25406775D01*
X-37333941Y25412802D01*
X-37615268Y25418319D01*
X-37955751Y25423322D01*
X-38349014Y25427807D01*
X-38788680Y25431770D01*
X-39268371Y25435209D01*
X-39781711Y25438118D01*
X-40322322Y25440495D01*
X-40883827Y25442336D01*
X-41459850Y25443637D01*
X-42044013Y25444394D01*
X-42629939Y25444604D01*
X-43211251Y25444263D01*
X-43781571Y25443367D01*
X-44334524Y25441913D01*
X-44863731Y25439897D01*
X-45362816Y25437316D01*
X-45825401Y25434165D01*
X-46245110Y25430441D01*
X-46615565Y25426140D01*
X-46930389Y25421259D01*
X-47183205Y25415793D01*
X-47367637Y25409740D01*
X-47477306Y25403096D01*
X-47502980Y25399321D01*
X-47755881Y25285927D01*
X-47975985Y25098511D01*
X-48067927Y24983109D01*
X-48196500Y24800304D01*
X-48210339Y23950618D01*
X-48214162Y23644594D01*
X-50440378Y23644594D01*
X-50440166Y24235833D01*
X-50345475Y24574500D01*
X-50172219Y25063791D01*
X-49933603Y25541990D01*
X-49641492Y25990455D01*
X-49307755Y26390546D01*
X-49012237Y26668713D01*
X-48750154Y26860341D01*
X-48432227Y27051508D01*
X-48086170Y27228100D01*
X-47739698Y27376004D01*
X-47420525Y27481103D01*
X-47413333Y27483008D01*
X-47053500Y27577687D01*
X-41373952Y27590684D01*
X-35694405Y27603681D01*
X-35670685Y27951757D01*
X-35662493Y28089914D01*
X-35651828Y28296887D01*
X-35639426Y28556888D01*
X-35626021Y28854129D01*
X-35612348Y29172819D01*
X-35601301Y29442833D01*
X-35558422Y30444120D01*
X-35509634Y31453721D01*
X-35455502Y32464182D01*
X-35396590Y33468043D01*
X-35333464Y34457848D01*
X-35266687Y35426139D01*
X-35196824Y36365459D01*
X-35124439Y37268351D01*
X-35050098Y38127357D01*
X-34974363Y38935020D01*
X-34897800Y39683882D01*
X-34820973Y40366487D01*
X-34744447Y40975376D01*
X-34708930Y41232667D01*
X-34610372Y41867855D01*
X-34499025Y42486158D01*
X-34377094Y43079283D01*
X-34246788Y43638935D01*
X-34110312Y44156819D01*
X-33969874Y44624641D01*
X-33827681Y45034107D01*
X-33685939Y45376923D01*
X-33546855Y45644793D01*
X-33525978Y45678596D01*
X-33364485Y45873983D01*
X-33126370Y46077604D01*
X-32818967Y46286736D01*
X-32449609Y46498656D01*
X-32025629Y46710642D01*
X-31554361Y46919970D01*
X-31043137Y47123918D01*
X-30499292Y47319763D01*
X-29930157Y47504782D01*
X-29343067Y47676253D01*
X-28745354Y47831452D01*
X-28144353Y47967657D01*
X-27547395Y48082145D01*
X-26961815Y48172193D01*
X-26733500Y48200633D01*
X-26400587Y48231134D01*
X-26053453Y48248735D01*
X-25708307Y48253803D01*
X-25381354Y48246711D01*
X-25088803Y48227828D01*
X-24846860Y48197524D01*
X-24671731Y48156170D01*
X-24663714Y48153349D01*
X-24442853Y48047310D01*
X-24271632Y47902070D01*
X-24146063Y47709488D01*
X-24062156Y47461423D01*
X-24015923Y47149734D01*
X-24003229Y46805222D01*
X-24010222Y46526772D01*
X-24031718Y46221456D01*
X-24068849Y45882668D01*
X-24122747Y45503804D01*
X-24194545Y45078256D01*
X-24285375Y44599420D01*
X-24396370Y44060689D01*
X-24528661Y43455457D01*
X-24683381Y42777119D01*
X-24722624Y42608500D01*
X-24882303Y41915217D01*
X-25036370Y41226072D01*
X-25186633Y40531890D01*
X-25334902Y39823498D01*
X-25482985Y39091722D01*
X-25632691Y38327387D01*
X-25785828Y37521321D01*
X-25944204Y36664348D01*
X-26109630Y35747295D01*
X-26283913Y34760988D01*
X-26391806Y34141833D01*
X-26439679Y33862641D01*
X-26495313Y33532709D01*
X-26557471Y33159764D01*
X-26624916Y32751537D01*
X-26696408Y32315756D01*
X-26770712Y31860150D01*
X-26846588Y31392449D01*
X-26922800Y30920380D01*
X-26998108Y30451675D01*
X-27071277Y29994060D01*
X-27141068Y29555266D01*
X-27206243Y29143021D01*
X-27265564Y28765055D01*
X-27317794Y28429095D01*
X-27361696Y28142873D01*
X-27396030Y27914115D01*
X-27419561Y27750552D01*
X-27431049Y27659913D01*
X-27432000Y27646320D01*
X-27397890Y27634959D01*
X-27294061Y27625335D01*
X-27118261Y27617402D01*
X-26868239Y27611112D01*
X-26541745Y27606417D01*
X-26136526Y27603269D01*
X-25650333Y27601622D01*
X-25298661Y27601333D01*
X-23165322Y27601333D01*
X-23140690Y27971750D01*
X-23128584Y28170051D01*
X-23115025Y28417874D01*
X-23101870Y28680143D01*
X-23093118Y28871333D01*
X-23049305Y29844904D01*
X-23002317Y30819976D01*
X-22952516Y31791464D01*
X-22900267Y32754285D01*
X-22845935Y33703356D01*
X-22789884Y34633592D01*
X-22732480Y35539909D01*
X-22674086Y36417224D01*
X-22615066Y37260453D01*
X-22555786Y38064512D01*
X-22496610Y38824316D01*
X-22437903Y39534783D01*
X-22380029Y40190828D01*
X-22323352Y40787367D01*
X-22268237Y41319317D01*
X-22215048Y41781593D01*
X-22164151Y42169112D01*
X-22118781Y42460333D01*
X-22032724Y42898775D01*
X-21924382Y43358004D01*
X-21799312Y43819490D01*
X-21663072Y44264703D01*
X-21521221Y44675114D01*
X-21379317Y45032192D01*
X-21287793Y45230731D01*
X-21122429Y45515059D01*
X-20918210Y45772260D01*
X-20664872Y46011575D01*
X-20352151Y46242245D01*
X-19969780Y46473509D01*
X-19812000Y46559274D01*
X-19247616Y46834064D01*
X-18623243Y47094202D01*
X-17952569Y47336397D01*
X-17249282Y47557358D01*
X-16527072Y47753793D01*
X-15799627Y47922412D01*
X-15080635Y48059924D01*
X-14383785Y48163037D01*
X-13722765Y48228462D01*
X-13111264Y48252906D01*
X-12790962Y48247276D01*
X-12395211Y48220297D01*
X-12073947Y48174283D01*
X-11818619Y48106731D01*
X-11620678Y48015134D01*
X-11471572Y47896987D01*
X-11428700Y47848096D01*
X-11386982Y47789297D01*
X-11361343Y47726858D01*
X-11349356Y47641342D01*
X-11348594Y47513316D01*
X-11356630Y47323345D01*
X-11358547Y47286333D01*
X-11392791Y46862584D01*
X-11455262Y46359318D01*
X-11545907Y45776826D01*
X-11664675Y45115396D01*
X-11811516Y44375319D01*
X-11986379Y43556883D01*
X-12132901Y42904833D01*
X-12296170Y42173479D01*
X-12469669Y41361643D01*
X-12652742Y40472807D01*
X-12844730Y39510451D01*
X-13044976Y38478058D01*
X-13252822Y37379110D01*
X-13467612Y36217087D01*
X-13688687Y34995472D01*
X-13915390Y33717746D01*
X-14147063Y32387390D01*
X-14383049Y31007887D01*
X-14411520Y30839833D01*
X-14490741Y30372253D01*
X-14566835Y29924081D01*
X-14638455Y29503207D01*
X-14704249Y29117516D01*
X-14762869Y28774897D01*
X-14812965Y28483237D01*
X-14853186Y28250423D01*
X-14882183Y28084343D01*
X-14898606Y27992885D01*
X-14899699Y27987139D01*
X-14924622Y27843889D01*
X-14940556Y27725421D01*
X-14943666Y27680222D01*
X-14941600Y27668615D01*
X-14932490Y27658206D01*
X-14911970Y27648928D01*
X-14875675Y27640717D01*
X-14819239Y27633508D01*
X-14738296Y27627236D01*
X-14628481Y27621836D01*
X-14485428Y27617242D01*
X-14304771Y27613390D01*
X-14082145Y27610214D01*
X-13813183Y27607650D01*
X-13493519Y27605632D01*
X-13118789Y27604095D01*
X-12684627Y27602974D01*
X-12186666Y27602205D01*
X-11620541Y27601721D01*
X-10981886Y27601458D01*
X-10266336Y27601351D01*
X-9652000Y27601333D01*
X-8990120Y27601546D01*
X-8352125Y27602166D01*
X-7743083Y27603168D01*
X-7168064Y27604525D01*
X-6632136Y27606212D01*
X-6140370Y27608203D01*
X-5697834Y27610471D01*
X-5309598Y27612992D01*
X-4980731Y27615738D01*
X-4716302Y27618684D01*
X-4521380Y27621805D01*
X-4401036Y27625073D01*
X-4360333Y27628430D01*
X-4373525Y27676307D01*
X-4409666Y27788506D01*
X-4463608Y27949481D01*
X-4530201Y28143686D01*
X-4547800Y28194393D01*
X-4666987Y28561593D01*
X-4787567Y28977013D01*
X-4901912Y29411231D01*
X-5002388Y29834828D01*
X-5081367Y30218381D01*
X-5100305Y30324628D01*
X-5164027Y30774995D01*
X-5208602Y31269366D01*
X-5234533Y31817804D01*
X-5242323Y32430371D01*
X-5234808Y33020000D01*
X-5208522Y33827295D01*
X-5166973Y34565659D01*
X-5108685Y35249698D01*
X-5032184Y35894016D01*
X-4935993Y36513220D01*
X-4822165Y37105167D01*
X-4740332Y37479822D01*
X-4656156Y37831328D01*
X-4566090Y38169441D01*
X-4466584Y38503917D01*
X-4354091Y38844514D01*
X-4225062Y39200986D01*
X-4075949Y39583091D01*
X-3903202Y40000584D01*
X-3703275Y40463223D01*
X-3472618Y40980762D01*
X-3207683Y41562959D01*
X-3174703Y41634833D01*
X-2939490Y42148882D01*
X-2738309Y42594911D01*
X-2568967Y42981424D01*
X-2429270Y43316927D01*
X-2317024Y43609924D01*
X-2230034Y43868921D01*
X-2166108Y44102421D01*
X-2123050Y44318931D01*
X-2098666Y44526954D01*
X-2090764Y44734996D01*
X-2097148Y44951561D01*
X-2115625Y45185155D01*
X-2144001Y45444281D01*
X-2159334Y45570823D01*
X-2199697Y45929073D01*
X-2222584Y46216935D01*
X-2227634Y46446941D01*
X-2214481Y46631621D01*
X-2182764Y46783506D01*
X-2132118Y46915129D01*
X-2119638Y46940217D01*
X-1959528Y47163928D01*
X-1735481Y47355665D01*
X-1463819Y47510413D01*
X-1160864Y47623162D01*
X-842938Y47688898D01*
X-526363Y47702610D01*
X-227461Y47659284D01*
X-21166Y47584649D01*
X257095Y47405823D01*
X517033Y47148986D01*
X755779Y46819373D01*
X970462Y46422220D01*
X1158214Y45962760D01*
X1316163Y45446227D01*
X1430474Y44936833D01*
X1460519Y44719591D01*
X1483096Y44436142D01*
X1498228Y44104615D01*
X1505940Y43743139D01*
X1506253Y43369842D01*
X1499191Y43002853D01*
X1484778Y42660299D01*
X1463036Y42360309D01*
X1433990Y42121012D01*
X1426810Y42079333D01*
X1337288Y41614993D01*
X1231952Y41107586D01*
X1108700Y40547558D01*
X965428Y39925353D01*
X802836Y39243000D01*
X624601Y38488687D01*
X472447Y37805423D01*
X345528Y37183985D01*
X242997Y36615151D01*
X164009Y36089699D01*
X107718Y35598407D01*
X73278Y35132052D01*
X59844Y34681413D01*
X66569Y34237267D01*
X92607Y33790391D01*
X137113Y33331565D01*
X199241Y32851564D01*
X209875Y32778209D01*
X308717Y32215632D01*
X440590Y31662610D01*
X610813Y31102196D01*
X824703Y30517443D01*
X1087578Y29891404D01*
X1180658Y29684521D01*
X1367558Y29290819D01*
X1550929Y28942113D01*
X1741506Y28623221D01*
X1950020Y28318963D01*
X2187205Y28014160D01*
X2463794Y27693630D01*
X2790520Y27342193D01*
X2963334Y27163174D01*
X3278496Y26844215D01*
X3550797Y26580187D01*
X3792284Y26361570D01*
X4015001Y26178847D01*
X4230996Y26022499D01*
X4452315Y25883008D01*
X4691004Y25750856D01*
X4858587Y25665664D01*
X5057088Y25569606D01*
X5227988Y25491092D01*
X5357465Y25436144D01*
X5431700Y25410785D01*
X5443517Y25410739D01*
X5442167Y25457541D01*
X5399646Y25561879D01*
X5314669Y25726072D01*
X5185951Y25952441D01*
X5012207Y26243305D01*
X4792153Y26600985D01*
X4722746Y26712333D01*
X4518980Y27039285D01*
X4353855Y27306869D01*
X4220569Y27527153D01*
X4112319Y27712207D01*
X4022303Y27874098D01*
X3943719Y28024898D01*
X3869762Y28176673D01*
X3793632Y28341493D01*
X3750614Y28437062D01*
X3455989Y29163607D01*
X3209315Y29922828D01*
X3007687Y30726055D01*
X2848201Y31584616D01*
X2743888Y32363833D01*
X2723969Y32601475D01*
X2708988Y32904890D01*
X2698944Y33255494D01*
X2693833Y33634706D01*
X2693655Y34023941D01*
X2698408Y34404617D01*
X2708090Y34758151D01*
X2722698Y35065961D01*
X2742232Y35309463D01*
X2744183Y35327167D01*
X2889727Y36351206D01*
X3092581Y37347199D01*
X3356693Y38328396D01*
X3686007Y39308046D01*
X4084472Y40299398D01*
X4484373Y41169167D01*
X4807757Y41809904D01*
X5128258Y42387256D01*
X5457348Y42916907D01*
X5806502Y43414541D01*
X6187195Y43895843D01*
X6610899Y44376498D01*
X7089091Y44872190D01*
X7453939Y45228438D01*
X8199310Y45899980D01*
X8946382Y46488666D01*
X9698524Y46996293D01*
X10459106Y47424658D01*
X11231495Y47775554D01*
X12019061Y48050778D01*
X12825172Y48252126D01*
X13275991Y48331775D01*
X13495696Y48356817D01*
X13783876Y48377228D01*
X14124462Y48392916D01*
X14501384Y48403790D01*
X14898573Y48409757D01*
X15299960Y48410725D01*
X15689475Y48406602D01*
G37*
X15689475Y48406602D02*
X16051048Y48397296D01*
X16368610Y48382714D01*
X16626091Y48362766D01*
X16721667Y48351525D01*
X17712407Y48193110D01*
X18634393Y47996913D01*
X19496094Y47759864D01*
X20305980Y47478896D01*
X21072520Y47150940D01*
X21804183Y46772925D01*
X22509438Y46341785D01*
X22784984Y46154507D01*
X23614627Y45524470D01*
X24381896Y44839191D01*
X25084759Y44101543D01*
X25721181Y43314395D01*
X26289131Y42480620D01*
X26786574Y41603088D01*
X27211478Y40684671D01*
X27561810Y39728240D01*
X27724015Y39179500D01*
X27808244Y38855475D01*
X27880070Y38546194D01*
X27940435Y38241527D01*
X27990280Y37931345D01*
X28030547Y37605517D01*
X28062178Y37253913D01*
X28086115Y36866404D01*
X28103299Y36432861D01*
X28114674Y35943152D01*
X28121179Y35387149D01*
X28123523Y34882667D01*
X28120062Y34155705D01*
X28105255Y33501004D01*
X28077785Y32906753D01*
X28036336Y32361143D01*
X27979591Y31852363D01*
X27906233Y31368603D01*
X27814946Y30898054D01*
X27704414Y30428905D01*
X27573752Y29950833D01*
X27440762Y29536057D01*
X27275280Y29089552D01*
X27085857Y28630207D01*
X26881046Y28176913D01*
X26669398Y27748557D01*
X26459464Y27364028D01*
X26259796Y27042215D01*
X26251139Y27029437D01*
X26139383Y26862184D01*
X26069445Y26745657D01*
X26033826Y26661765D01*
X26025026Y26592414D01*
X26035545Y26519511D01*
X26037017Y26512889D01*
X26074224Y26402016D01*
X26120635Y26328841D01*
X26127189Y26323606D01*
X26246266Y26293864D01*
X26411298Y26331535D01*
X26619438Y26434846D01*
X26867837Y26602024D01*
X27153648Y26831296D01*
X27474024Y27120889D01*
X27595648Y27237979D01*
X28253832Y27927920D01*
X28833226Y28636645D01*
X29339066Y29372549D01*
X29776589Y30144028D01*
X30151031Y30959479D01*
X30467628Y31827298D01*
X30477943Y31859401D01*
X30685765Y32609496D01*
X30831099Y33369622D01*
X30913916Y34146733D01*
X30934193Y34947780D01*
X30891901Y35779716D01*
X30787015Y36649494D01*
X30619509Y37564066D01*
X30453745Y38279679D01*
X30397464Y38498820D01*
X30337224Y38721457D01*
X30270416Y38955816D01*
X30194430Y39210121D01*
X30106659Y39492598D01*
X30004493Y39811474D01*
X29885323Y40174972D01*
X29746540Y40591320D01*
X29585535Y41068743D01*
X29399698Y41615466D01*
X29342547Y41783000D01*
X29200781Y42201693D01*
X29084987Y42555241D01*
X28992362Y42858127D01*
X28920101Y43124833D01*
X28865400Y43369841D01*
X28825456Y43607633D01*
X28797463Y43852691D01*
X28778618Y44119497D01*
X28766116Y44422533D01*
X28757153Y44776280D01*
X28756451Y44809833D01*
X28749689Y45221298D01*
X28749155Y45560586D01*
X28756392Y45840060D01*
X28772946Y46072080D01*
X28800359Y46269007D01*
X28840177Y46443202D01*
X28893945Y46607028D01*
X28963206Y46772843D01*
X29015623Y46884167D01*
X29259518Y47309901D01*
X29542271Y47661197D01*
X29865630Y47939714D01*
X30231341Y48147116D01*
X30422550Y48221934D01*
X30579012Y48269174D01*
X30731719Y48299208D01*
X30907906Y48315544D01*
X31134804Y48321689D01*
X31199667Y48322037D01*
X31466300Y48316517D01*
X31670324Y48293182D01*
X31833201Y48244211D01*
X31976397Y48161788D01*
X32121376Y48038092D01*
X32202935Y47956577D01*
X32411351Y47684754D01*
X32551458Y47368785D01*
X32623634Y47006722D01*
X32628253Y46596619D01*
X32565694Y46136527D01*
X32560158Y46108982D01*
X32479759Y45623031D01*
X32441193Y45165450D01*
X32445521Y44753530D01*
X32465297Y44561545D01*
X32490371Y44417495D01*
X32526632Y44277404D01*
X32579151Y44131432D01*
X32652997Y43969739D01*
X32753240Y43782483D01*
X32884950Y43559825D01*
X33053197Y43291923D01*
X33263050Y42968936D01*
X33367193Y42810889D01*
X33738879Y42239495D01*
X34062048Y41721500D01*
X34342398Y41245271D01*
X34585623Y40799172D01*
X34797421Y40371570D01*
X34983487Y39950829D01*
X35149517Y39525315D01*
X35301207Y39083394D01*
X35444253Y38613430D01*
X35475025Y38505488D01*
X35685042Y37680374D01*
X35864540Y36809563D01*
X36012252Y35907864D01*
X36126909Y34990084D01*
X36207244Y34071032D01*
X36251990Y33165516D01*
X36259878Y32288343D01*
X36229642Y31454323D01*
X36160013Y30678264D01*
X36151164Y30607000D01*
X36066238Y30076552D01*
X35942981Y29500267D01*
X35787939Y28904106D01*
X35607660Y28314025D01*
X35480033Y27945992D01*
X35355076Y27603603D01*
X41246621Y27590688D01*
X47138167Y27577772D01*
X47489275Y27483916D01*
X48058889Y27291931D01*
X48579680Y27034456D01*
X49047294Y26714005D01*
X49427063Y26365443D01*
X49782476Y25943010D01*
X50070935Y25491428D01*
X50302227Y24993763D01*
X50427291Y24635152D01*
X50524834Y24320500D01*
X50537532Y-10223500D01*
X50538303Y-12401812D01*
X50538983Y-14496716D01*
X50539571Y-16509473D01*
X50540065Y-18441341D01*
X50540464Y-20293580D01*
X50540767Y-22067448D01*
X50540972Y-23764206D01*
X50541079Y-25385113D01*
X50541085Y-26931428D01*
X50540989Y-28404410D01*
X50540791Y-29805319D01*
X50540488Y-31135414D01*
X50540080Y-32395954D01*
X50539565Y-33588199D01*
X50538942Y-34713407D01*
X50538209Y-35772839D01*
X50537366Y-36767754D01*
X50536411Y-37699411D01*
X50535342Y-38569069D01*
X50534158Y-39377988D01*
X50532859Y-40127426D01*
X50531442Y-40818644D01*
X50529906Y-41452901D01*
X50528251Y-42031455D01*
X50526474Y-42555567D01*
X50524575Y-43026495D01*
X50522551Y-43445499D01*
X50520403Y-43813839D01*
X50518127Y-44132773D01*
X50515724Y-44403561D01*
X50513192Y-44627462D01*
X50510529Y-44805736D01*
X50507735Y-44939642D01*
X50504807Y-45030439D01*
X50501745Y-45079387D01*
X50501117Y-45084259D01*
X50374930Y-45629636D01*
X50173553Y-46145162D01*
X49903116Y-46624560D01*
X49569749Y-47061553D01*
X49179580Y-47449864D01*
X48738740Y-47783214D01*
X48253358Y-48055328D01*
X47729563Y-48259927D01*
X47293193Y-48369589D01*
X47268401Y-48372687D01*
X47225877Y-48375678D01*
X47164220Y-48378562D01*
X47082029Y-48381341D01*
X46977901Y-48384017D01*
X46850434Y-48386591D01*
X46698226Y-48389066D01*
X46519876Y-48391442D01*
X46313981Y-48393722D01*
X46079141Y-48395906D01*
X45813952Y-48397998D01*
X45517013Y-48399997D01*
X45186923Y-48401906D01*
X44822278Y-48403727D01*
X44421678Y-48405460D01*
X43983721Y-48407109D01*
X43507004Y-48408674D01*
X42990126Y-48410156D01*
X42431685Y-48411559D01*
X41830278Y-48412882D01*
X41184505Y-48414128D01*
X40492963Y-48415299D01*
X39754251Y-48416396D01*
X38966966Y-48417421D01*
X38129706Y-48418374D01*
X37241070Y-48419259D01*
X36299656Y-48420077D01*
X35304062Y-48420828D01*
X34252886Y-48421515D01*
X33144726Y-48422140D01*
X31978181Y-48422704D01*
X30751848Y-48423209D01*
X29464325Y-48423656D01*
X28114212Y-48424046D01*
X26700105Y-48424383D01*
X25220602Y-48424666D01*
X23674303Y-48424899D01*
X22059805Y-48425082D01*
X20375707Y-48425217D01*
X18620605Y-48425305D01*
X16793100Y-48425349D01*
X14891788Y-48425350D01*
X12915267Y-48425309D01*
X10862137Y-48425229D01*
X8730994Y-48425110D01*
X6520438Y-48424955D01*
X4229066Y-48424765D01*
X1855476Y-48424542D01*
X28026Y-48424354D01*
X-1965580Y-48424112D01*
X-3939012Y-48423811D01*
X-5890557Y-48423453D01*
X-7818503Y-48423039D01*
X-9721140Y-48422571D01*
X-11596755Y-48422050D01*
X-13443636Y-48421477D01*
X-15260072Y-48420854D01*
X-17044352Y-48420183D01*
X-18794763Y-48419464D01*
X-20509594Y-48418700D01*
X-22187132Y-48417891D01*
X-23825668Y-48417039D01*
X-25423488Y-48416146D01*
X-26978881Y-48415213D01*
X-28490135Y-48414241D01*
X-29955539Y-48413232D01*
X-31373381Y-48412187D01*
X-32741949Y-48411108D01*
X-34059531Y-48409996D01*
X-35324416Y-48408852D01*
X-36534893Y-48407678D01*
X-37689249Y-48406476D01*
X-38785773Y-48405246D01*
X-39822752Y-48403991D01*
X-40798476Y-48402711D01*
X-41711233Y-48401409D01*
X-42559311Y-48400085D01*
X-43340998Y-48398740D01*
X-44054582Y-48397378D01*
X-44698352Y-48395998D01*
X-45270597Y-48394602D01*
X-45769604Y-48393192D01*
X-46193662Y-48391769D01*
X-46541058Y-48390334D01*
X-46810083Y-48388889D01*
X-46999023Y-48387436D01*
X-47106166Y-48385976D01*
X-47131404Y-48384983D01*
X-47535117Y-48289445D01*
X-47958202Y-48140260D01*
X-48368089Y-47950642D01*
X-48725666Y-47738264D01*
X-48917682Y-47591096D01*
X-49135033Y-47398103D01*
X-49353820Y-47182339D01*
X-49550141Y-46966855D01*
X-49640857Y-46855550D01*
X-49930742Y-46415463D01*
X-50164181Y-45924510D01*
X-50333629Y-45400944D01*
X-50417017Y-44978165D01*
X-50420063Y-44932938D01*
X-50422975Y-44840494D01*
X-50425754Y-44699697D01*
X-50428402Y-44509411D01*
X-50430920Y-44268501D01*
X-50433308Y-43975832D01*
X-50435569Y-43630267D01*
X-50437702Y-43230672D01*
X-50439710Y-42775910D01*
X-50441594Y-42264847D01*
X-50443354Y-41696346D01*
X-50444992Y-41069273D01*
X-50446510Y-40382491D01*
X-50447907Y-39634866D01*
X-50449185Y-38825261D01*
X-50450347Y-37952541D01*
X-50451391Y-37015571D01*
X-50452321Y-36013215D01*
X-50453136Y-34944337D01*
X-50453839Y-33807803D01*
X-50454429Y-32602476D01*
X-50454910Y-31327221D01*
X-50455280Y-29980902D01*
X-50455543Y-28562384D01*
X-50455698Y-27070532D01*
X-50455748Y-25504210D01*
X-50455692Y-23862282D01*
X-50455533Y-22143613D01*
X-50455272Y-20347067D01*
X-50454909Y-18471509D01*
X-50454446Y-16515803D01*
X-50453884Y-14478814D01*
X-50453225Y-12359406D01*
X-50452485Y-10202333D01*
X-50440378Y23644594D01*
X-48214162Y23644594D01*
X-48213900Y23410180D01*
X-48208875Y23234386D01*
X-48198409Y23104225D01*
X-48181823Y23006708D01*
X-48158438Y22928845D01*
X-48156714Y22924278D01*
X-48032596Y22705329D01*
X-47848547Y22515738D01*
X-47646166Y22388870D01*
X-47618139Y22377449D01*
X-47583730Y22367207D01*
X-47538426Y22358079D01*
X-47477714Y22350000D01*
X-47397078Y22342904D01*
X-47292005Y22336728D01*
X-47157981Y22331406D01*
X-46990493Y22326872D01*
X-46785025Y22323063D01*
X-46537065Y22319913D01*
X-46242098Y22317357D01*
X-45895610Y22315331D01*
X-45493087Y22313768D01*
X-45030016Y22312606D01*
X-44501882Y22311777D01*
X-43904172Y22311219D01*
X-43232371Y22310864D01*
X-42481965Y22310650D01*
X-42205678Y22310597D01*
X-36934524Y22309667D01*
X-36744678Y22410095D01*
X-36519741Y22575375D01*
X-36349082Y22798293D01*
X-36244031Y23063524D01*
X-36236290Y23097860D01*
X-36215669Y23255881D01*
X-36203225Y23484166D01*
X-36199467Y23768659D01*
X-36200922Y23876000D01*
X36427834Y23876000D01*
X36428345Y23589617D01*
X36430802Y23373838D01*
X36436589Y23214604D01*
X36447092Y23097854D01*
X36463694Y23009527D01*
X36487780Y22935564D01*
X36520735Y22861905D01*
X36529457Y22844052D01*
X36644823Y22673582D01*
X36806412Y22514743D01*
X36985279Y22392944D01*
X37097220Y22345637D01*
X37150519Y22342147D01*
X37283275Y22338733D01*
X37490277Y22335425D01*
X37766315Y22332252D01*
X38106180Y22329246D01*
X38504661Y22326436D01*
X38956548Y22323852D01*
X39456632Y22321525D01*
X39999701Y22319483D01*
X40580546Y22317758D01*
X41193957Y22316379D01*
X41834724Y22315377D01*
X42439167Y22314816D01*
X43215821Y22314374D01*
X43912333Y22314112D01*
X44533228Y22314094D01*
X45083030Y22314380D01*
X45566262Y22315033D01*
X45987451Y22316115D01*
X46351120Y22317688D01*
X46661794Y22319812D01*
X46923997Y22322551D01*
X47142254Y22325966D01*
X47321089Y22330118D01*
X47465027Y22335070D01*
X47578592Y22340884D01*
X47666308Y22347620D01*
X47732701Y22355342D01*
X47782295Y22364111D01*
X47819613Y22373988D01*
X47849181Y22385037D01*
X47857834Y22388870D01*
X48074110Y22527190D01*
X48254001Y22718183D01*
X48367669Y22922415D01*
X48391304Y22999537D01*
X48408169Y23096801D01*
X48418935Y23227066D01*
X48424275Y23403190D01*
X48424859Y23638034D01*
X48421361Y23944458D01*
X48421295Y23948771D01*
X48408167Y24800335D01*
X48279594Y24983125D01*
X48079129Y25203725D01*
X47840855Y25354001D01*
X47714647Y25399321D01*
X47647314Y25406282D01*
X47501830Y25412649D01*
X47284571Y25418426D01*
X47001914Y25423618D01*
X46660237Y25428226D01*
X46265916Y25432257D01*
X45825328Y25435712D01*
X45344852Y25438596D01*
X44830863Y25440912D01*
X44289739Y25442664D01*
X43727856Y25443856D01*
X43151593Y25444491D01*
X42567326Y25444574D01*
X41981432Y25444107D01*
X41400288Y25443095D01*
X40830272Y25441541D01*
X40277760Y25439448D01*
X39749130Y25436821D01*
X39250758Y25433664D01*
X38789022Y25429979D01*
X38370299Y25425771D01*
X38000965Y25421043D01*
X37687399Y25415798D01*
X37435977Y25410042D01*
X37253076Y25403777D01*
X37145073Y25397006D01*
X37120341Y25393203D01*
X36931410Y25303009D01*
X36743662Y25156423D01*
X36584905Y24977427D01*
X36521623Y24876868D01*
X36489121Y24810966D01*
X36465116Y24743199D01*
X36448332Y24659927D01*
X36437489Y24547514D01*
X36431311Y24392321D01*
X36428519Y24180710D01*
X36427835Y23899042D01*
X36427834Y23876000D01*
X-36200922Y23876000D01*
X-36202869Y24019495D01*
X-36210355Y24283147D01*
X-36219617Y24477870D01*
X-36232649Y24619401D01*
X-36251445Y24723478D01*
X-36277998Y24805837D01*
X-36311470Y24876868D01*
X-36441880Y25062931D01*
X-36617044Y25229831D01*
X-36808965Y25353362D01*
X-36908674Y25393203D01*
X-36974267Y25400240D01*
X-37118149Y25406775D01*
X-37333941Y25412802D01*
X-37615268Y25418319D01*
X-37955751Y25423322D01*
X-38349014Y25427807D01*
X-38788680Y25431770D01*
X-39268371Y25435209D01*
X-39781711Y25438118D01*
X-40322322Y25440495D01*
X-40883827Y25442336D01*
X-41459850Y25443637D01*
X-42044013Y25444394D01*
X-42629939Y25444604D01*
X-43211251Y25444263D01*
X-43781571Y25443367D01*
X-44334524Y25441913D01*
X-44863731Y25439897D01*
X-45362816Y25437316D01*
X-45825401Y25434165D01*
X-46245110Y25430441D01*
X-46615565Y25426140D01*
X-46930389Y25421259D01*
X-47183205Y25415793D01*
X-47367637Y25409740D01*
X-47477306Y25403096D01*
X-47502980Y25399321D01*
X-47755881Y25285927D01*
X-47975985Y25098511D01*
X-48067927Y24983109D01*
X-48196500Y24800304D01*
X-48210339Y23950618D01*
X-48214162Y23644594D01*
X-50440378Y23644594D01*
X-50440166Y24235833D01*
X-50345475Y24574500D01*
X-50172219Y25063791D01*
X-49933603Y25541990D01*
X-49641492Y25990455D01*
X-49307755Y26390546D01*
X-49012237Y26668713D01*
X-48750154Y26860341D01*
X-48432227Y27051508D01*
X-48086170Y27228100D01*
X-47739698Y27376004D01*
X-47420525Y27481103D01*
X-47413333Y27483008D01*
X-47053500Y27577687D01*
X-41373952Y27590684D01*
X-35694405Y27603681D01*
X-35670685Y27951757D01*
X-35662493Y28089914D01*
X-35651828Y28296887D01*
X-35639426Y28556888D01*
X-35626021Y28854129D01*
X-35612348Y29172819D01*
X-35601301Y29442833D01*
X-35558422Y30444120D01*
X-35509634Y31453721D01*
X-35455502Y32464182D01*
X-35396590Y33468043D01*
X-35333464Y34457848D01*
X-35266687Y35426139D01*
X-35196824Y36365459D01*
X-35124439Y37268351D01*
X-35050098Y38127357D01*
X-34974363Y38935020D01*
X-34897800Y39683882D01*
X-34820973Y40366487D01*
X-34744447Y40975376D01*
X-34708930Y41232667D01*
X-34610372Y41867855D01*
X-34499025Y42486158D01*
X-34377094Y43079283D01*
X-34246788Y43638935D01*
X-34110312Y44156819D01*
X-33969874Y44624641D01*
X-33827681Y45034107D01*
X-33685939Y45376923D01*
X-33546855Y45644793D01*
X-33525978Y45678596D01*
X-33364485Y45873983D01*
X-33126370Y46077604D01*
X-32818967Y46286736D01*
X-32449609Y46498656D01*
X-32025629Y46710642D01*
X-31554361Y46919970D01*
X-31043137Y47123918D01*
X-30499292Y47319763D01*
X-29930157Y47504782D01*
X-29343067Y47676253D01*
X-28745354Y47831452D01*
X-28144353Y47967657D01*
X-27547395Y48082145D01*
X-26961815Y48172193D01*
X-26733500Y48200633D01*
X-26400587Y48231134D01*
X-26053453Y48248735D01*
X-25708307Y48253803D01*
X-25381354Y48246711D01*
X-25088803Y48227828D01*
X-24846860Y48197524D01*
X-24671731Y48156170D01*
X-24663714Y48153349D01*
X-24442853Y48047310D01*
X-24271632Y47902070D01*
X-24146063Y47709488D01*
X-24062156Y47461423D01*
X-24015923Y47149734D01*
X-24003229Y46805222D01*
X-24010222Y46526772D01*
X-24031718Y46221456D01*
X-24068849Y45882668D01*
X-24122747Y45503804D01*
X-24194545Y45078256D01*
X-24285375Y44599420D01*
X-24396370Y44060689D01*
X-24528661Y43455457D01*
X-24683381Y42777119D01*
X-24722624Y42608500D01*
X-24882303Y41915217D01*
X-25036370Y41226072D01*
X-25186633Y40531890D01*
X-25334902Y39823498D01*
X-25482985Y39091722D01*
X-25632691Y38327387D01*
X-25785828Y37521321D01*
X-25944204Y36664348D01*
X-26109630Y35747295D01*
X-26283913Y34760988D01*
X-26391806Y34141833D01*
X-26439679Y33862641D01*
X-26495313Y33532709D01*
X-26557471Y33159764D01*
X-26624916Y32751537D01*
X-26696408Y32315756D01*
X-26770712Y31860150D01*
X-26846588Y31392449D01*
X-26922800Y30920380D01*
X-26998108Y30451675D01*
X-27071277Y29994060D01*
X-27141068Y29555266D01*
X-27206243Y29143021D01*
X-27265564Y28765055D01*
X-27317794Y28429095D01*
X-27361696Y28142873D01*
X-27396030Y27914115D01*
X-27419561Y27750552D01*
X-27431049Y27659913D01*
X-27432000Y27646320D01*
X-27397890Y27634959D01*
X-27294061Y27625335D01*
X-27118261Y27617402D01*
X-26868239Y27611112D01*
X-26541745Y27606417D01*
X-26136526Y27603269D01*
X-25650333Y27601622D01*
X-25298661Y27601333D01*
X-23165322Y27601333D01*
X-23140690Y27971750D01*
X-23128584Y28170051D01*
X-23115025Y28417874D01*
X-23101870Y28680143D01*
X-23093118Y28871333D01*
X-23049305Y29844904D01*
X-23002317Y30819976D01*
X-22952516Y31791464D01*
X-22900267Y32754285D01*
X-22845935Y33703356D01*
X-22789884Y34633592D01*
X-22732480Y35539909D01*
X-22674086Y36417224D01*
X-22615066Y37260453D01*
X-22555786Y38064512D01*
X-22496610Y38824316D01*
X-22437903Y39534783D01*
X-22380029Y40190828D01*
X-22323352Y40787367D01*
X-22268237Y41319317D01*
X-22215048Y41781593D01*
X-22164151Y42169112D01*
X-22118781Y42460333D01*
X-22032724Y42898775D01*
X-21924382Y43358004D01*
X-21799312Y43819490D01*
X-21663072Y44264703D01*
X-21521221Y44675114D01*
X-21379317Y45032192D01*
X-21287793Y45230731D01*
X-21122429Y45515059D01*
X-20918210Y45772260D01*
X-20664872Y46011575D01*
X-20352151Y46242245D01*
X-19969780Y46473509D01*
X-19812000Y46559274D01*
X-19247616Y46834064D01*
X-18623243Y47094202D01*
X-17952569Y47336397D01*
X-17249282Y47557358D01*
X-16527072Y47753793D01*
X-15799627Y47922412D01*
X-15080635Y48059924D01*
X-14383785Y48163037D01*
X-13722765Y48228462D01*
X-13111264Y48252906D01*
X-12790962Y48247276D01*
X-12395211Y48220297D01*
X-12073947Y48174283D01*
X-11818619Y48106731D01*
X-11620678Y48015134D01*
X-11471572Y47896987D01*
X-11428700Y47848096D01*
X-11386982Y47789297D01*
X-11361343Y47726858D01*
X-11349356Y47641342D01*
X-11348594Y47513316D01*
X-11356630Y47323345D01*
X-11358547Y47286333D01*
X-11392791Y46862584D01*
X-11455262Y46359318D01*
X-11545907Y45776826D01*
X-11664675Y45115396D01*
X-11811516Y44375319D01*
X-11986379Y43556883D01*
X-12132901Y42904833D01*
X-12296170Y42173479D01*
X-12469669Y41361643D01*
X-12652742Y40472807D01*
X-12844730Y39510451D01*
X-13044976Y38478058D01*
X-13252822Y37379110D01*
X-13467612Y36217087D01*
X-13688687Y34995472D01*
X-13915390Y33717746D01*
X-14147063Y32387390D01*
X-14383049Y31007887D01*
X-14411520Y30839833D01*
X-14490741Y30372253D01*
X-14566835Y29924081D01*
X-14638455Y29503207D01*
X-14704249Y29117516D01*
X-14762869Y28774897D01*
X-14812965Y28483237D01*
X-14853186Y28250423D01*
X-14882183Y28084343D01*
X-14898606Y27992885D01*
X-14899699Y27987139D01*
X-14924622Y27843889D01*
X-14940556Y27725421D01*
X-14943666Y27680222D01*
X-14941600Y27668615D01*
X-14932490Y27658206D01*
X-14911970Y27648928D01*
X-14875675Y27640717D01*
X-14819239Y27633508D01*
X-14738296Y27627236D01*
X-14628481Y27621836D01*
X-14485428Y27617242D01*
X-14304771Y27613390D01*
X-14082145Y27610214D01*
X-13813183Y27607650D01*
X-13493519Y27605632D01*
X-13118789Y27604095D01*
X-12684627Y27602974D01*
X-12186666Y27602205D01*
X-11620541Y27601721D01*
X-10981886Y27601458D01*
X-10266336Y27601351D01*
X-9652000Y27601333D01*
X-8990120Y27601546D01*
X-8352125Y27602166D01*
X-7743083Y27603168D01*
X-7168064Y27604525D01*
X-6632136Y27606212D01*
X-6140370Y27608203D01*
X-5697834Y27610471D01*
X-5309598Y27612992D01*
X-4980731Y27615738D01*
X-4716302Y27618684D01*
X-4521380Y27621805D01*
X-4401036Y27625073D01*
X-4360333Y27628430D01*
X-4373525Y27676307D01*
X-4409666Y27788506D01*
X-4463608Y27949481D01*
X-4530201Y28143686D01*
X-4547800Y28194393D01*
X-4666987Y28561593D01*
X-4787567Y28977013D01*
X-4901912Y29411231D01*
X-5002388Y29834828D01*
X-5081367Y30218381D01*
X-5100305Y30324628D01*
X-5164027Y30774995D01*
X-5208602Y31269366D01*
X-5234533Y31817804D01*
X-5242323Y32430371D01*
X-5234808Y33020000D01*
X-5208522Y33827295D01*
X-5166973Y34565659D01*
X-5108685Y35249698D01*
X-5032184Y35894016D01*
X-4935993Y36513220D01*
X-4822165Y37105167D01*
X-4740332Y37479822D01*
X-4656156Y37831328D01*
X-4566090Y38169441D01*
X-4466584Y38503917D01*
X-4354091Y38844514D01*
X-4225062Y39200986D01*
X-4075949Y39583091D01*
X-3903202Y40000584D01*
X-3703275Y40463223D01*
X-3472618Y40980762D01*
X-3207683Y41562959D01*
X-3174703Y41634833D01*
X-2939490Y42148882D01*
X-2738309Y42594911D01*
X-2568967Y42981424D01*
X-2429270Y43316927D01*
X-2317024Y43609924D01*
X-2230034Y43868921D01*
X-2166108Y44102421D01*
X-2123050Y44318931D01*
X-2098666Y44526954D01*
X-2090764Y44734996D01*
X-2097148Y44951561D01*
X-2115625Y45185155D01*
X-2144001Y45444281D01*
X-2159334Y45570823D01*
X-2199697Y45929073D01*
X-2222584Y46216935D01*
X-2227634Y46446941D01*
X-2214481Y46631621D01*
X-2182764Y46783506D01*
X-2132118Y46915129D01*
X-2119638Y46940217D01*
X-1959528Y47163928D01*
X-1735481Y47355665D01*
X-1463819Y47510413D01*
X-1160864Y47623162D01*
X-842938Y47688898D01*
X-526363Y47702610D01*
X-227461Y47659284D01*
X-21166Y47584649D01*
X257095Y47405823D01*
X517033Y47148986D01*
X755779Y46819373D01*
X970462Y46422220D01*
X1158214Y45962760D01*
X1316163Y45446227D01*
X1430474Y44936833D01*
X1460519Y44719591D01*
X1483096Y44436142D01*
X1498228Y44104615D01*
X1505940Y43743139D01*
X1506253Y43369842D01*
X1499191Y43002853D01*
X1484778Y42660299D01*
X1463036Y42360309D01*
X1433990Y42121012D01*
X1426810Y42079333D01*
X1337288Y41614993D01*
X1231952Y41107586D01*
X1108700Y40547558D01*
X965428Y39925353D01*
X802836Y39243000D01*
X624601Y38488687D01*
X472447Y37805423D01*
X345528Y37183985D01*
X242997Y36615151D01*
X164009Y36089699D01*
X107718Y35598407D01*
X73278Y35132052D01*
X59844Y34681413D01*
X66569Y34237267D01*
X92607Y33790391D01*
X137113Y33331565D01*
X199241Y32851564D01*
X209875Y32778209D01*
X308717Y32215632D01*
X440590Y31662610D01*
X610813Y31102196D01*
X824703Y30517443D01*
X1087578Y29891404D01*
X1180658Y29684521D01*
X1367558Y29290819D01*
X1550929Y28942113D01*
X1741506Y28623221D01*
X1950020Y28318963D01*
X2187205Y28014160D01*
X2463794Y27693630D01*
X2790520Y27342193D01*
X2963334Y27163174D01*
X3278496Y26844215D01*
X3550797Y26580187D01*
X3792284Y26361570D01*
X4015001Y26178847D01*
X4230996Y26022499D01*
X4452315Y25883008D01*
X4691004Y25750856D01*
X4858587Y25665664D01*
X5057088Y25569606D01*
X5227988Y25491092D01*
X5357465Y25436144D01*
X5431700Y25410785D01*
X5443517Y25410739D01*
X5442167Y25457541D01*
X5399646Y25561879D01*
X5314669Y25726072D01*
X5185951Y25952441D01*
X5012207Y26243305D01*
X4792153Y26600985D01*
X4722746Y26712333D01*
X4518980Y27039285D01*
X4353855Y27306869D01*
X4220569Y27527153D01*
X4112319Y27712207D01*
X4022303Y27874098D01*
X3943719Y28024898D01*
X3869762Y28176673D01*
X3793632Y28341493D01*
X3750614Y28437062D01*
X3455989Y29163607D01*
X3209315Y29922828D01*
X3007687Y30726055D01*
X2848201Y31584616D01*
X2743888Y32363833D01*
X2723969Y32601475D01*
X2708988Y32904890D01*
X2698944Y33255494D01*
X2693833Y33634706D01*
X2693655Y34023941D01*
X2698408Y34404617D01*
X2708090Y34758151D01*
X2722698Y35065961D01*
X2742232Y35309463D01*
X2744183Y35327167D01*
X2889727Y36351206D01*
X3092581Y37347199D01*
X3356693Y38328396D01*
X3686007Y39308046D01*
X4084472Y40299398D01*
X4484373Y41169167D01*
X4807757Y41809904D01*
X5128258Y42387256D01*
X5457348Y42916907D01*
X5806502Y43414541D01*
X6187195Y43895843D01*
X6610899Y44376498D01*
X7089091Y44872190D01*
X7453939Y45228438D01*
X8199310Y45899980D01*
X8946382Y46488666D01*
X9698524Y46996293D01*
X10459106Y47424658D01*
X11231495Y47775554D01*
X12019061Y48050778D01*
X12825172Y48252126D01*
X13275991Y48331775D01*
X13495696Y48356817D01*
X13783876Y48377228D01*
X14124462Y48392916D01*
X14501384Y48403790D01*
X14898573Y48409757D01*
X15299960Y48410725D01*
X15689475Y48406602D01*
D11*
X-49948508Y1851311D03*
X-49948508Y-40099258D03*
X49799093Y-40099258D03*
X49799093Y1851311D03*
M02*
